<svg xmlns="http://www.w3.org/2000/svg" viewBox="0 0 360 220" width="360" height="220">
  <rect width="360" height="220" fill="#0a0a0a"/>
  <path d="M 200.48 661.23 L 198.60 672.06 L 203.59 671.37 L 203.99 648.82 L 189.46 648.69 L 189.53 643.58 L 205.97 637.78 L 206.79 629.23 L 228.32 639.16 L 226.00 661.03 L 240.88 663.82 L 241.97 678.84 L 235.08 676.48 L 231.66 683.36 L 222.68 683.79 L 220.50 697.34 L 214.07 693.00 L 177.29 709.11 L 167.03 704.97 L 151.41 710.13 L 142.42 710.33 L 133.77 700.04 L 143.10 697.38 L 135.68 690.14 L 137.54 677.48 L 124.67 672.97 L 122.73 658.82 L 128.13 660.87 L 139.47 652.25 L 146.83 664.84 L 145.75 657.41 L 155.49 653.83 L 174.66 664.04 L 198.62 655.35 L 200.48 661.23 Z" fill="#1c1c1c" stroke="#2e2e2e" stroke-width="0.4"/>
  <path d="M 171.95 586.52 L 135.36 590.89 L 127.43 587.49 L 117.09 597.67 L 119.11 582.24 L 87.19 573.55 L 93.63 563.55 L 89.70 556.30 L 95.23 542.01 L 86.09 546.74 L 89.48 524.59 L 78.76 523.55 L 78.93 518.07 L 93.56 509.36 L 103.10 510.74 L 100.66 492.27 L 108.59 492.40 L 109.41 480.82 L 135.55 474.41 L 135.34 484.53 L 127.79 493.51 L 130.85 496.82 L 136.98 489.43 L 140.82 493.82 L 133.08 509.23 L 161.28 519.18 L 183.11 518.40 L 189.74 522.39 L 190.16 531.10 L 201.46 530.15 L 204.74 537.40 L 213.22 535.93 L 228.61 548.43 L 237.41 542.33 L 250.58 558.13 L 258.04 559.16 L 256.86 564.25 L 270.93 564.75 L 243.08 617.85 L 230.16 607.76 L 222.63 608.93 L 227.31 606.38 L 224.84 589.11 L 213.13 600.67 L 219.49 590.23 L 216.16 586.63 L 200.09 583.58 L 195.24 595.63 L 171.95 586.52 Z" fill="#1c1c1c" stroke="#2e2e2e" stroke-width="0.4"/>
  <path d="M 249.08 580.10 L 253.16 578.72 L 249.08 580.10 Z" fill="#1c1c1c" stroke="#2e2e2e" stroke-width="0.4"/>
  <path d="M 15.13 479.13 L 10.97 484.24 L 10.42 478.96 L -0.27 474.79 L 4.93 471.11 L -5.20 470.43 L -22.99 458.32 L -22.29 453.87 L -5.37 449.43 L -5.26 441.24 L -11.68 441.08 L -11.85 424.45 L -20.24 421.22 L 19.09 417.62 L 37.99 395.39 L 79.41 383.51 L 72.74 395.32 L 74.78 417.71 L 84.58 419.12 L 85.40 424.80 L 76.30 424.79 L 74.74 430.69 L 85.93 437.02 L 97.86 432.23 L 117.43 459.27 L 102.14 475.34 L 103.10 510.74 L 93.56 509.36 L 72.95 518.74 L 73.16 496.65 L 59.39 494.63 L 49.52 478.27 L 33.36 489.38 L 28.26 479.23 L 15.13 479.13 Z" fill="#1c1c1c" stroke="#2e2e2e" stroke-width="0.4"/>
  <path d="M -325.92 267.45 L -332.67 270.90 L -345.87 252.23 L -354.56 255.29 L -353.95 244.94 L -371.10 261.80 L -376.47 262.12 L -372.95 254.09 L -378.96 249.10 L -404.58 252.21 L -412.85 224.76 L -400.55 212.42 L -373.72 202.79 L -369.39 185.81 L -352.93 180.08 L -328.89 185.17 L -317.51 169.25 L -302.68 166.36 L -299.18 171.32 L -310.04 176.68 L -310.36 189.25 L -295.71 187.17 L -289.08 181.58 L -287.69 170.36 L -268.74 170.11 L -265.03 153.68 L -245.54 147.86 L -209.27 145.43 L -184.16 167.94 L -194.80 159.76 L -202.21 163.14 L -201.59 175.38 L -193.08 183.30 L -200.56 189.72 L -243.08 190.89 L -243.15 195.84 L -225.15 207.05 L -190.41 206.76 L -188.55 232.01 L -223.63 243.84 L -214.60 253.28 L -193.28 260.78 L -217.40 298.28 L -255.71 291.45 L -269.84 310.63 L -291.71 302.63 L -291.76 306.29 L -310.58 306.14 L -291.64 296.76 L -291.12 276.19 L -277.17 266.63 L -297.53 270.12 L -301.04 277.01 L -314.63 275.78 L -325.92 267.45 Z" fill="#1c1c1c" stroke="#2e2e2e" stroke-width="0.4"/>
  <path d="M -8.50 324.55 L -4.74 319.67 L 0.96 323.36 L 2.45 319.65 L 78.18 319.61 L 80.54 323.47 L 102.97 315.45 L 114.65 320.28 L 115.09 315.73 L 127.44 314.89 L 125.98 325.72 L 133.05 324.78 L 128.41 328.85 L 134.18 336.10 L 117.14 349.10 L 88.31 348.41 L 91.49 352.80 L 75.49 356.85 L 74.75 367.50 L 64.19 366.51 L 63.97 372.55 L 47.34 370.26 L 49.57 379.47 L 21.23 372.56 L 2.84 389.36 L -13.07 388.22 L -45.88 376.99 L -39.99 370.66 L -37.70 347.91 L -31.53 344.26 L -31.00 330.67 L -36.62 326.61 L -15.78 319.79 L -8.50 324.55 Z" fill="#1c1c1c" stroke="#2e2e2e" stroke-width="0.4"/>
  <path d="M 108.17 315.36 L 99.88 308.98 L 106.67 297.22 L 102.28 277.57 L 108.88 279.61 L 111.30 271.72 L 144.81 275.00 L 144.72 267.16 L 156.21 266.84 L 156.32 256.14 L 198.05 256.46 L 201.78 251.40 L 201.10 290.19 L 207.11 290.30 L 206.75 307.33 L 178.07 304.23 L 177.83 315.15 L 148.72 314.57 L 149.89 332.69 L 141.96 334.41 L 130.08 334.38 L 133.05 324.78 L 125.98 325.72 L 127.44 314.89 L 108.17 315.36 Z" fill="#1c1c1c" stroke="#2e2e2e" stroke-width="0.4"/>
  <path d="M 201.30 164.90 L 202.64 155.12 L 213.67 145.99 L 244.71 150.71 L 244.52 171.98 L 234.65 183.05 L 197.97 183.64 L 201.30 164.90 Z" fill="#1c1c1c" stroke="#2e2e2e" stroke-width="0.4"/>
  <path d="M 326.87 254.70 L 329.96 242.10 L 348.35 219.63 L 372.82 226.76 L 361.19 241.27 L 357.42 264.21 L 346.13 273.09 L 340.94 268.12 L 344.50 258.24 L 326.87 254.70 Z" fill="#1c1c1c" stroke="#2e2e2e" stroke-width="0.4"/>
  <path d="M 3.20 630.35 L -0.66 637.50 L -8.60 630.82 L -43.94 622.11 L -50.20 628.76 L -67.08 631.10 L -67.50 649.27 L -80.06 648.06 L -87.62 644.94 L -89.84 634.22 L -98.99 638.10 L -98.74 625.71 L -111.60 624.80 L -111.63 610.89 L -122.64 609.89 L -132.22 598.28 L -118.00 593.13 L -123.25 584.13 L -130.37 580.83 L -140.78 584.90 L -150.51 576.72 L -170.10 576.40 L -175.46 567.29 L -171.08 560.48 L -153.03 556.84 L -139.20 560.17 L -98.23 552.01 L -98.32 559.76 L -93.74 559.62 L -91.05 553.46 L -74.92 555.47 L -76.73 550.50 L -70.06 554.58 L -71.83 562.41 L -45.50 565.62 L -34.69 576.51 L -40.87 576.43 L -41.46 593.38 L -19.01 593.72 L -19.87 609.75 L -2.72 601.69 L -0.98 610.06 L 10.54 611.28 L 22.31 597.76 L 14.78 614.35 L 4.42 614.35 L 3.20 630.35 Z" fill="#1c1c1c" stroke="#2e2e2e" stroke-width="0.4"/>
  <path d="M -199.12 812.87 L -246.20 766.77 L -225.43 661.57 L -216.12 670.30 L -212.42 667.31 L -217.29 653.27 L -195.12 653.67 L -196.77 643.06 L -213.69 645.97 L -210.78 637.25 L -217.98 627.23 L -210.39 593.08 L -193.85 599.96 L -202.51 584.29 L -175.50 567.41 L -170.10 576.40 L -150.51 576.72 L -140.78 584.90 L -130.37 580.83 L -123.25 584.13 L -118.00 593.13 L -132.22 598.28 L -122.64 609.89 L -111.63 610.89 L -111.60 624.80 L -98.74 625.71 L -98.99 638.10 L -89.84 634.22 L -87.62 644.94 L -67.50 649.27 L -67.51 636.11 L -57.89 639.35 L -47.19 648.32 L -44.81 660.75 L -50.87 663.95 L -65.69 651.12 L -74.75 650.32 L -69.63 668.61 L -81.10 676.32 L -78.68 685.85 L -93.20 684.74 L -103.61 693.98 L -127.82 686.57 L -142.91 695.79 L -141.15 703.42 L -129.04 710.00 L -133.94 714.73 L -126.90 715.00 L -114.51 728.88 L -114.96 736.29 L -133.07 734.16 L -115.68 756.71 L -104.94 756.09 L -119.63 771.99 L -129.39 794.31 L -170.73 796.08 L -176.57 805.76 L -186.16 806.75 L -195.67 816.19 L -199.12 812.87 Z" fill="#1c1c1c" stroke="#2e2e2e" stroke-width="0.4"/>
  <path d="M 292.09 252.18 L 322.61 258.05 L 326.92 254.45 L 322.31 273.76 L 266.76 266.35 L 270.39 244.60 L 286.26 246.03 L 292.09 252.18 Z" fill="#1c1c1c" stroke="#2e2e2e" stroke-width="0.4"/>
  <path d="M 286.00 277.20 L 253.32 276.65 L 255.35 264.31 L 325.76 274.06 L 319.90 276.92 L 319.20 286.68 L 312.11 285.17 L 309.69 289.76 L 286.54 285.12 L 286.00 277.20 Z" fill="#1c1c1c" stroke="#2e2e2e" stroke-width="0.4"/>
  <path d="M 147.82 198.09 L 121.82 189.92 L 104.26 162.22 L 91.18 165.85 L 95.61 179.12 L 76.15 174.32 L 64.82 153.21 L 93.72 140.74 L 109.84 122.22 L 161.01 140.35 L 158.35 151.58 L 161.34 147.01 L 171.71 150.97 L 173.11 162.84 L 199.49 170.61 L 197.79 200.49 L 182.45 188.22 L 163.20 186.40 L 154.61 193.71 L 148.76 191.71 L 147.82 198.09 Z" fill="#1c1c1c" stroke="#2e2e2e" stroke-width="0.4"/>
  <path d="M 285.64 171.80 L 241.45 167.38 L 244.71 150.71 L 231.56 140.14 L 229.72 131.67 L 266.85 129.11 L 268.91 111.51 L 275.30 111.25 L 281.69 121.99 L 305.35 125.00 L 304.94 143.73 L 294.35 143.69 L 297.79 148.68 L 293.03 156.55 L 298.62 161.96 L 311.03 158.32 L 315.08 172.30 L 296.32 166.86 L 299.32 173.15 L 285.64 171.80 Z" fill="#1c1c1c" stroke="#2e2e2e" stroke-width="0.4"/>
  <path d="M 427.96 171.68 L 421.87 163.00 L 398.68 169.44 L 400.95 114.99 L 465.52 118.99 L 466.14 110.62 L 487.40 112.67 L 472.22 138.42 L 427.96 171.68 Z" fill="#1c1c1c" stroke="#2e2e2e" stroke-width="0.4"/>
  <path d="M -104.82 790.96 L -81.17 788.09 L -57.12 796.28 L -57.71 804.90 L -1.41 806.64 L 10.09 800.61 L 17.29 788.16 L 13.80 770.50 L 20.60 749.34 L 15.40 746.87 L 55.11 750.89 L 60.33 758.90 L 67.50 757.91 L 66.14 780.37 L 60.51 783.95 L 64.91 790.41 L 52.28 791.68 L 67.14 791.75 L 67.65 815.85 L 76.93 816.12 L 77.12 823.95 L 108.86 824.21 L 108.65 829.40 L 120.03 829.45 L 120.08 834.10 L 130.31 834.29 L 150.01 847.91 L 151.88 837.80 L 170.80 841.42 L 168.78 867.87 L 178.66 867.90 L 177.19 876.40 L 190.15 882.31 L 176.10 900.80 L 181.27 917.56 L 189.19 921.25 L 199.72 916.00 L 211.74 939.81 L 189.06 952.91 L 121.76 967.30 L 118.07 963.94 L 122.12 952.83 L 100.23 948.36 L 100.06 952.90 L 92.47 954.15 L 98.27 972.64 L 63.47 980.61 L 61.45 969.60 L 24.43 962.54 L 20.48 978.51 L 6.38 987.64 L 6.06 993.70 L -10.91 997.57 L -64.41 992.69 L -46.12 983.31 L -56.55 955.17 L -46.27 919.19 L -105.46 904.25 L -149.27 914.94 L -134.97 894.44 L -121.89 892.22 L -195.67 816.19 L -186.16 806.75 L -176.42 805.66 L -170.73 796.08 L -104.82 790.96 Z" fill="#1c1c1c" stroke="#2e2e2e" stroke-width="0.4"/>
  <path d="M 117.43 459.27 L 97.86 432.23 L 85.93 437.02 L 85.46 432.91 L 76.11 433.31 L 76.30 424.79 L 85.40 424.80 L 84.58 419.12 L 74.89 418.16 L 74.16 386.20 L 87.88 383.83 L 96.74 390.87 L 93.46 384.42 L 95.28 388.44 L 98.73 380.55 L 120.46 378.14 L 116.73 373.23 L 157.14 358.12 L 167.76 376.38 L 165.63 408.54 L 184.05 419.73 L 200.28 422.01 L 201.47 441.84 L 194.10 448.22 L 181.29 445.77 L 190.27 468.97 L 153.36 468.89 L 152.91 480.52 L 145.04 484.26 L 146.00 477.81 L 135.34 484.53 L 135.55 474.41 L 127.11 475.51 L 109.41 480.82 L 108.59 492.40 L 100.75 492.07 L 102.14 475.34 L 117.43 459.27 Z" fill="#1c1c1c" stroke="#2e2e2e" stroke-width="0.4"/>
  <path d="M 365.11 192.47 L 345.06 183.15 L 354.59 159.54 L 349.25 115.89 L 367.10 114.62 L 362.58 111.04 L 369.35 109.42 L 367.36 105.35 L 406.26 98.03 L 401.02 111.54 L 399.62 169.19 L 380.59 180.43 L 388.12 188.41 L 383.92 192.43 L 374.59 198.51 L 365.11 192.47 Z" fill="#1c1c1c" stroke="#2e2e2e" stroke-width="0.4"/>
  <path d="M 228.37 241.19 L 253.82 239.40 L 261.16 244.73 L 259.42 239.70 L 268.37 240.64 L 266.76 266.35 L 255.35 264.31 L 252.49 296.50 L 206.95 298.48 L 207.11 290.30 L 201.10 290.19 L 201.87 245.42 L 228.37 241.19 Z" fill="#1c1c1c" stroke="#2e2e2e" stroke-width="0.4"/>
  <path d="M 292.09 252.18 L 286.26 246.03 L 268.42 243.89 L 270.53 232.89 L 263.84 227.28 L 269.50 226.58 L 271.54 212.81 L 293.32 215.16 L 298.95 223.73 L 310.31 223.87 L 333.10 237.59 L 322.61 258.05 L 292.09 252.18 Z" fill="#1c1c1c" stroke="#2e2e2e" stroke-width="0.4"/>
  <path d="M 162.78 224.68 L 165.88 229.31 L 158.44 227.65 L 162.78 224.68 Z" fill="#1c1c1c" stroke="#2e2e2e" stroke-width="0.4"/>
  <path d="M 132.69 223.49 L 134.97 218.97 L 95.17 213.83 L 91.52 204.86 L 80.66 208.14 L 73.96 202.03 L 62.11 204.29 L 61.49 210.49 L 43.72 210.04 L 52.39 197.83 L 51.23 160.38 L 64.82 153.21 L 76.15 174.32 L 95.61 179.12 L 91.18 165.85 L 104.26 162.22 L 121.66 189.78 L 139.70 192.54 L 143.38 199.16 L 163.20 186.40 L 182.45 188.22 L 197.79 200.49 L 202.62 223.35 L 173.43 224.59 L 171.53 228.75 L 164.64 224.25 L 151.96 228.12 L 151.80 224.19 L 149.57 228.04 L 132.69 223.49 Z" fill="#1c1c1c" stroke="#2e2e2e" stroke-width="0.4"/>
  <path d="M 204.29 113.85 L 193.45 109.85 L 190.60 98.28 L 187.48 101.50 L 176.97 90.54 L 173.44 84.14 L 179.01 84.38 L 155.95 66.09 L 170.99 56.34 L 204.79 74.24 L 218.59 68.47 L 222.84 83.90 L 223.17 80.18 L 240.12 89.89 L 245.90 83.75 L 280.42 96.62 L 282.64 108.92 L 293.95 110.25 L 292.85 116.84 L 298.79 117.37 L 298.03 121.73 L 281.69 121.99 L 275.30 111.25 L 268.91 111.51 L 266.85 129.11 L 255.15 128.84 L 222.81 126.81 L 204.29 113.85 Z" fill="#1c1c1c" stroke="#2e2e2e" stroke-width="0.4"/>
  <path d="M 412.77 234.87 L 406.46 242.06 L 372.06 227.81 L 375.27 221.28 L 370.31 214.92 L 400.49 202.05 L 388.12 188.41 L 394.68 182.01 L 411.25 190.15 L 413.33 195.96 L 401.18 202.90 L 411.30 214.18 L 433.95 219.75 L 418.87 220.40 L 424.12 226.10 L 412.77 234.87 Z" fill="#1c1c1c" stroke="#2e2e2e" stroke-width="0.4"/>
  <path d="M 348.46 316.81 L 362.53 318.32 L 356.64 334.61 L 349.54 335.64 L 348.31 343.24 L 335.02 347.39 L 333.28 353.32 L 303.21 318.03 L 308.93 311.47 L 348.46 316.81 Z" fill="#1c1c1c" stroke="#2e2e2e" stroke-width="0.4"/>
  <path d="M 388.34 340.55 L 393.88 333.15 L 422.03 338.00 L 378.63 389.71 L 367.11 386.92 L 360.34 370.45 L 375.58 360.63 L 373.83 355.17 L 388.34 340.55 Z" fill="#1c1c1c" stroke="#2e2e2e" stroke-width="0.4"/>
  <path d="M -134.74 706.36 L -143.46 696.74 L -131.47 687.28 L -105.39 689.95 L -103.61 693.98 L -93.20 684.74 L -78.19 685.50 L -81.10 676.32 L -69.63 668.61 L -74.75 650.32 L -45.58 663.22 L -47.19 648.32 L -67.51 636.11 L -67.08 631.10 L -50.20 628.76 L -43.76 622.12 L 1.38 637.54 L 4.42 614.35 L 14.78 614.35 L 22.31 597.76 L 24.13 591.27 L 17.57 584.34 L 42.78 585.53 L 50.23 593.80 L 66.63 589.47 L 67.27 606.17 L 59.64 611.26 L 67.47 623.74 L 92.56 627.84 L 86.39 641.83 L 91.91 644.58 L 120.68 647.05 L 124.67 672.97 L 137.54 677.48 L 135.68 690.14 L 143.10 697.38 L 129.24 704.79 L 142.28 717.04 L 133.85 712.04 L 106.83 716.02 L 105.82 704.68 L 99.66 701.12 L 84.29 715.08 L 69.81 713.29 L 64.19 750.96 L 42.21 752.79 L 33.36 746.75 L 15.40 746.87 L 20.60 749.34 L 13.80 770.50 L 17.29 788.16 L 10.09 800.61 L -1.41 806.64 L -57.71 804.90 L -57.12 796.28 L -81.17 788.09 L -94.57 793.00 L -124.13 789.58 L -119.63 771.99 L -104.94 756.09 L -115.68 756.71 L -133.19 733.97 L -113.76 733.25 L -118.46 722.59 L -133.94 714.73 L -128.92 710.25 L -134.74 706.36 Z" fill="#1c1c1c" stroke="#2e2e2e" stroke-width="0.4"/>
  <path d="M 4.65 78.45 L 4.65 78.45 Z" fill="#1c1c1c" stroke="#2e2e2e" stroke-width="0.4"/>
  <path d="M 44.37 95.56 L 5.20 86.73 L 4.10 74.93 L 29.34 70.01 L 18.71 54.02 L 16.54 37.62 L 11.44 37.36 L 11.87 20.13 L -4.74 19.76 L -32.85 9.26 L -67.35 16.23 L -69.96 0.34 L -52.60 2.41 L -101.13 -14.51 L -86.62 -29.28 L -95.16 -34.10 L -99.08 -51.48 L -113.61 -73.14 L -106.36 -73.22 L -106.16 -64.08 L -75.06 -39.74 L -58.76 -19.06 L -9.63 2.06 L 30.22 -2.71 L 79.78 -37.03 L 104.15 -63.60 L 108.92 -83.40 L 122.00 -101.54 L 146.92 -111.77 L 167.08 -109.48 L 167.08 -101.73 L 143.93 -90.67 L 166.92 -92.32 L 166.31 -57.08 L 138.24 -57.37 L 137.86 -31.60 L 154.65 -30.97 L 175.22 -44.20 L 219.87 -50.43 L 265.29 -46.05 L 258.72 -31.66 L 288.76 -37.81 L 297.06 -44.45 L 311.33 -42.88 L 310.21 -35.28 L 346.30 -31.85 L 340.99 -21.60 L 349.42 -12.86 L 340.61 -19.21 L 339.94 -14.10 L 310.72 -23.66 L 286.54 -16.11 L 269.03 33.24 L 244.12 53.79 L 159.66 49.39 L 120.73 91.58 L 109.65 122.61 L 44.37 95.56 Z" fill="#1c1c1c" stroke="#2e2e2e" stroke-width="0.4"/>
  <path d="M 313.01 164.75 L 316.11 160.00 L 330.10 162.03 L 328.33 166.20 L 351.01 165.31 L 345.06 183.15 L 365.23 191.81 L 351.84 215.50 L 325.48 210.30 L 321.36 188.24 L 316.57 210.14 L 297.00 199.02 L 296.07 188.42 L 286.55 187.08 L 289.63 180.67 L 283.57 188.24 L 287.95 172.37 L 301.03 172.23 L 296.32 166.86 L 315.08 172.30 L 313.01 164.75 Z" fill="#1c1c1c" stroke="#2e2e2e" stroke-width="0.4"/>
  <path d="M 200.82 442.81 L 201.65 423.67 L 192.53 420.91 L 201.84 410.73 L 191.64 408.38 L 209.67 397.18 L 229.79 392.36 L 276.24 404.14 L 276.49 420.73 L 281.84 422.32 L 241.65 466.20 L 235.89 480.58 L 218.93 483.23 L 216.65 474.57 L 197.18 480.16 L 190.99 475.86 L 181.29 445.77 L 194.10 448.22 L 200.82 442.81 Z" fill="#1c1c1c" stroke="#2e2e2e" stroke-width="0.4"/>
  <path d="M 168.14 376.26 L 210.76 355.34 L 210.70 375.26 L 221.12 375.44 L 220.91 384.24 L 231.14 392.51 L 220.90 392.02 L 191.64 408.38 L 201.84 410.73 L 187.38 420.75 L 165.63 408.54 L 168.14 376.26 Z" fill="#1c1c1c" stroke="#2e2e2e" stroke-width="0.4"/>
  <path d="M 392.95 326.98 L 393.88 333.15 L 368.63 364.88 L 333.28 353.32 L 335.02 347.39 L 348.31 343.24 L 349.54 335.64 L 356.64 334.61 L 363.29 311.81 L 368.99 312.38 L 365.20 302.34 L 397.23 305.57 L 395.78 314.39 L 391.18 313.95 L 395.75 314.61 L 392.95 326.98 Z" fill="#1c1c1c" stroke="#2e2e2e" stroke-width="0.4"/>
  <path d="M 394.73 170.84 L 421.87 163.00 L 426.34 171.25 L 433.62 171.69 L 435.01 191.19 L 461.83 222.04 L 469.42 242.66 L 454.97 250.87 L 438.42 222.69 L 411.30 214.18 L 401.18 202.90 L 413.33 195.96 L 411.25 190.15 L 394.68 182.01 L 388.12 188.41 L 380.59 180.43 L 394.73 170.84 Z" fill="#1c1c1c" stroke="#2e2e2e" stroke-width="0.4"/>
  <path d="M 213.85 718.31 L 210.65 721.28 L 213.85 718.31 Z" fill="#1c1c1c" stroke="#2e2e2e" stroke-width="0.4"/>
  <path d="M 222.86 751.83 L 225.48 740.53 L 214.22 724.32 L 225.30 725.55 L 222.02 717.77 L 228.71 715.82 L 247.71 715.88 L 261.48 752.74 L 243.63 750.21 L 239.61 759.05 L 217.33 768.25 L 216.46 759.36 L 226.88 753.44 L 222.86 751.83 Z" fill="#1c1c1c" stroke="#2e2e2e" stroke-width="0.4"/>
  <path d="M 194.96 595.05 L 200.35 583.51 L 219.49 590.23 L 213.13 600.67 L 224.84 589.11 L 227.31 606.38 L 222.63 608.93 L 230.16 607.76 L 243.08 617.85 L 240.88 663.82 L 226.00 661.03 L 228.32 639.16 L 206.79 629.23 L 205.97 637.78 L 189.53 643.58 L 189.46 648.69 L 203.99 648.82 L 199.98 671.92 L 199.36 655.31 L 174.66 664.04 L 155.49 653.83 L 145.75 657.41 L 146.62 664.79 L 139.47 652.25 L 123.57 659.57 L 120.68 647.05 L 86.39 641.83 L 92.56 627.84 L 72.26 627.42 L 59.64 611.26 L 72.06 597.39 L 72.52 566.53 L 88.74 566.99 L 84.27 571.80 L 89.08 575.87 L 118.03 581.43 L 117.09 597.67 L 127.43 587.49 L 135.85 590.88 L 166.17 585.51 L 194.96 595.05 Z" fill="#1c1c1c" stroke="#2e2e2e" stroke-width="0.4"/>
  <path d="M 206.93 606.18 L 196.12 606.83 L 206.93 606.18 Z" fill="#1c1c1c" stroke="#2e2e2e" stroke-width="0.4"/>
  <path d="M -78.02 521.79 L -64.19 528.98 L -50.78 518.00 L -17.58 517.25 L -23.53 511.97 L -11.48 500.89 L -13.81 482.25 L -4.63 476.20 L 5.22 474.77 L 10.97 484.24 L 15.18 478.85 L 28.26 479.23 L 33.36 489.38 L 48.37 477.69 L 59.39 494.63 L 73.16 496.65 L 72.95 518.74 L 89.48 524.59 L 86.09 546.74 L 95.23 542.01 L 89.70 556.30 L 93.63 563.55 L 87.19 573.55 L 88.74 566.99 L 72.52 566.53 L 69.57 601.30 L 66.63 589.47 L 50.23 593.80 L 42.78 585.53 L 17.57 584.34 L 24.13 591.27 L 10.54 611.28 L -0.98 610.06 L -2.72 601.69 L -19.76 609.80 L -19.01 593.72 L -41.46 593.38 L -40.87 576.43 L -34.69 576.51 L -45.50 565.62 L -71.83 562.41 L -70.06 554.58 L -76.66 550.52 L -74.92 555.47 L -91.05 553.46 L -93.74 559.62 L -98.32 559.76 L -98.23 552.01 L -139.20 560.17 L -163.68 554.32 L -153.83 533.83 L -154.06 539.05 L -145.64 539.33 L -131.07 523.83 L -115.33 530.53 L -118.29 524.10 L -104.18 524.27 L -101.59 514.93 L -94.94 519.15 L -93.19 505.19 L -72.52 508.21 L -64.82 514.85 L -78.02 521.79 Z" fill="#1c1c1c" stroke="#2e2e2e" stroke-width="0.4"/>
  <path d="M -88.64 370.09 L -65.83 373.06 L -58.20 380.12 L 2.84 389.36 L 20.02 372.84 L 33.75 372.36 L 47.54 379.70 L 26.07 386.89 L 22.70 394.82 L 53.18 391.16 L 37.13 395.98 L 19.63 417.40 L -20.24 421.22 L -11.85 424.45 L -11.68 441.08 L -5.26 441.24 L -5.37 449.43 L -22.29 453.87 L -22.99 458.32 L -5.20 470.43 L 4.93 471.11 L -13.77 482.13 L -11.29 500.50 L -23.53 511.97 L -17.58 517.25 L -50.78 518.00 L -66.30 528.55 L -78.02 521.79 L -63.68 516.32 L -72.52 508.21 L -93.19 505.19 L -103.24 492.35 L -115.27 496.24 L -112.50 486.22 L -95.65 474.61 L -103.39 450.29 L -108.17 451.28 L -105.78 443.70 L -112.23 443.87 L -106.85 436.81 L -113.42 427.27 L -97.58 423.05 L -122.11 422.21 L -105.72 421.41 L -127.22 415.35 L -124.55 396.80 L -114.51 386.60 L -121.94 378.59 L -117.51 372.73 L -88.64 370.09 Z" fill="#1c1c1c" stroke="#2e2e2e" stroke-width="0.4"/>
  <path d="M -117.60 83.45 L -113.98 86.20 L -119.25 89.21 L -122.96 85.27 L -117.60 83.45 Z" fill="#1c1c1c" stroke="#2e2e2e" stroke-width="0.4"/>
  <path d="M -238.80 76.59 L -279.78 69.94 L -253.33 60.93 L -239.83 65.18 L -243.89 59.05 L -233.63 55.64 L -231.73 43.12 L -231.35 27.58 L -261.60 25.15 L -286.97 -9.12 L -277.31 -9.70 L -282.18 -18.15 L -279.37 -34.37 L -267.42 -37.41 L -275.17 -46.66 L -261.13 -53.87 L -241.69 -60.32 L -218.19 -56.64 L -202.68 -68.49 L -184.83 -69.67 L -178.77 -62.81 L -192.93 -52.06 L -179.74 -51.31 L -179.14 -44.00 L -167.33 -45.22 L -159.39 -36.90 L -149.69 -43.52 L -157.81 -49.38 L -169.92 -48.37 L -169.49 -53.41 L -157.41 -58.63 L -145.87 -51.83 L -131.30 -51.96 L -147.41 -70.64 L -113.61 -73.14 L -99.08 -51.48 L -95.16 -34.10 L -86.62 -29.28 L -101.13 -14.51 L -52.60 2.41 L -70.86 3.13 L -67.44 16.19 L -53.67 13.19 L -54.98 27.02 L -88.12 26.96 L -88.24 35.93 L -104.20 35.14 L -122.45 43.92 L -91.03 65.02 L -92.64 79.34 L -124.64 77.75 L -120.34 82.73 L -148.67 90.16 L -141.29 92.75 L -147.62 104.03 L -197.94 111.97 L -195.16 105.76 L -205.82 99.66 L -206.19 88.20 L -216.51 88.07 L -212.72 77.23 L -238.80 76.59 Z" fill="#1c1c1c" stroke="#2e2e2e" stroke-width="0.4"/>
  <path d="M -261.63 69.76 L -257.25 74.29 L -261.63 69.76 Z" fill="#1c1c1c" stroke="#2e2e2e" stroke-width="0.4"/>
  <path d="M 353.17 213.90 L 364.66 193.17 L 374.59 198.51 L 388.12 188.41 L 400.49 202.05 L 370.31 214.92 L 375.27 221.28 L 371.80 226.91 L 348.35 219.63 L 353.17 213.90 Z" fill="#1c1c1c" stroke="#2e2e2e" stroke-width="0.4"/>
  <path d="M 64.02 371.57 L 64.19 366.51 L 74.75 367.50 L 75.49 356.85 L 91.49 352.80 L 88.31 348.41 L 123.10 347.30 L 113.00 355.89 L 133.42 360.49 L 132.25 365.95 L 116.73 373.23 L 120.46 378.14 L 98.73 380.55 L 95.28 388.44 L 93.46 384.42 L 96.74 390.87 L 79.41 383.51 L 22.85 394.92 L 26.07 386.89 L 49.57 379.47 L 47.34 370.26 L 64.02 371.57 Z" fill="#1c1c1c" stroke="#2e2e2e" stroke-width="0.4"/>
  <path d="M 236.29 307.78 L 241.36 309.30 L 235.37 338.77 L 168.49 376.13 L 157.14 358.12 L 132.25 365.95 L 131.81 357.82 L 113.00 355.89 L 120.76 351.97 L 123.10 347.30 L 117.14 349.10 L 122.70 340.65 L 134.18 336.10 L 130.23 334.91 L 149.89 332.69 L 148.72 314.57 L 177.83 315.15 L 178.07 304.23 L 206.75 307.33 L 206.95 298.48 L 232.37 300.55 L 236.29 307.78 Z" fill="#1c1c1c" stroke="#2e2e2e" stroke-width="0.4"/>
  <path d="M 351.71 144.53 L 352.61 164.83 L 336.80 167.43 L 325.57 160.88 L 305.13 160.20 L 307.13 136.98 L 305.35 125.00 L 297.59 123.24 L 299.62 113.88 L 313.61 119.53 L 321.55 115.80 L 318.61 112.66 L 351.67 114.39 L 351.71 144.53 Z" fill="#1c1c1c" stroke="#2e2e2e" stroke-width="0.4"/>
  <path d="M 253.31 276.84 L 286.17 277.32 L 286.54 285.12 L 292.10 285.09 L 286.80 288.94 L 290.42 295.53 L 286.61 303.73 L 277.32 300.31 L 267.26 305.80 L 257.81 301.00 L 252.35 296.34 L 253.31 276.84 Z" fill="#1c1c1c" stroke="#2e2e2e" stroke-width="0.4"/>
  <path d="M -51.55 295.82 L -45.64 288.79 L -56.56 286.66 L -58.74 273.87 L -68.47 274.08 L -76.33 289.44 L -91.05 291.77 L -97.07 290.08 L -106.53 271.29 L -120.90 292.25 L -106.87 310.81 L -133.70 323.73 L -135.70 313.59 L -145.39 314.66 L -167.33 296.96 L -189.14 310.52 L -189.00 266.09 L -160.89 258.63 L -153.12 244.80 L -124.74 234.96 L -119.92 216.74 L -103.16 209.43 L -62.54 207.69 L -35.80 216.98 L 2.84 218.05 L 2.46 237.34 L -9.41 240.97 L 2.09 241.37 L -4.96 254.99 L 2.26 261.01 L 2.67 269.59 L -7.63 280.13 L -13.73 305.72 L -34.04 305.73 L -35.14 298.01 L -43.80 302.62 L -41.47 297.40 L -51.55 295.82 Z" fill="#1c1c1c" stroke="#2e2e2e" stroke-width="0.4"/>
  <path d="M 253.69 211.07 L 197.79 200.49 L 197.97 183.64 L 234.65 183.05 L 243.08 167.58 L 286.24 171.35 L 283.57 188.24 L 289.63 180.67 L 286.71 187.44 L 296.07 188.42 L 300.81 200.91 L 293.32 215.16 L 271.54 212.81 L 253.25 222.42 L 253.27 216.42 L 246.35 215.11 L 253.69 211.07 Z" fill="#1c1c1c" stroke="#2e2e2e" stroke-width="0.4"/>
  <path d="M 293.32 215.16 L 300.81 200.91 L 316.57 210.14 L 319.83 207.22 L 320.90 188.14 L 325.48 210.30 L 351.84 215.50 L 331.64 240.05 L 310.31 223.87 L 298.95 223.73 L 293.32 215.16 Z" fill="#1c1c1c" stroke="#2e2e2e" stroke-width="0.4"/>
  <path d="M 374.11 266.83 L 368.92 265.81 L 369.80 260.57 L 355.48 257.44 L 360.45 245.58 L 383.59 249.15 L 411.45 263.86 L 406.30 273.33 L 374.11 266.83 Z" fill="#1c1c1c" stroke="#2e2e2e" stroke-width="0.4"/>
  <path d="M -232.61 409.06 L -242.70 401.76 L -242.45 393.31 L -236.60 393.52 L -236.29 375.45 L -247.55 375.66 L -248.18 368.88 L -260.16 360.95 L -234.12 352.40 L -231.43 345.88 L -237.22 333.89 L -232.80 330.28 L -207.94 337.29 L -214.64 332.09 L -210.88 326.03 L -216.97 317.78 L -216.23 306.13 L -206.23 305.46 L -189.24 319.07 L -189.91 349.52 L -179.61 353.14 L -174.80 347.57 L -158.13 361.13 L -130.08 360.95 L -124.53 371.75 L -126.57 388.58 L -132.24 390.39 L -122.43 394.60 L -127.22 415.35 L -105.72 421.41 L -122.11 422.21 L -97.58 423.05 L -113.42 427.27 L -106.85 436.81 L -112.23 443.87 L -105.78 443.70 L -108.17 451.28 L -103.39 450.29 L -95.65 474.61 L -112.50 486.22 L -115.27 496.24 L -103.24 492.35 L -93.19 505.19 L -94.94 519.15 L -101.59 514.93 L -104.18 524.27 L -118.29 524.10 L -117.55 531.31 L -122.46 524.00 L -131.07 523.83 L -145.64 539.33 L -154.06 539.05 L -157.57 519.94 L -190.99 524.72 L -231.13 513.89 L -248.63 516.08 L -215.93 489.33 L -237.44 471.14 L -248.94 471.10 L -250.24 478.69 L -256.48 479.11 L -251.82 491.68 L -258.17 491.86 L -257.88 497.98 L -250.56 509.53 L -274.00 507.29 L -272.67 492.45 L -298.23 481.08 L -292.37 473.37 L -269.05 466.03 L -283.51 470.60 L -286.01 450.36 L -292.56 447.48 L -301.75 451.78 L -303.91 447.95 L -260.36 439.58 L -264.97 439.09 L -264.85 434.53 L -260.27 436.42 L -262.46 420.10 L -232.61 409.06 Z" fill="#1c1c1c" stroke="#2e2e2e" stroke-width="0.4"/>
  <path d="M -146.06 90.88 L -120.34 82.73 L -124.64 77.75 L -92.64 79.34 L -91.03 65.02 L -122.45 43.92 L -104.20 35.14 L -88.24 35.93 L -88.12 26.96 L -54.98 27.02 L -53.47 10.70 L -32.85 9.26 L -4.74 19.76 L 11.87 20.13 L 11.44 37.36 L 16.54 37.62 L 18.71 54.02 L 29.34 70.01 L 4.10 74.93 L 5.20 86.73 L 10.96 88.66 L 6.62 105.39 L 21.99 104.50 L 10.75 114.56 L 22.68 128.39 L 16.44 131.95 L 20.08 136.40 L -18.79 141.66 L -11.91 139.82 L -16.65 138.37 L -14.81 130.54 L -30.27 131.73 L -29.51 124.75 L -44.78 131.82 L -49.46 139.71 L -70.10 140.37 L -71.44 152.39 L -79.90 159.36 L -82.61 149.81 L -72.25 151.50 L -74.46 131.55 L -93.56 136.67 L -104.58 129.51 L -120.42 134.23 L -130.75 123.56 L -140.91 127.05 L -143.49 133.52 L -150.60 129.39 L -143.35 127.72 L -147.64 121.41 L -141.49 123.81 L -133.51 116.91 L -133.54 108.49 L -147.62 104.03 L -141.29 92.75 L -146.06 90.88 Z" fill="#1c1c1c" stroke="#2e2e2e" stroke-width="0.4"/>
  <path d="M 6.08 78.57 L 6.08 78.57 Z" fill="#1c1c1c" stroke="#2e2e2e" stroke-width="0.4"/>
  <path d="M -29.82 87.14 L -34.62 87.22 L -29.82 87.14 Z" fill="#1c1c1c" stroke="#2e2e2e" stroke-width="0.4"/>
  <path d="M -119.42 84.09 L -122.99 85.52 L -119.25 89.21 L -114.03 86.32 L -116.69 81.29 L -119.42 84.09 Z" fill="#1c1c1c" stroke="#2e2e2e" stroke-width="0.4"/>
  <path d="M -291.91 85.86 L -289.16 75.52 L -212.72 77.23 L -216.51 88.07 L -206.19 88.20 L -205.82 99.66 L -195.16 105.76 L -195.44 111.49 L -202.92 111.87 L -204.91 103.21 L -228.63 106.89 L -228.63 111.74 L -241.62 115.61 L -233.71 120.16 L -252.43 123.91 L -249.02 144.21 L -268.89 150.22 L -264.75 145.78 L -287.10 146.76 L -299.48 133.00 L -297.56 124.29 L -321.73 119.47 L -321.20 112.28 L -313.84 113.14 L -312.11 94.01 L -307.00 93.92 L -307.23 77.80 L -300.15 82.46 L -302.69 94.46 L -288.84 89.28 L -300.96 80.73 L -291.91 85.86 Z" fill="#1c1c1c" stroke="#2e2e2e" stroke-width="0.4"/>
  <path d="M 17.82 286.25 L 20.31 299.12 L 26.07 299.28 L 42.58 296.34 L 46.62 287.77 L 58.57 285.11 L 64.97 290.73 L 72.89 282.04 L 75.98 286.90 L 87.52 283.75 L 90.03 287.42 L 94.01 285.51 L 90.95 280.97 L 100.06 281.02 L 106.67 296.96 L 100.97 312.61 L 113.16 312.64 L 114.65 320.28 L 102.97 315.45 L 80.54 323.47 L 78.18 319.61 L 2.45 319.65 L 0.96 323.36 L -4.74 319.67 L -8.50 324.55 L -15.78 319.79 L -54.94 331.72 L -77.01 329.76 L -69.06 326.52 L -80.34 325.24 L -79.95 310.41 L -65.15 308.38 L -74.05 305.72 L -58.17 298.67 L -62.48 293.47 L -56.70 288.44 L -62.54 288.42 L -58.38 275.67 L -56.56 286.66 L -45.64 288.79 L -47.59 295.37 L -51.61 294.24 L -49.30 299.00 L -41.47 297.40 L -43.80 302.62 L -39.82 302.93 L -39.97 297.14 L -35.14 298.01 L -34.04 305.73 L -2.08 302.29 L 0.16 297.24 L -5.85 297.21 L -5.06 292.37 L 8.70 293.98 L 8.80 282.94 L 17.82 286.25 Z" fill="#1c1c1c" stroke="#2e2e2e" stroke-width="0.4"/>
  <path d="M 308.94 328.51 L 311.95 326.47 L 318.99 340.90 L 334.67 354.59 L 363.41 365.32 L 324.55 379.04 L 287.38 406.31 L 278.13 421.34 L 275.85 403.64 L 254.26 397.35 L 254.37 377.35 L 248.59 375.65 L 255.35 366.87 L 245.16 355.03 L 280.10 347.98 L 308.94 328.51 Z" fill="#1c1c1c" stroke="#2e2e2e" stroke-width="0.4"/>
  <path d="M 144.72 267.16 L 144.81 275.00 L 111.30 271.72 L 108.88 279.61 L 103.14 275.31 L 111.31 270.12 L 107.57 259.58 L 94.61 266.38 L 72.05 261.59 L 79.57 254.44 L 89.59 219.33 L 124.82 216.94 L 149.57 228.04 L 149.54 224.19 L 171.53 228.75 L 173.43 224.59 L 192.01 227.17 L 200.65 223.16 L 214.47 227.66 L 213.84 243.66 L 201.87 245.42 L 198.05 256.46 L 156.32 256.14 L 156.21 266.84 L 144.72 267.16 Z" fill="#1c1c1c" stroke="#2e2e2e" stroke-width="0.4"/>
  <path d="M 165.88 229.31 L 163.73 224.68 L 158.03 226.49 L 165.88 229.31 Z" fill="#1c1c1c" stroke="#2e2e2e" stroke-width="0.4"/>
  <path d="M 413.67 80.04 L 409.82 58.20 L 412.58 61.03 L 417.21 56.06 L 412.60 48.77 L 424.87 44.42 L 406.13 32.88 L 460.49 59.91 L 478.16 58.17 L 500.91 47.01 L 517.04 47.33 L 534.77 56.67 L 545.61 74.59 L 539.16 83.45 L 487.40 112.67 L 466.14 110.62 L 465.52 118.99 L 400.95 114.99 L 413.67 80.04 Z" fill="#1c1c1c" stroke="#2e2e2e" stroke-width="0.4"/>
  <path d="M 246.48 395.75 L 230.20 391.90 L 220.91 384.24 L 221.12 375.44 L 210.70 375.26 L 210.11 358.13 L 215.77 348.46 L 235.41 341.74 L 253.43 360.45 L 255.31 369.02 L 248.59 375.65 L 254.37 377.35 L 254.26 397.35 L 246.48 395.75 Z" fill="#1c1c1c" stroke="#2e2e2e" stroke-width="0.4"/>
  <path d="M -114.07 304.42 L -120.87 292.08 L -106.53 271.29 L -97.07 290.08 L -91.05 291.77 L -76.33 289.44 L -68.47 274.08 L -58.74 273.87 L -62.54 288.42 L -56.77 291.26 L -62.48 293.54 L -58.17 298.67 L -74.05 305.72 L -65.15 308.38 L -80.04 310.57 L -80.34 325.24 L -69.12 329.00 L -97.10 327.72 L -96.39 339.68 L -114.13 347.69 L -83.18 362.58 L -74.41 350.91 L -51.59 353.73 L -34.45 341.22 L -42.97 379.50 L -58.20 380.12 L -65.63 373.13 L -83.87 369.93 L -117.51 372.73 L -121.32 382.83 L -114.71 387.70 L -122.43 394.60 L -132.24 390.39 L -126.57 388.58 L -124.53 371.75 L -130.20 360.86 L -158.13 361.13 L -174.80 347.57 L -179.61 353.14 L -189.91 349.52 L -189.14 310.52 L -175.80 300.78 L -167.33 296.96 L -145.39 314.66 L -135.70 313.59 L -133.70 323.73 L -106.87 310.81 L -114.07 304.42 Z" fill="#1c1c1c" stroke="#2e2e2e" stroke-width="0.4"/>
  <path d="M -47.48 329.26 L -35.45 324.92 L -31.36 339.73 L -51.59 353.73 L -74.41 350.91 L -83.18 362.58 L -114.13 347.69 L -96.39 339.68 L -97.10 327.72 L -47.48 329.26 Z" fill="#1c1c1c" stroke="#2e2e2e" stroke-width="0.4"/>
  <path d="M 292.09 285.87 L 307.43 289.81 L 318.02 286.12 L 324.95 295.75 L 302.53 312.64 L 286.80 306.48 L 290.42 295.53 L 286.74 289.15 L 292.09 285.87 Z" fill="#1c1c1c" stroke="#2e2e2e" stroke-width="0.4"/>
  <path d="M 322.46 273.37 L 327.02 256.59 L 344.50 258.24 L 340.94 268.12 L 345.09 273.13 L 358.06 259.53 L 369.80 260.57 L 368.92 265.81 L 380.22 269.62 L 406.30 273.33 L 398.34 281.65 L 402.17 284.61 L 396.29 293.62 L 397.23 305.57 L 368.10 304.45 L 365.12 298.19 L 345.46 296.92 L 343.95 286.29 L 339.54 286.03 L 345.40 277.63 L 322.46 273.37 Z" fill="#1c1c1c" stroke="#2e2e2e" stroke-width="0.4"/>
  <path d="M 348.46 316.81 L 309.04 313.58 L 324.95 295.75 L 317.22 290.50 L 320.02 276.70 L 343.57 275.76 L 339.54 286.03 L 343.95 286.29 L 345.39 296.86 L 366.77 298.76 L 364.29 307.01 L 368.99 312.38 L 363.29 311.81 L 362.67 318.34 L 348.46 316.81 Z" fill="#1c1c1c" stroke="#2e2e2e" stroke-width="0.4"/>
  <path d="M 421.83 305.96 L 398.04 301.99 L 398.88 280.50 L 436.20 287.97 L 436.45 292.62 L 438.14 288.35 L 466.62 294.59 L 445.33 323.57 L 440.08 317.00 L 443.76 312.89 L 421.83 305.96 Z" fill="#1c1c1c" stroke="#2e2e2e" stroke-width="0.4"/>
  <path d="M 221.58 973.38 L 189.06 952.91 L 211.74 939.81 L 199.72 916.00 L 189.19 921.25 L 181.27 917.56 L 176.10 900.80 L 190.15 882.31 L 177.19 876.40 L 178.66 867.90 L 168.78 867.87 L 170.80 841.42 L 151.88 837.80 L 150.01 847.91 L 130.31 834.29 L 120.08 834.10 L 120.03 829.45 L 108.65 829.40 L 108.86 824.21 L 77.12 823.95 L 76.93 816.12 L 67.65 815.85 L 67.14 791.75 L 52.28 791.68 L 64.91 790.41 L 60.51 783.95 L 66.14 780.37 L 67.50 757.91 L 60.33 758.90 L 54.69 750.98 L 68.42 745.89 L 69.81 713.29 L 84.29 715.08 L 99.66 701.12 L 105.82 704.68 L 107.23 716.06 L 133.85 712.04 L 142.28 717.04 L 129.24 704.79 L 133.77 700.04 L 142.42 710.33 L 167.03 704.97 L 190.64 706.85 L 193.81 717.61 L 200.04 718.61 L 191.59 718.97 L 191.98 727.97 L 203.94 731.68 L 204.78 720.79 L 213.04 721.57 L 216.33 708.41 L 233.27 712.07 L 245.92 700.59 L 247.71 715.88 L 228.71 715.82 L 222.02 717.77 L 225.30 725.55 L 214.22 724.32 L 225.48 740.53 L 222.65 753.55 L 226.88 753.44 L 216.92 758.72 L 215.23 767.31 L 239.61 759.05 L 244.33 749.98 L 261.48 752.74 L 295.20 789.55 L 338.93 805.60 L 355.77 818.69 L 352.43 820.83 L 369.08 843.73 L 358.38 845.94 L 346.32 860.35 L 319.97 875.41 L 328.55 898.84 L 292.60 893.04 L 268.29 906.94 L 283.23 927.57 L 278.15 950.42 L 283.07 958.84 L 277.18 963.24 L 305.58 963.24 L 310.54 974.60 L 310.20 989.51 L 293.57 993.35 L 292.95 1003.52 L 307.66 1005.72 L 325.75 998.92 L 354.89 1005.29 L 329.56 1019.98 L 325.89 1015.63 L 318.17 1017.71 L 313.25 1026.82 L 299.77 1012.41 L 278.84 1000.89 L 263.46 999.47 L 221.58 973.38 Z" fill="#1c1c1c" stroke="#2e2e2e" stroke-width="0.4"/>
  <path d="M 84.33 782.56 L 104.55 780.18 L 117.41 769.92 L 84.33 782.56 Z" fill="#1c1c1c" stroke="#2e2e2e" stroke-width="0.4"/>
  <path d="M 190.64 706.85 L 177.71 705.51 L 213.61 693.08 L 220.50 697.34 L 222.68 683.79 L 231.66 683.36 L 235.08 676.48 L 241.97 678.84 L 245.92 700.59 L 233.27 712.07 L 216.33 708.41 L 214.53 717.36 L 204.78 720.79 L 203.94 731.68 L 191.98 727.97 L 191.59 718.97 L 200.04 718.61 L 193.81 717.61 L 190.64 706.85 Z" fill="#1c1c1c" stroke="#2e2e2e" stroke-width="0.4"/>
  <path d="M -416.36 52.05 L -429.22 51.85 L -429.57 68.07 L -396.56 75.41 L -413.99 72.55 L -417.14 92.91 L -411.94 94.01 L -413.11 99.97 L -406.55 99.44 L -410.73 109.89 L -392.06 111.45 L -385.41 142.26 L -418.67 142.94 L -418.99 152.72 L -407.03 155.91 L -404.05 169.35 L -397.30 169.08 L -396.63 175.52 L -385.98 177.36 L -386.01 186.53 L -378.66 186.90 L -411.97 197.07 L -416.47 203.10 L -404.81 216.69 L -412.91 224.99 L -407.68 243.75 L -433.17 220.55 L -450.17 220.79 L -450.43 212.38 L -464.41 201.52 L -464.75 195.41 L -484.94 195.33 L -491.68 151.44 L -464.20 147.63 L -463.27 91.04 L -491.90 79.33 L -491.89 71.88 L -480.44 71.99 L -480.43 59.01 L -509.90 51.37 L -505.92 36.61 L -517.48 31.63 L -508.29 30.91 L -509.39 16.60 L -495.81 7.48 L -489.31 9.78 L -479.26 -0.53 L -500.48 -1.26 L -498.08 -13.79 L -458.94 -9.72 L -458.20 -26.12 L -449.54 -28.19 L -429.39 -16.64 L -393.89 -22.71 L -390.25 -17.80 L -380.68 -18.61 L -380.97 -8.62 L -363.16 -4.80 L -363.11 -0.08 L -385.37 -0.24 L -383.43 3.94 L -392.76 7.02 L -393.00 15.82 L -382.71 27.84 L -398.27 37.45 L -393.97 44.41 L -396.48 55.58 L -406.54 52.27 L -403.75 58.41 L -412.09 60.17 L -410.81 52.30 L -416.36 52.05 Z" fill="#1c1c1c" stroke="#2e2e2e" stroke-width="0.4"/>
  <path d="M -132.83 164.22 L -132.83 164.22 Z" fill="#1c1c1c" stroke="#2e2e2e" stroke-width="0.4"/>
  <path d="M -143.30 181.68 L -138.86 179.05 L -145.75 173.60 L -129.47 163.25 L -144.43 149.55 L -132.90 146.32 L -143.64 138.35 L -143.09 134.61 L -129.92 137.34 L -135.55 126.90 L -131.79 123.94 L -120.42 134.23 L -104.58 129.51 L -93.56 136.67 L -74.46 131.55 L -72.25 151.50 L -82.61 149.81 L -79.90 159.36 L -71.44 152.39 L -70.10 140.37 L -49.46 139.71 L -44.78 131.82 L -28.01 124.95 L -30.27 131.73 L -14.81 130.54 L -16.65 138.37 L -11.97 139.96 L -21.20 139.79 L -11.43 140.87 L -14.54 147.45 L -8.14 144.61 L -1.50 158.72 L -7.20 175.40 L -1.80 178.26 L -8.63 184.22 L 7.61 217.83 L -35.80 216.98 L -74.10 206.78 L -103.16 209.43 L -119.92 216.74 L -124.74 234.96 L -154.94 246.27 L -160.89 258.63 L -201.05 271.54 L -193.28 260.78 L -214.60 253.28 L -223.63 243.84 L -188.55 232.01 L -190.41 206.76 L -225.15 207.05 L -243.15 195.84 L -242.94 190.52 L -200.56 189.72 L -193.08 183.30 L -201.59 175.38 L -202.21 163.14 L -194.80 159.76 L -171.61 174.64 L -143.30 181.68 Z" fill="#1c1c1c" stroke="#2e2e2e" stroke-width="0.4"/>
  <path d="M -13.62 294.21 L 2.67 269.59 L 2.26 261.01 L -4.96 254.99 L 2.09 241.37 L -9.41 240.97 L 2.46 237.34 L 2.84 218.05 L 61.49 210.49 L 67.76 201.57 L 80.66 208.14 L 91.09 204.67 L 90.55 211.72 L 103.28 216.13 L 89.59 219.33 L 79.57 254.44 L 72.05 261.59 L 94.61 266.38 L 107.57 259.58 L 111.31 270.12 L 101.53 281.03 L 90.95 280.97 L 94.01 285.51 L 90.03 287.42 L 87.52 283.75 L 75.98 286.90 L 72.89 282.04 L 64.97 290.73 L 58.57 285.11 L 46.62 287.77 L 42.58 296.34 L 26.07 299.28 L 20.31 299.12 L 16.67 283.19 L 8.80 282.94 L 8.70 293.98 L -5.06 292.37 L -5.85 297.21 L 0.16 297.24 L -2.08 302.29 L -13.69 301.46 L -13.62 294.21 Z" fill="#1c1c1c" stroke="#2e2e2e" stroke-width="0.4"/>
  <path d="M 325.44 432.25 L 291.28 423.46 L 296.71 419.53 L 284.73 413.21 L 286.22 407.59 L 324.55 379.04 L 362.98 365.36 L 362.34 381.88 L 378.63 389.71 L 357.96 441.76 L 325.44 432.25 Z" fill="#1c1c1c" stroke="#2e2e2e" stroke-width="0.4"/>
  <path d="M 242.23 347.56 L 225.36 341.82 L 235.37 338.77 L 238.30 327.14 L 241.37 308.83 L 231.65 306.08 L 233.42 295.13 L 252.09 295.19 L 267.26 305.80 L 277.32 300.31 L 305.84 311.93 L 303.21 318.03 L 311.95 326.47 L 280.62 347.73 L 246.31 354.59 L 242.23 347.56 Z" fill="#1c1c1c" stroke="#2e2e2e" stroke-width="0.4"/>
  <path d="M 258.58 89.11 L 245.90 83.75 L 240.12 89.89 L 223.17 80.18 L 222.84 83.90 L 218.59 68.47 L 204.79 74.24 L 159.66 49.39 L 185.11 47.52 L 236.71 55.41 L 253.43 49.15 L 278.87 24.22 L 277.71 29.46 L 284.25 24.04 L 306.99 35.15 L 311.00 31.83 L 308.62 40.26 L 320.59 54.39 L 306.52 66.99 L 305.62 84.27 L 309.98 86.66 L 303.13 95.08 L 321.55 115.80 L 292.85 116.84 L 293.95 110.25 L 282.64 108.92 L 280.42 96.62 L 258.58 89.11 Z" fill="#1c1c1c" stroke="#2e2e2e" stroke-width="0.4"/>
  <path d="M 188.88 469.21 L 195.70 479.89 L 216.65 474.57 L 218.93 483.23 L 263.63 474.42 L 284.17 479.30 L 285.01 485.95 L 270.54 503.62 L 270.43 535.24 L 278.19 554.86 L 270.93 564.75 L 256.86 564.25 L 258.04 559.16 L 250.58 558.13 L 237.41 542.33 L 228.61 548.43 L 213.22 535.93 L 204.74 537.40 L 201.46 530.15 L 190.16 531.10 L 189.74 522.39 L 183.11 518.40 L 143.92 515.80 L 130.90 507.17 L 140.77 492.56 L 136.22 489.48 L 129.74 497.00 L 127.79 493.51 L 146.00 477.81 L 141.93 483.22 L 152.91 480.52 L 153.36 468.89 L 188.88 469.21 Z" fill="#1c1c1c" stroke="#2e2e2e" stroke-width="0.4"/>
  <path d="M -184.04 168.02 L -209.27 145.43 L -254.37 149.35 L -248.54 152.12 L -265.03 153.68 L -264.97 158.62 L -272.88 154.98 L -271.46 149.34 L -249.02 144.21 L -252.43 123.91 L -233.71 120.16 L -241.62 115.61 L -228.63 111.74 L -228.63 106.89 L -204.91 103.21 L -202.92 111.87 L -187.59 112.49 L -175.38 106.04 L -150.17 103.58 L -143.12 108.33 L -138.90 103.88 L -133.51 116.91 L -141.49 123.81 L -147.64 121.41 L -143.35 127.72 L -150.60 129.39 L -143.49 133.52 L -135.55 126.90 L -129.92 137.34 L -143.09 134.61 L -143.69 141.26 L -138.55 138.59 L -132.60 145.28 L -144.43 149.55 L -129.36 162.59 L -145.75 173.60 L -138.86 179.05 L -143.39 181.61 L -138.04 182.15 L -184.04 168.02 Z" fill="#1c1c1c" stroke="#2e2e2e" stroke-width="0.4"/>
  <path d="M -134.19 162.45 L -130.63 163.17 L -134.19 162.45 Z" fill="#1c1c1c" stroke="#2e2e2e" stroke-width="0.4"/>
  <path d="M -28.78 89.57 L -34.62 87.22 L -28.78 89.57 Z" fill="#1c1c1c" stroke="#2e2e2e" stroke-width="0.4"/>
  <path d="M -3.29 166.55 L -8.14 144.61 L -14.45 145.11 L 20.08 136.40 L 16.44 131.95 L 22.68 128.39 L 10.75 114.56 L 21.99 104.50 L 6.62 105.39 L 10.96 88.66 L 49.62 94.87 L 109.65 122.61 L 93.72 140.74 L 51.23 160.38 L 52.39 197.83 L 38.95 213.20 L 7.61 217.83 L -8.63 184.22 L -1.80 178.26 L -7.19 175.64 L -3.29 166.55 Z" fill="#1c1c1c" stroke="#2e2e2e" stroke-width="0.4"/>
  <path d="M -259.83 72.67 L -261.04 67.74 L -256.53 71.11 L -259.83 72.67 Z" fill="#1c1c1c" stroke="#2e2e2e" stroke-width="0.4"/>
  <path d="M -396.58 75.62 L -429.57 68.07 L -429.22 51.85 L -410.81 52.30 L -411.74 60.22 L -403.75 58.41 L -406.54 52.27 L -396.48 55.58 L -393.97 44.41 L -398.27 37.45 L -382.71 27.84 L -393.00 15.82 L -392.76 7.02 L -383.43 3.94 L -385.37 -0.24 L -363.11 -0.08 L -363.16 -4.80 L -380.97 -8.62 L -380.43 -18.31 L -354.06 -20.81 L -341.11 -12.81 L -322.79 -15.51 L -316.26 -10.11 L -311.32 -11.48 L -313.62 -15.57 L -306.28 -8.47 L -286.97 -9.12 L -261.60 25.15 L -231.35 27.58 L -233.63 55.64 L -243.89 59.05 L -239.83 65.18 L -253.33 60.93 L -279.78 69.94 L -244.83 76.09 L -289.16 75.52 L -291.97 85.95 L -301.15 80.92 L -288.84 89.28 L -295.48 95.31 L -302.69 94.46 L -300.15 82.46 L -307.23 77.80 L -313.84 113.14 L -321.47 112.74 L -321.73 119.47 L -297.36 124.47 L -299.48 133.00 L -289.84 142.54 L -293.34 143.72 L -264.75 145.78 L -272.88 154.98 L -264.97 158.62 L -264.88 167.22 L -287.69 170.36 L -289.08 181.58 L -295.71 187.17 L -310.36 189.25 L -310.04 176.68 L -299.13 168.76 L -317.31 169.16 L -328.89 185.17 L -352.93 180.08 L -369.39 185.81 L -373.72 202.79 L -410.29 215.22 L -416.47 203.10 L -412.35 197.28 L -378.66 186.90 L -386.01 186.53 L -385.98 177.36 L -396.63 175.52 L -397.30 169.08 L -404.05 169.35 L -407.03 155.91 L -418.99 152.72 L -418.67 142.94 L -385.41 142.26 L -392.06 111.45 L -410.73 109.89 L -406.55 99.44 L -413.11 99.97 L -411.94 94.01 L -417.14 92.91 L -413.99 72.55 L -396.58 75.62 Z" fill="#1c1c1c" stroke="#2e2e2e" stroke-width="0.4"/>
  <path d="M 267.20 474.58 L 235.89 480.58 L 241.44 466.47 L 281.25 423.28 L 284.73 413.21 L 296.71 419.53 L 291.28 423.46 L 357.96 441.76 L 338.39 505.86 L 278.19 554.86 L 270.43 535.24 L 270.21 506.20 L 284.74 480.93 L 267.20 474.58 Z" fill="#1c1c1c" stroke="#2e2e2e" stroke-width="0.4"/>
  <path d="M 352.29 114.40 L 318.61 112.66 L 303.13 95.08 L 309.96 86.74 L 305.43 74.32 L 313.63 56.75 L 329.89 57.53 L 346.21 71.80 L 373.93 68.98 L 383.39 59.46 L 386.97 65.93 L 411.90 64.33 L 413.88 79.07 L 406.26 98.03 L 367.36 105.35 L 369.35 109.42 L 362.58 111.04 L 367.10 114.62 L 352.29 114.40 Z" fill="#1c1c1c" stroke="#2e2e2e" stroke-width="0.4"/>
  <path d="M 311.74 38.56 L 311.00 31.83 L 306.99 35.15 L 284.25 24.04 L 267.57 34.89 L 283.75 -13.17 L 295.98 -21.72 L 310.72 -23.66 L 335.25 -17.22 L 368.47 13.29 L 424.87 44.42 L 412.72 48.57 L 417.21 56.06 L 412.58 61.03 L 409.83 58.15 L 410.62 64.99 L 386.97 65.93 L 383.39 59.46 L 373.93 68.98 L 346.50 71.82 L 331.46 58.28 L 319.58 56.54 L 311.74 38.56 Z" fill="#1c1c1c" stroke="#2e2e2e" stroke-width="0.4"/>
  <path d="M 250.74 216.51 L 254.81 222.43 L 270.55 215.73 L 269.50 226.58 L 263.84 227.28 L 270.53 232.89 L 268.23 240.63 L 259.42 239.70 L 261.16 244.73 L 253.82 239.40 L 215.08 241.17 L 214.47 227.66 L 202.58 224.23 L 197.79 200.49 L 252.19 210.42 L 254.72 214.10 L 246.37 215.02 L 250.74 216.51 Z" fill="#1c1c1c" stroke="#2e2e2e" stroke-width="0.4"/>
  <path d="M 407.80 260.71 L 383.15 248.99 L 360.45 245.58 L 361.27 241.08 L 372.06 227.81 L 391.68 234.43 L 420.89 247.50 L 412.56 261.99 L 407.80 260.71 Z" fill="#1c1c1c" stroke="#2e2e2e" stroke-width="0.4"/>
  <path d="M 396.92 307.18 L 398.04 301.99 L 439.39 310.71 L 445.33 323.57 L 422.03 338.00 L 394.04 333.21 L 395.75 314.61 L 391.14 314.20 L 395.78 314.39 L 396.92 307.18 Z" fill="#1c1c1c" stroke="#2e2e2e" stroke-width="0.4"/>
  <path d="M 180.48 162.89 L 172.92 162.67 L 171.71 150.97 L 161.34 147.01 L 158.35 151.58 L 161.01 140.35 L 141.69 133.43 L 142.77 119.94 L 148.93 118.02 L 143.72 110.81 L 116.68 103.39 L 120.73 91.58 L 159.66 49.39 L 173.73 56.80 L 155.95 66.09 L 179.01 84.38 L 173.44 84.14 L 178.88 93.58 L 187.48 101.50 L 190.60 98.28 L 193.45 109.85 L 220.23 125.69 L 238.22 128.06 L 229.72 131.67 L 229.96 137.34 L 243.32 146.66 L 242.70 150.14 L 213.67 145.99 L 202.64 155.12 L 199.49 170.61 L 180.48 162.89 Z" fill="#FFCC4D" fill-opacity="0.55" stroke="#FFCC4D" stroke-width="1.5" stroke-opacity="0.9"/>
</svg>