<svg xmlns="http://www.w3.org/2000/svg" viewBox="0 0 360 220" width="360" height="220">
  <rect width="360" height="220" fill="#0a0a0a"/>
  <path d="M 366.80 204.07 L 365.30 212.70 L 369.27 212.15 L 369.59 194.20 L 358.02 194.09 L 358.08 190.03 L 371.16 185.41 L 371.82 178.61 L 388.96 186.51 L 387.11 203.92 L 398.95 206.14 L 399.81 218.09 L 394.33 216.21 L 391.61 221.69 L 384.46 222.03 L 382.73 232.81 L 377.61 229.36 L 348.34 242.18 L 340.18 238.89 L 327.74 243.00 L 320.59 243.15 L 313.70 234.96 L 321.13 232.85 L 315.22 227.08 L 316.71 217.01 L 306.46 213.42 L 304.91 202.16 L 309.21 203.79 L 318.24 196.93 L 324.10 206.95 L 323.24 201.03 L 330.99 198.19 L 346.25 206.31 L 365.31 199.40 L 366.80 204.07 Z" fill="#1c1c1c" stroke="#2e2e2e" stroke-width="0.4"/>
  <path d="M 344.09 144.62 L 314.97 148.10 L 308.66 145.39 L 300.43 153.49 L 302.04 141.21 L 276.63 134.29 L 281.76 126.33 L 278.63 120.56 L 283.03 109.19 L 275.76 112.95 L 278.45 95.33 L 269.92 94.50 L 270.05 90.13 L 281.70 83.20 L 289.30 84.30 L 287.35 69.60 L 293.66 69.71 L 294.31 60.49 L 315.12 55.39 L 314.95 63.44 L 308.95 70.59 L 311.38 73.22 L 316.26 67.35 L 319.31 70.83 L 313.15 83.10 L 335.60 91.02 L 352.97 90.40 L 358.25 93.58 L 358.58 100.51 L 367.58 99.75 L 370.19 105.52 L 376.94 104.35 L 389.18 114.30 L 396.18 109.45 L 406.67 122.02 L 412.61 122.84 L 411.67 126.89 L 422.86 127.29 L 400.70 169.55 L 390.42 161.52 L 384.42 162.45 L 388.15 160.42 L 386.18 146.68 L 376.86 155.88 L 381.93 147.57 L 379.27 144.70 L 366.49 142.27 L 362.62 151.87 L 344.09 144.62 Z" fill="#1c1c1c" stroke="#2e2e2e" stroke-width="0.4"/>
  <path d="M 405.48 139.51 L 408.72 138.41 L 405.48 139.51 Z" fill="#1c1c1c" stroke="#2e2e2e" stroke-width="0.4"/>
  <path d="M 219.28 59.15 L 215.97 63.22 L 215.53 59.01 L 207.02 55.69 L 211.16 52.76 L 203.10 52.22 L 188.94 42.59 L 189.50 39.04 L 202.97 35.51 L 203.05 28.99 L 197.94 28.86 L 197.81 15.63 L 191.13 13.05 L 222.43 10.19 L 237.47 -7.51 L 270.44 -16.96 L 265.13 -7.56 L 266.75 10.26 L 274.56 11.38 L 275.20 15.90 L 267.96 15.89 L 266.72 20.59 L 275.62 25.63 L 285.12 21.82 L 300.70 43.34 L 288.53 56.13 L 289.30 84.30 L 281.70 83.20 L 265.30 90.67 L 265.47 73.09 L 254.50 71.48 L 246.65 58.46 L 233.79 67.30 L 229.73 59.23 L 219.28 59.15 Z" fill="#1c1c1c" stroke="#2e2e2e" stroke-width="0.4"/>
  <path d="M -52.16 -109.33 L -57.53 -106.58 L -68.03 -121.44 L -74.95 -119.01 L -74.47 -127.24 L -88.12 -113.82 L -92.39 -113.57 L -89.59 -119.96 L -94.37 -123.93 L -114.76 -121.45 L -121.34 -143.30 L -111.55 -153.12 L -90.20 -160.79 L -86.75 -174.30 L -73.65 -178.86 L -54.52 -174.81 L -45.46 -187.48 L -33.66 -189.78 L -30.87 -185.83 L -39.52 -181.57 L -39.77 -171.57 L -28.11 -173.22 L -22.83 -177.67 L -21.73 -186.60 L -6.65 -186.79 L -3.69 -199.87 L 11.81 -204.51 L 40.68 -206.44 L 60.67 -188.52 L 52.20 -195.04 L 46.30 -192.34 L 46.80 -182.60 L 53.57 -176.30 L 47.61 -171.19 L 13.78 -170.26 L 13.72 -166.32 L 28.05 -157.40 L 55.69 -157.63 L 57.17 -137.53 L 29.25 -128.11 L 36.44 -120.60 L 53.41 -114.63 L 34.21 -84.79 L 3.72 -90.23 L -7.52 -74.96 L -24.93 -81.33 L -24.97 -78.42 L -39.95 -78.53 L -24.87 -86.00 L -24.46 -102.37 L -13.36 -109.98 L -29.56 -107.21 L -32.35 -101.72 L -43.17 -102.70 L -52.16 -109.33 Z" fill="#1c1c1c" stroke="#2e2e2e" stroke-width="0.4"/>
  <path d="M 200.47 -63.88 L 203.46 -67.76 L 208.01 -64.83 L 209.19 -67.78 L 269.46 -67.81 L 271.34 -64.74 L 289.19 -71.12 L 298.48 -67.28 L 298.83 -70.90 L 308.66 -71.57 L 307.50 -62.95 L 313.13 -63.70 L 309.44 -60.46 L 314.03 -54.69 L 300.47 -44.34 L 277.52 -44.89 L 280.05 -41.39 L 267.32 -38.17 L 266.73 -29.70 L 258.32 -30.48 L 258.15 -25.68 L 244.91 -27.50 L 246.69 -20.18 L 224.13 -25.67 L 209.50 -12.30 L 196.83 -13.21 L 170.73 -22.15 L 175.41 -27.18 L 177.23 -45.29 L 182.14 -48.19 L 182.56 -59.01 L 178.09 -62.24 L 194.68 -67.67 L 200.47 -63.88 Z" fill="#1c1c1c" stroke="#2e2e2e" stroke-width="0.4"/>
  <path d="M 293.33 -71.20 L 286.73 -76.28 L 292.13 -85.63 L 288.64 -101.27 L 293.89 -99.65 L 295.82 -105.93 L 322.49 -103.32 L 322.42 -109.56 L 331.56 -109.82 L 331.65 -118.33 L 364.86 -118.07 L 367.83 -122.10 L 367.29 -91.23 L 372.07 -91.14 L 371.79 -77.59 L 348.96 -80.05 L 348.77 -71.36 L 325.61 -71.82 L 326.53 -57.40 L 320.22 -56.04 L 310.77 -56.06 L 313.13 -63.70 L 307.50 -62.95 L 308.66 -71.57 L 293.33 -71.20 Z" fill="#1c1c1c" stroke="#2e2e2e" stroke-width="0.4"/>
  <path d="M 367.45 -190.95 L 368.52 -198.73 L 377.29 -206.00 L 402.00 -202.24 L 401.85 -185.31 L 393.99 -176.50 L 364.80 -176.03 L 367.45 -190.95 Z" fill="#1c1c1c" stroke="#2e2e2e" stroke-width="0.4"/>
  <path d="M 467.39 -119.48 L 469.85 -129.50 L 484.49 -147.39 L 503.96 -141.71 L 494.70 -130.16 L 491.70 -111.90 L 482.71 -104.84 L 478.59 -108.80 L 481.42 -116.66 L 467.39 -119.48 Z" fill="#1c1c1c" stroke="#2e2e2e" stroke-width="0.4"/>
  <path d="M 209.78 179.49 L 206.71 185.19 L 200.40 179.87 L 172.27 172.94 L 167.28 178.23 L 153.85 180.10 L 153.51 194.55 L 143.52 193.60 L 137.50 191.11 L 135.74 182.58 L 128.45 185.66 L 128.65 175.80 L 118.41 175.08 L 118.39 164.01 L 109.63 163.21 L 102.00 153.98 L 113.33 149.87 L 109.14 142.71 L 103.48 140.09 L 95.20 143.33 L 87.45 136.82 L 71.86 136.56 L 67.59 129.31 L 71.08 123.89 L 85.45 120.99 L 96.45 123.64 L 129.06 117.15 L 128.98 123.32 L 132.63 123.20 L 134.77 118.31 L 147.61 119.90 L 146.17 115.95 L 151.48 119.19 L 150.07 125.43 L 171.02 127.98 L 179.63 136.65 L 174.71 136.58 L 174.24 150.07 L 192.11 150.35 L 191.43 163.10 L 205.08 156.69 L 206.46 163.35 L 215.63 164.33 L 224.99 153.56 L 219.00 166.77 L 210.76 166.77 L 209.78 179.49 Z" fill="#1c1c1c" stroke="#2e2e2e" stroke-width="0.4"/>
  <path d="M 48.76 324.76 L 11.29 288.07 L 27.82 204.35 L 35.23 211.30 L 38.18 208.91 L 34.30 197.74 L 51.95 198.06 L 50.63 189.61 L 37.17 191.93 L 39.48 184.99 L 33.75 177.01 L 39.79 149.84 L 52.96 155.31 L 46.06 142.84 L 67.56 129.41 L 71.86 136.56 L 87.45 136.82 L 95.20 143.33 L 103.48 140.09 L 109.14 142.71 L 113.33 149.87 L 102.00 153.98 L 109.63 163.21 L 118.39 164.01 L 118.41 175.08 L 128.65 175.80 L 128.45 185.66 L 135.74 182.58 L 137.50 191.11 L 153.51 194.55 L 153.50 184.08 L 161.17 186.66 L 169.68 193.80 L 171.57 203.69 L 166.75 206.24 L 154.95 196.03 L 147.74 195.39 L 151.82 209.95 L 142.70 216.09 L 144.61 223.67 L 133.06 222.79 L 124.77 230.14 L 105.51 224.24 L 93.50 231.58 L 94.90 237.65 L 104.54 242.89 L 100.64 246.66 L 106.24 246.87 L 116.10 257.92 L 115.75 263.81 L 101.33 262.12 L 115.17 280.07 L 123.71 279.58 L 112.02 292.23 L 104.26 309.99 L 71.36 311.40 L 66.71 319.11 L 59.08 319.90 L 51.51 327.41 L 48.76 324.76 Z" fill="#1c1c1c" stroke="#2e2e2e" stroke-width="0.4"/>
  <path d="M 439.70 -121.48 L 463.99 -116.81 L 467.43 -119.67 L 463.76 -104.31 L 419.55 -110.21 L 422.44 -127.51 L 435.06 -126.37 L 439.70 -121.48 Z" fill="#1c1c1c" stroke="#2e2e2e" stroke-width="0.4"/>
  <path d="M 434.86 -101.57 L 408.85 -102.00 L 410.47 -111.82 L 466.50 -104.07 L 461.84 -101.79 L 461.28 -94.02 L 455.64 -95.22 L 453.72 -91.57 L 435.29 -95.27 L 434.86 -101.57 Z" fill="#1c1c1c" stroke="#2e2e2e" stroke-width="0.4"/>
  <path d="M 324.88 -164.53 L 304.19 -171.03 L 290.21 -193.07 L 279.81 -190.19 L 283.33 -179.62 L 267.84 -183.44 L 258.83 -200.25 L 281.82 -210.18 L 294.66 -224.91 L 335.39 -210.48 L 333.27 -201.54 L 335.64 -205.19 L 343.90 -202.03 L 345.01 -192.58 L 366.01 -186.40 L 364.65 -162.62 L 352.45 -172.39 L 337.12 -173.84 L 330.29 -168.02 L 325.63 -169.61 L 324.88 -164.53 Z" fill="#1c1c1c" stroke="#2e2e2e" stroke-width="0.4"/>
  <path d="M 434.57 -185.45 L 399.41 -188.97 L 402.00 -202.24 L 391.53 -210.65 L 390.07 -217.39 L 419.62 -219.43 L 421.25 -233.43 L 426.35 -233.64 L 431.43 -225.09 L 450.26 -222.70 L 449.94 -207.79 L 441.50 -207.82 L 444.24 -203.85 L 440.46 -197.59 L 444.90 -193.28 L 454.78 -196.18 L 458.01 -185.05 L 443.07 -189.39 L 445.46 -184.38 L 434.57 -185.45 Z" fill="#1c1c1c" stroke="#2e2e2e" stroke-width="0.4"/>
  <path d="M 547.85 -185.55 L 543.00 -192.46 L 524.54 -187.33 L 526.35 -230.67 L 577.74 -227.49 L 578.23 -234.14 L 595.15 -232.51 L 583.07 -212.02 L 547.85 -185.55 Z" fill="#1c1c1c" stroke="#2e2e2e" stroke-width="0.4"/>
  <path d="M 123.81 307.32 L 142.64 305.04 L 161.77 311.56 L 161.31 318.42 L 206.12 319.80 L 215.27 315.01 L 221.00 305.10 L 218.22 291.04 L 223.64 274.20 L 219.49 272.24 L 251.10 275.43 L 255.25 281.81 L 260.96 281.02 L 259.88 298.90 L 255.40 301.74 L 258.90 306.89 L 248.84 307.90 L 260.67 307.95 L 261.08 327.13 L 268.46 327.35 L 268.62 333.58 L 293.88 333.79 L 293.71 337.92 L 302.77 337.96 L 302.81 341.66 L 310.95 341.81 L 326.63 352.65 L 328.12 344.61 L 343.17 347.49 L 341.56 368.53 L 349.43 368.56 L 348.26 375.32 L 358.57 380.03 L 347.39 394.75 L 351.50 408.09 L 357.81 411.02 L 366.19 406.84 L 375.76 425.79 L 357.70 436.22 L 304.14 447.67 L 301.21 445.00 L 304.43 436.15 L 287.01 432.60 L 286.87 436.21 L 280.83 437.21 L 285.45 451.92 L 257.75 458.26 L 256.14 449.50 L 226.68 443.88 L 223.54 456.59 L 212.31 463.86 L 212.06 468.69 L 198.56 471.76 L 155.98 467.88 L 170.53 460.41 L 162.23 438.01 L 170.41 409.38 L 123.30 397.49 L 88.44 406.00 L 99.82 389.68 L 110.23 387.92 L 51.51 327.41 L 59.08 319.90 L 66.83 319.03 L 71.36 311.40 L 123.81 307.32 Z" fill="#1c1c1c" stroke="#2e2e2e" stroke-width="0.4"/>
  <path d="M 300.70 43.34 L 285.12 21.82 L 275.62 25.63 L 275.25 22.36 L 267.81 22.68 L 267.96 15.89 L 275.20 15.90 L 274.56 11.38 L 266.84 10.62 L 266.26 -14.82 L 277.18 -16.71 L 284.23 -11.10 L 281.62 -16.23 L 283.07 -13.03 L 285.82 -19.31 L 303.11 -21.23 L 300.14 -25.14 L 332.30 -37.17 L 340.76 -22.63 L 339.06 2.96 L 353.72 11.87 L 366.64 13.69 L 367.58 29.46 L 361.72 34.55 L 351.52 32.60 L 358.67 51.06 L 329.29 51.00 L 328.94 60.25 L 322.67 63.23 L 323.44 58.09 L 314.95 63.44 L 315.12 55.39 L 308.40 56.26 L 294.31 60.49 L 293.66 69.71 L 287.42 69.44 L 288.53 56.13 L 300.70 43.34 Z" fill="#1c1c1c" stroke="#2e2e2e" stroke-width="0.4"/>
  <path d="M 497.82 -169.00 L 481.87 -176.42 L 489.45 -195.21 L 485.20 -229.95 L 499.40 -230.96 L 495.81 -233.81 L 501.19 -235.10 L 499.62 -238.34 L 530.57 -244.17 L 526.40 -233.41 L 525.29 -187.53 L 510.14 -178.58 L 516.13 -172.24 L 512.79 -169.03 L 505.37 -164.20 L 497.82 -169.00 Z" fill="#1c1c1c" stroke="#2e2e2e" stroke-width="0.4"/>
  <path d="M 388.99 -130.22 L 409.25 -131.65 L 415.09 -127.41 L 413.71 -131.41 L 420.82 -130.66 L 419.55 -110.21 L 410.47 -111.82 L 408.19 -86.20 L 371.95 -84.63 L 372.07 -91.14 L 367.29 -91.23 L 367.90 -126.86 L 388.99 -130.22 Z" fill="#1c1c1c" stroke="#2e2e2e" stroke-width="0.4"/>
  <path d="M 439.70 -121.48 L 435.06 -126.37 L 420.87 -128.08 L 422.55 -136.84 L 417.22 -141.30 L 421.73 -141.86 L 423.35 -152.81 L 440.68 -150.94 L 445.16 -144.12 L 454.21 -144.01 L 472.35 -133.09 L 463.99 -116.81 L 439.70 -121.48 Z" fill="#1c1c1c" stroke="#2e2e2e" stroke-width="0.4"/>
  <path d="M 336.79 -143.36 L 339.26 -139.69 L 333.33 -141.00 L 336.79 -143.36 Z" fill="#1c1c1c" stroke="#2e2e2e" stroke-width="0.4"/>
  <path d="M 312.84 -144.32 L 314.65 -147.91 L 282.98 -152.00 L 280.07 -159.14 L 271.43 -156.53 L 266.10 -161.39 L 256.67 -159.59 L 256.18 -154.66 L 242.04 -155.02 L 248.94 -164.74 L 248.01 -194.54 L 258.83 -200.25 L 267.84 -183.44 L 283.33 -179.62 L 279.81 -190.19 L 290.21 -193.07 L 304.06 -171.15 L 318.42 -168.95 L 321.35 -163.68 L 337.12 -173.84 L 352.45 -172.39 L 364.65 -162.62 L 368.50 -144.42 L 345.27 -143.44 L 343.75 -140.13 L 338.27 -143.71 L 328.18 -140.63 L 328.06 -143.75 L 326.28 -140.69 L 312.84 -144.32 Z" fill="#1c1c1c" stroke="#2e2e2e" stroke-width="0.4"/>
  <path d="M 369.83 -231.57 L 361.20 -234.76 L 358.93 -243.97 L 356.45 -241.40 L 348.08 -250.13 L 345.28 -255.22 L 349.71 -255.03 L 331.35 -269.58 L 343.32 -277.34 L 370.23 -263.10 L 381.21 -267.69 L 384.59 -255.41 L 384.86 -258.37 L 398.34 -250.65 L 402.94 -255.53 L 430.42 -245.29 L 432.18 -235.50 L 441.18 -234.44 L 440.31 -229.19 L 445.04 -228.77 L 444.43 -225.30 L 431.43 -225.09 L 426.35 -233.64 L 421.25 -233.43 L 419.62 -219.43 L 410.31 -219.65 L 384.57 -221.26 L 369.83 -231.57 Z" fill="#1c1c1c" stroke="#2e2e2e" stroke-width="0.4"/>
  <path d="M 535.75 -135.26 L 530.73 -129.54 L 503.35 -140.87 L 505.91 -146.07 L 501.96 -151.13 L 525.98 -161.38 L 516.13 -172.24 L 521.35 -177.33 L 534.55 -170.85 L 536.20 -166.22 L 526.53 -160.70 L 534.58 -151.73 L 552.61 -147.29 L 540.61 -146.77 L 544.79 -142.24 L 535.75 -135.26 Z" fill="#1c1c1c" stroke="#2e2e2e" stroke-width="0.4"/>
  <path d="M 484.57 -70.04 L 495.77 -68.84 L 491.08 -55.88 L 485.43 -55.05 L 484.45 -49.01 L 473.87 -45.70 L 472.49 -40.98 L 448.56 -69.07 L 453.11 -74.30 L 484.57 -70.04 Z" fill="#1c1c1c" stroke="#2e2e2e" stroke-width="0.4"/>
  <path d="M 516.31 -51.15 L 520.72 -57.03 L 543.12 -53.18 L 508.58 -12.03 L 499.41 -14.24 L 494.03 -27.35 L 506.15 -35.17 L 504.76 -39.51 L 516.31 -51.15 Z" fill="#1c1c1c" stroke="#2e2e2e" stroke-width="0.4"/>
  <path d="M 100.00 239.99 L 93.06 232.34 L 102.61 224.81 L 123.36 226.93 L 124.77 230.14 L 133.06 222.79 L 145.00 223.39 L 142.70 216.09 L 151.82 209.95 L 147.74 195.39 L 170.96 205.66 L 169.68 193.80 L 153.50 184.08 L 153.85 180.10 L 167.28 178.23 L 172.41 172.95 L 208.34 185.22 L 210.76 166.77 L 219.00 166.77 L 224.99 153.56 L 226.44 148.39 L 221.22 142.88 L 241.29 143.82 L 247.22 150.41 L 260.27 146.97 L 260.77 160.26 L 254.70 164.30 L 260.93 174.24 L 280.91 177.50 L 275.99 188.63 L 280.39 190.82 L 303.29 192.79 L 306.46 213.42 L 316.71 217.01 L 315.22 227.08 L 321.13 232.85 L 310.10 238.75 L 320.48 248.49 L 313.77 244.52 L 292.26 247.68 L 291.46 238.66 L 286.55 235.82 L 274.32 246.93 L 262.80 245.51 L 258.33 275.49 L 240.83 276.95 L 233.79 272.14 L 219.49 272.24 L 223.64 274.20 L 218.22 291.04 L 221.00 305.10 L 215.27 315.01 L 206.12 319.80 L 161.31 318.42 L 161.77 311.56 L 142.64 305.04 L 131.97 308.95 L 108.45 306.23 L 112.02 292.23 L 123.71 279.58 L 115.17 280.07 L 101.24 261.97 L 116.69 261.40 L 112.95 252.91 L 100.64 246.66 L 104.63 243.09 L 100.00 239.99 Z" fill="#1c1c1c" stroke="#2e2e2e" stroke-width="0.4"/>
  <path d="M 210.94 -259.75 L 210.94 -259.75 Z" fill="#1c1c1c" stroke="#2e2e2e" stroke-width="0.4"/>
  <path d="M 242.55 -246.13 L 211.37 -253.16 L 210.50 -262.55 L 230.59 -266.46 L 222.13 -279.19 L 220.40 -292.24 L 216.34 -292.45 L 216.68 -306.17 L 203.47 -306.46 L 181.09 -314.81 L 153.63 -309.27 L 151.56 -321.92 L 165.37 -320.27 L 126.75 -333.73 L 138.30 -345.49 L 131.50 -349.33 L 128.38 -363.15 L 116.82 -380.40 L 122.59 -380.46 L 122.75 -373.19 L 147.50 -353.81 L 160.48 -337.35 L 199.57 -320.55 L 231.29 -324.34 L 270.73 -351.65 L 290.13 -372.80 L 293.92 -388.56 L 304.34 -403.00 L 324.17 -411.14 L 340.22 -409.32 L 340.21 -403.15 L 321.79 -394.35 L 340.09 -395.66 L 339.60 -367.62 L 317.26 -367.85 L 316.95 -347.34 L 330.32 -346.84 L 346.69 -357.36 L 382.23 -362.32 L 418.38 -358.84 L 413.15 -347.38 L 437.05 -352.28 L 443.66 -357.56 L 455.02 -356.31 L 454.13 -350.27 L 482.85 -347.54 L 478.62 -339.38 L 485.34 -332.42 L 478.32 -337.48 L 477.79 -333.41 L 454.54 -341.01 L 435.29 -335.01 L 421.35 -295.73 L 401.53 -279.38 L 334.31 -282.87 L 303.32 -249.29 L 294.51 -224.60 L 242.55 -246.13 Z" fill="#1c1c1c" stroke="#2e2e2e" stroke-width="0.4"/>
  <path d="M 456.36 -191.06 L 458.83 -194.85 L 469.96 -193.23 L 468.55 -189.91 L 486.60 -190.62 L 481.87 -176.42 L 497.92 -169.52 L 487.26 -150.68 L 466.28 -154.81 L 463.00 -172.37 L 459.19 -154.94 L 443.61 -163.79 L 442.87 -172.22 L 435.30 -173.29 L 437.75 -178.39 L 432.93 -172.37 L 436.41 -185.00 L 446.82 -185.11 L 443.07 -189.39 L 458.01 -185.05 L 456.36 -191.06 Z" fill="#1c1c1c" stroke="#2e2e2e" stroke-width="0.4"/>
  <path d="M 367.07 30.24 L 367.73 15.01 L 360.46 12.81 L 367.88 4.71 L 359.76 2.84 L 374.11 -6.08 L 390.12 -9.91 L 427.09 -0.54 L 427.29 12.67 L 431.55 13.93 L 399.56 48.86 L 394.98 60.30 L 381.48 62.41 L 379.66 55.51 L 364.17 59.97 L 359.24 56.54 L 351.52 32.60 L 361.72 34.55 L 367.07 30.24 Z" fill="#1c1c1c" stroke="#2e2e2e" stroke-width="0.4"/>
  <path d="M 341.06 -22.73 L 374.98 -39.38 L 374.93 -23.52 L 383.22 -23.38 L 383.06 -16.38 L 391.20 -9.80 L 383.05 -10.18 L 359.76 2.84 L 367.88 4.71 L 356.37 12.68 L 339.06 2.96 L 341.06 -22.73 Z" fill="#1c1c1c" stroke="#2e2e2e" stroke-width="0.4"/>
  <path d="M 519.98 -61.95 L 520.72 -57.03 L 500.63 -31.78 L 472.49 -40.98 L 473.87 -45.70 L 484.45 -49.01 L 485.43 -55.05 L 491.08 -55.88 L 496.37 -74.02 L 500.91 -73.57 L 497.89 -81.56 L 523.38 -78.99 L 522.23 -71.97 L 518.57 -72.32 L 522.21 -71.79 L 519.98 -61.95 Z" fill="#1c1c1c" stroke="#2e2e2e" stroke-width="0.4"/>
  <path d="M 521.40 -186.21 L 543.00 -192.46 L 546.55 -185.89 L 552.34 -185.54 L 553.46 -170.02 L 574.80 -145.47 L 580.84 -129.06 L 569.34 -122.52 L 556.17 -144.95 L 534.58 -151.73 L 526.53 -160.70 L 536.20 -166.22 L 534.55 -170.85 L 521.35 -177.33 L 516.13 -172.24 L 510.14 -178.58 L 521.40 -186.21 Z" fill="#1c1c1c" stroke="#2e2e2e" stroke-width="0.4"/>
  <path d="M 377.44 249.51 L 374.89 251.87 L 377.44 249.51 Z" fill="#1c1c1c" stroke="#2e2e2e" stroke-width="0.4"/>
  <path d="M 384.61 276.18 L 386.69 267.19 L 377.73 254.29 L 386.55 255.27 L 383.94 249.08 L 389.27 247.52 L 404.39 247.57 L 415.34 276.91 L 401.14 274.89 L 397.94 281.93 L 380.20 289.25 L 379.51 282.17 L 387.81 277.46 L 384.61 276.18 Z" fill="#1c1c1c" stroke="#2e2e2e" stroke-width="0.4"/>
  <path d="M 362.41 151.40 L 366.70 142.22 L 381.93 147.57 L 376.86 155.88 L 386.18 146.68 L 388.15 160.42 L 384.42 162.45 L 390.42 161.52 L 400.70 169.55 L 398.95 206.14 L 387.11 203.92 L 388.96 186.51 L 371.82 178.61 L 371.16 185.41 L 358.08 190.03 L 358.02 194.09 L 369.59 194.20 L 366.40 212.59 L 365.90 199.36 L 346.25 206.31 L 330.99 198.19 L 323.24 201.03 L 323.93 206.91 L 318.24 196.93 L 305.59 202.75 L 303.29 192.79 L 275.99 188.63 L 280.91 177.50 L 264.75 177.17 L 254.70 164.30 L 264.59 153.26 L 264.96 128.70 L 277.87 129.07 L 274.31 132.90 L 278.13 136.14 L 301.17 140.56 L 300.43 153.49 L 308.66 145.39 L 315.36 148.09 L 339.49 143.81 L 362.41 151.40 Z" fill="#1c1c1c" stroke="#2e2e2e" stroke-width="0.4"/>
  <path d="M 371.93 160.26 L 363.33 160.78 L 371.93 160.26 Z" fill="#1c1c1c" stroke="#2e2e2e" stroke-width="0.4"/>
  <path d="M 136.69 -27.64 L 154.85 -25.27 L 160.92 -19.65 L 209.50 -12.30 L 223.17 -25.45 L 234.10 -25.83 L 245.07 -19.99 L 227.99 -14.26 L 225.31 -7.95 L 249.56 -10.87 L 236.79 -7.03 L 222.86 10.02 L 191.13 13.05 L 197.81 15.63 L 197.94 28.86 L 203.05 28.99 L 202.97 35.51 L 189.50 39.04 L 188.94 42.59 L 203.10 52.22 L 211.16 52.76 L 196.28 61.53 L 198.25 76.16 L 188.51 85.28 L 193.25 89.48 L 166.83 90.08 L 154.47 98.48 L 145.14 93.10 L 156.56 88.75 L 149.52 82.29 L 133.07 79.89 L 125.07 69.67 L 115.50 72.76 L 117.70 64.79 L 131.11 55.55 L 124.95 36.19 L 121.14 36.98 L 123.05 30.95 L 117.92 31.08 L 122.20 25.46 L 116.97 17.87 L 129.58 14.51 L 110.05 13.84 L 123.10 13.21 L 105.98 8.38 L 108.11 -6.38 L 116.10 -14.49 L 110.19 -20.87 L 113.72 -25.54 L 136.69 -27.64 Z" fill="#1c1c1c" stroke="#2e2e2e" stroke-width="0.4"/>
  <path d="M 113.64 -255.77 L 116.52 -253.58 L 112.33 -251.18 L 109.38 -254.32 L 113.64 -255.77 Z" fill="#1c1c1c" stroke="#2e2e2e" stroke-width="0.4"/>
  <path d="M 17.18 -261.23 L -15.43 -266.52 L 5.62 -273.69 L 16.36 -270.31 L 13.13 -275.19 L 21.30 -277.90 L 22.81 -287.87 L 23.11 -300.23 L -0.97 -302.17 L -21.16 -329.44 L -13.47 -329.91 L -17.34 -336.63 L -15.11 -349.54 L -5.60 -351.96 L -11.76 -359.32 L -0.59 -365.06 L 14.88 -370.20 L 33.59 -367.26 L 45.93 -376.70 L 60.13 -377.64 L 64.96 -372.17 L 53.69 -363.62 L 64.19 -363.02 L 64.67 -357.20 L 74.06 -358.18 L 80.38 -351.55 L 88.11 -356.82 L 81.64 -361.49 L 72.00 -360.68 L 72.34 -364.69 L 81.96 -368.85 L 91.14 -363.43 L 102.74 -363.54 L 89.91 -378.40 L 116.82 -380.40 L 128.38 -363.15 L 131.50 -349.33 L 138.30 -345.49 L 126.75 -333.73 L 165.37 -320.27 L 150.84 -319.69 L 153.57 -309.30 L 164.52 -311.69 L 163.48 -300.68 L 137.11 -300.73 L 137.01 -293.59 L 124.30 -294.22 L 109.78 -287.23 L 134.79 -270.44 L 133.50 -259.04 L 108.04 -260.30 L 111.46 -256.34 L 88.92 -250.43 L 94.79 -248.37 L 89.75 -239.39 L 49.70 -233.07 L 51.92 -238.01 L 43.43 -242.86 L 43.14 -251.99 L 34.92 -252.09 L 37.94 -260.72 L 17.18 -261.23 Z" fill="#1c1c1c" stroke="#2e2e2e" stroke-width="0.4"/>
  <path d="M -0.99 -266.67 L 2.50 -263.06 L -0.99 -266.67 Z" fill="#1c1c1c" stroke="#2e2e2e" stroke-width="0.4"/>
  <path d="M 488.32 -151.94 L 497.46 -168.45 L 505.37 -164.20 L 516.13 -172.24 L 525.98 -161.38 L 501.96 -151.13 L 505.91 -146.07 L 503.15 -141.59 L 484.49 -147.39 L 488.32 -151.94 Z" fill="#1c1c1c" stroke="#2e2e2e" stroke-width="0.4"/>
  <path d="M 258.19 -26.46 L 258.32 -30.48 L 266.73 -29.70 L 267.32 -38.17 L 280.05 -41.39 L 277.52 -44.89 L 305.21 -45.77 L 297.17 -38.94 L 313.43 -35.27 L 312.49 -30.93 L 300.14 -25.14 L 303.11 -21.23 L 285.82 -19.31 L 283.07 -13.03 L 281.62 -16.23 L 284.23 -11.10 L 270.44 -16.96 L 225.42 -7.88 L 227.99 -14.26 L 246.69 -20.18 L 244.91 -27.50 L 258.19 -26.46 Z" fill="#1c1c1c" stroke="#2e2e2e" stroke-width="0.4"/>
  <path d="M 395.30 -77.23 L 399.33 -76.02 L 394.56 -52.56 L 341.34 -22.83 L 332.30 -37.17 L 312.49 -30.93 L 312.14 -37.40 L 297.17 -38.94 L 303.35 -42.06 L 305.21 -45.77 L 300.47 -44.34 L 304.89 -51.07 L 314.03 -54.69 L 310.88 -55.64 L 326.53 -57.40 L 325.61 -71.82 L 348.77 -71.36 L 348.96 -80.05 L 371.79 -77.59 L 371.95 -84.63 L 392.18 -82.98 L 395.30 -77.23 Z" fill="#1c1c1c" stroke="#2e2e2e" stroke-width="0.4"/>
  <path d="M 487.16 -207.16 L 487.87 -191.00 L 475.29 -188.93 L 466.35 -194.14 L 450.09 -194.69 L 451.67 -213.16 L 450.26 -222.70 L 444.08 -224.10 L 445.70 -231.55 L 456.84 -227.06 L 463.15 -230.03 L 460.82 -232.52 L 487.13 -231.15 L 487.16 -207.16 Z" fill="#1c1c1c" stroke="#2e2e2e" stroke-width="0.4"/>
  <path d="M 408.84 -101.85 L 435.00 -101.47 L 435.29 -95.27 L 439.71 -95.28 L 435.49 -92.22 L 438.38 -86.98 L 435.35 -80.46 L 427.95 -83.18 L 419.94 -78.81 L 412.43 -82.63 L 408.08 -86.34 L 408.84 -101.85 Z" fill="#1c1c1c" stroke="#2e2e2e" stroke-width="0.4"/>
  <path d="M 166.21 -86.75 L 170.92 -92.35 L 162.22 -94.04 L 160.49 -104.21 L 152.75 -104.05 L 146.48 -91.83 L 134.77 -89.97 L 129.98 -91.32 L 122.45 -106.27 L 111.02 -89.59 L 122.18 -74.82 L 100.83 -64.54 L 99.24 -72.60 L 91.52 -71.75 L 74.06 -85.84 L 56.71 -75.05 L 56.81 -110.41 L 79.19 -116.35 L 85.37 -127.35 L 107.96 -135.19 L 111.79 -149.69 L 125.13 -155.51 L 157.47 -156.89 L 178.75 -149.49 L 209.50 -148.64 L 209.20 -133.29 L 199.75 -130.40 L 208.90 -130.09 L 203.29 -119.24 L 209.03 -114.45 L 209.37 -107.62 L 201.16 -99.24 L 196.31 -78.87 L 180.15 -78.86 L 179.27 -85.01 L 172.38 -81.34 L 174.23 -85.49 L 166.21 -86.75 Z" fill="#1c1c1c" stroke="#2e2e2e" stroke-width="0.4"/>
  <path d="M 409.14 -154.19 L 364.65 -162.62 L 364.80 -176.03 L 393.99 -176.50 L 400.70 -188.81 L 435.05 -185.81 L 432.93 -172.37 L 437.75 -178.39 L 435.43 -173.00 L 442.87 -172.22 L 446.65 -162.29 L 440.68 -150.94 L 423.35 -152.81 L 408.79 -145.16 L 408.81 -149.94 L 403.31 -150.99 L 409.14 -154.19 Z" fill="#1c1c1c" stroke="#2e2e2e" stroke-width="0.4"/>
  <path d="M 440.68 -150.94 L 446.65 -162.29 L 459.19 -154.94 L 461.78 -157.26 L 462.64 -172.45 L 466.28 -154.81 L 487.26 -150.68 L 471.19 -131.13 L 454.21 -144.01 L 445.16 -144.12 L 440.68 -150.94 Z" fill="#1c1c1c" stroke="#2e2e2e" stroke-width="0.4"/>
  <path d="M 350.88 -192.54 L 344.86 -192.72 L 343.90 -202.03 L 335.64 -205.19 L 333.27 -201.54 L 335.39 -210.48 L 320.01 -215.99 L 320.86 -226.73 L 325.77 -228.26 L 321.62 -233.99 L 300.10 -239.90 L 303.32 -249.29 L 334.31 -282.87 L 345.51 -276.98 L 331.35 -269.58 L 349.71 -255.03 L 345.28 -255.22 L 349.61 -247.70 L 356.45 -241.40 L 358.93 -243.97 L 361.20 -234.76 L 382.51 -222.15 L 396.83 -220.26 L 390.07 -217.39 L 390.26 -212.88 L 400.89 -205.46 L 400.40 -202.69 L 377.29 -206.00 L 368.52 -198.73 L 366.01 -186.40 L 350.88 -192.54 Z" fill="#1c1c1c" stroke="#2e2e2e" stroke-width="0.4"/>
  <path d="M 504.99 -109.82 L 500.85 -110.63 L 501.56 -114.81 L 490.16 -117.29 L 494.11 -126.73 L 512.53 -123.90 L 534.70 -112.18 L 530.60 -104.65 L 504.99 -109.82 Z" fill="#1c1c1c" stroke="#2e2e2e" stroke-width="0.4"/>
  <path d="M 22.11 3.38 L 14.08 -2.43 L 14.28 -9.16 L 18.94 -8.99 L 19.18 -23.37 L 10.22 -23.21 L 9.72 -28.60 L 0.18 -34.91 L 20.91 -41.72 L 23.04 -46.91 L 18.44 -56.45 L 21.96 -59.33 L 41.74 -53.74 L 36.41 -57.88 L 39.40 -62.70 L 34.56 -69.27 L 35.14 -78.55 L 43.10 -79.08 L 56.62 -68.24 L 56.09 -44.01 L 64.29 -41.13 L 68.11 -45.56 L 81.39 -34.77 L 103.71 -34.91 L 108.13 -26.31 L 106.50 -12.92 L 101.99 -11.48 L 109.80 -8.13 L 105.98 8.38 L 123.10 13.21 L 110.05 13.84 L 129.58 14.51 L 116.97 17.87 L 122.20 25.46 L 117.92 31.08 L 123.05 30.95 L 121.14 36.98 L 124.95 36.19 L 131.11 55.55 L 117.70 64.79 L 115.50 72.76 L 125.07 69.67 L 133.07 79.89 L 131.68 91.00 L 126.39 87.64 L 124.32 95.07 L 113.09 94.94 L 113.68 100.68 L 109.77 94.86 L 102.92 94.72 L 91.32 107.06 L 84.62 106.83 L 81.83 91.63 L 55.23 95.43 L 23.28 86.81 L 9.36 88.56 L 35.38 67.26 L 18.26 52.78 L 9.11 52.76 L 8.08 58.80 L 3.11 59.13 L 6.82 69.14 L 1.76 69.27 L 2.00 74.15 L 7.82 83.34 L -10.83 81.56 L -9.78 69.75 L -30.12 60.69 L -25.45 54.56 L -6.89 48.72 L -18.40 52.36 L -20.39 36.24 L -25.60 33.96 L -32.92 37.38 L -34.64 34.33 L 0.02 27.67 L -3.64 27.27 L -3.55 23.65 L 0.09 25.15 L -1.65 12.16 L 22.11 3.38 Z" fill="#1c1c1c" stroke="#2e2e2e" stroke-width="0.4"/>
  <path d="M 90.99 -249.86 L 111.46 -256.34 L 108.04 -260.30 L 133.50 -259.04 L 134.79 -270.44 L 109.78 -287.23 L 124.30 -294.22 L 137.01 -293.59 L 137.11 -300.73 L 163.48 -300.68 L 164.69 -313.67 L 181.09 -314.81 L 203.47 -306.46 L 216.68 -306.17 L 216.34 -292.45 L 220.40 -292.24 L 222.13 -279.19 L 230.59 -266.46 L 210.50 -262.55 L 211.37 -253.16 L 215.96 -251.62 L 212.51 -238.31 L 224.74 -239.02 L 215.79 -231.01 L 225.29 -220.00 L 220.32 -217.17 L 223.22 -213.63 L 192.28 -209.44 L 197.76 -210.90 L 193.98 -212.06 L 195.45 -218.29 L 183.14 -217.34 L 183.75 -222.90 L 171.60 -217.27 L 167.87 -210.99 L 151.45 -210.47 L 150.38 -200.90 L 143.64 -195.36 L 141.49 -202.96 L 149.73 -201.61 L 147.98 -217.48 L 132.78 -213.42 L 124.00 -219.11 L 111.40 -215.36 L 103.18 -223.85 L 95.09 -221.07 L 93.04 -215.92 L 87.38 -219.21 L 93.15 -220.54 L 89.74 -225.55 L 94.63 -223.65 L 100.98 -229.14 L 100.96 -235.84 L 89.75 -239.39 L 94.79 -248.37 L 90.99 -249.86 Z" fill="#1c1c1c" stroke="#2e2e2e" stroke-width="0.4"/>
  <path d="M 212.08 -259.65 L 212.08 -259.65 Z" fill="#1c1c1c" stroke="#2e2e2e" stroke-width="0.4"/>
  <path d="M 183.50 -252.83 L 179.69 -252.77 L 183.50 -252.83 Z" fill="#1c1c1c" stroke="#2e2e2e" stroke-width="0.4"/>
  <path d="M 112.19 -255.26 L 109.35 -254.12 L 112.33 -251.18 L 116.49 -253.48 L 114.36 -257.49 L 112.19 -255.26 Z" fill="#1c1c1c" stroke="#2e2e2e" stroke-width="0.4"/>
  <path d="M -25.09 -253.85 L -22.90 -262.08 L 37.94 -260.72 L 34.92 -252.09 L 43.14 -251.99 L 43.43 -242.86 L 51.92 -238.01 L 51.69 -233.45 L 45.73 -233.15 L 44.15 -240.04 L 25.28 -237.12 L 25.27 -233.25 L 14.94 -230.17 L 21.24 -226.55 L 6.33 -223.56 L 9.05 -207.41 L -6.77 -202.63 L -3.47 -206.17 L -21.26 -205.38 L -31.11 -216.33 L -29.58 -223.26 L -48.83 -227.10 L -48.40 -232.82 L -42.54 -232.14 L -41.16 -247.36 L -37.10 -247.44 L -37.28 -260.27 L -31.65 -256.56 L -33.67 -247.00 L -22.65 -251.13 L -32.29 -257.93 L -25.09 -253.85 Z" fill="#1c1c1c" stroke="#2e2e2e" stroke-width="0.4"/>
  <path d="M 221.42 -94.36 L 223.40 -84.12 L 227.99 -84.00 L 241.13 -86.34 L 244.34 -93.16 L 253.86 -95.28 L 258.94 -90.80 L 265.25 -97.71 L 267.71 -93.85 L 276.89 -96.36 L 278.89 -93.43 L 282.06 -94.95 L 279.62 -98.57 L 286.87 -98.53 L 292.13 -85.84 L 287.60 -73.38 L 297.30 -73.36 L 298.48 -67.28 L 289.19 -71.12 L 271.34 -64.74 L 269.46 -67.81 L 209.19 -67.78 L 208.01 -64.83 L 203.46 -67.76 L 200.47 -63.88 L 194.68 -67.67 L 163.51 -58.18 L 145.95 -59.74 L 152.27 -62.31 L 143.30 -63.33 L 143.61 -75.14 L 155.39 -76.75 L 148.30 -78.87 L 160.94 -84.48 L 157.51 -88.62 L 162.11 -92.62 L 157.46 -92.63 L 160.78 -102.78 L 162.22 -94.04 L 170.92 -92.35 L 169.36 -87.10 L 166.16 -88.00 L 168.00 -84.22 L 174.23 -85.49 L 172.38 -81.34 L 175.54 -81.09 L 175.43 -85.70 L 179.27 -85.01 L 180.15 -78.86 L 205.58 -81.60 L 207.36 -85.61 L 202.58 -85.64 L 203.21 -89.49 L 214.16 -88.21 L 214.24 -97.00 L 221.42 -94.36 Z" fill="#1c1c1c" stroke="#2e2e2e" stroke-width="0.4"/>
  <path d="M 453.12 -60.73 L 455.51 -62.35 L 461.12 -50.87 L 473.59 -39.98 L 496.47 -31.43 L 465.54 -20.52 L 435.96 1.19 L 428.60 13.16 L 426.78 -0.93 L 409.60 -5.94 L 409.69 -21.86 L 405.09 -23.21 L 410.47 -30.20 L 402.36 -39.62 L 430.16 -45.23 L 453.12 -60.73 Z" fill="#1c1c1c" stroke="#2e2e2e" stroke-width="0.4"/>
  <path d="M 322.42 -109.56 L 322.49 -103.32 L 295.82 -105.93 L 293.89 -99.65 L 289.33 -103.07 L 295.83 -107.20 L 292.85 -115.59 L 282.54 -110.18 L 264.58 -113.99 L 270.57 -119.68 L 278.54 -147.63 L 306.58 -149.53 L 326.28 -140.69 L 326.26 -143.76 L 343.75 -140.13 L 345.27 -143.44 L 360.05 -141.39 L 366.93 -144.58 L 377.93 -140.99 L 377.43 -128.26 L 367.90 -126.86 L 364.86 -118.07 L 331.65 -118.33 L 331.56 -109.82 L 322.42 -109.56 Z" fill="#1c1c1c" stroke="#2e2e2e" stroke-width="0.4"/>
  <path d="M 339.26 -139.69 L 337.54 -143.37 L 333.01 -141.92 L 339.26 -139.69 Z" fill="#1c1c1c" stroke="#2e2e2e" stroke-width="0.4"/>
  <path d="M 536.47 -258.48 L 533.41 -275.86 L 535.60 -273.61 L 539.29 -277.57 L 535.62 -283.37 L 545.39 -286.83 L 530.47 -296.02 L 573.73 -274.50 L 587.80 -275.89 L 605.90 -284.77 L 618.74 -284.52 L 632.85 -277.08 L 641.48 -262.82 L 636.34 -255.77 L 595.15 -232.51 L 578.23 -234.14 L 577.74 -227.49 L 526.35 -230.67 L 536.47 -258.48 Z" fill="#1c1c1c" stroke="#2e2e2e" stroke-width="0.4"/>
  <path d="M 403.41 -7.21 L 390.45 -10.28 L 383.06 -16.38 L 383.22 -23.38 L 374.93 -23.52 L 374.46 -37.16 L 378.96 -44.86 L 394.60 -50.20 L 408.94 -35.31 L 410.44 -28.49 L 405.09 -23.21 L 409.69 -21.86 L 409.60 -5.94 L 403.41 -7.21 Z" fill="#1c1c1c" stroke="#2e2e2e" stroke-width="0.4"/>
  <path d="M 116.45 -79.91 L 111.04 -89.73 L 122.45 -106.27 L 129.98 -91.32 L 134.77 -89.97 L 146.48 -91.83 L 152.75 -104.05 L 160.49 -104.21 L 157.46 -92.63 L 162.05 -90.38 L 157.51 -88.56 L 160.94 -84.48 L 148.30 -78.87 L 155.39 -76.75 L 143.54 -75.01 L 143.30 -63.33 L 152.23 -60.34 L 129.96 -61.36 L 130.52 -51.84 L 116.40 -45.46 L 141.04 -33.61 L 148.01 -42.90 L 166.18 -40.66 L 179.82 -50.62 L 173.04 -20.15 L 160.92 -19.65 L 155.01 -25.22 L 140.48 -27.77 L 113.72 -25.54 L 110.68 -17.50 L 115.94 -13.62 L 109.80 -8.13 L 101.99 -11.48 L 106.50 -12.92 L 108.13 -26.31 L 103.61 -34.98 L 81.39 -34.77 L 68.11 -45.56 L 64.29 -41.13 L 56.09 -44.01 L 56.71 -75.05 L 67.32 -82.80 L 74.06 -85.84 L 91.52 -71.75 L 99.24 -72.60 L 100.83 -64.54 L 122.18 -74.82 L 116.45 -79.91 Z" fill="#1c1c1c" stroke="#2e2e2e" stroke-width="0.4"/>
  <path d="M 169.45 -60.14 L 179.02 -63.59 L 182.28 -51.80 L 166.18 -40.66 L 148.01 -42.90 L 141.04 -33.61 L 116.40 -45.46 L 130.52 -51.84 L 129.96 -61.36 L 169.45 -60.14 Z" fill="#1c1c1c" stroke="#2e2e2e" stroke-width="0.4"/>
  <path d="M 439.71 -94.67 L 451.92 -91.53 L 460.35 -94.47 L 465.86 -86.80 L 448.02 -73.36 L 435.49 -78.26 L 438.38 -86.98 L 435.45 -92.05 L 439.71 -94.67 Z" fill="#1c1c1c" stroke="#2e2e2e" stroke-width="0.4"/>
  <path d="M 463.88 -104.62 L 467.51 -117.97 L 481.42 -116.66 L 478.59 -108.80 L 481.89 -104.80 L 492.21 -115.63 L 501.56 -114.81 L 500.85 -110.63 L 509.85 -107.60 L 530.60 -104.65 L 524.27 -98.03 L 527.32 -95.67 L 522.64 -88.50 L 523.38 -78.99 L 500.20 -79.88 L 497.83 -84.86 L 482.18 -85.87 L 480.98 -94.33 L 477.47 -94.54 L 482.14 -101.22 L 463.88 -104.62 Z" fill="#1c1c1c" stroke="#2e2e2e" stroke-width="0.4"/>
  <path d="M 484.57 -70.04 L 453.20 -72.61 L 465.86 -86.80 L 459.71 -90.98 L 461.93 -101.96 L 480.68 -102.71 L 477.47 -94.54 L 480.98 -94.33 L 482.12 -85.92 L 499.14 -84.41 L 497.17 -77.84 L 500.91 -73.57 L 496.37 -74.02 L 495.88 -68.83 L 484.57 -70.04 Z" fill="#1c1c1c" stroke="#2e2e2e" stroke-width="0.4"/>
  <path d="M 542.96 -78.68 L 524.03 -81.83 L 524.70 -98.94 L 554.40 -93.00 L 554.60 -89.29 L 555.94 -92.69 L 578.61 -87.73 L 561.67 -64.66 L 557.49 -69.89 L 560.41 -73.16 L 542.96 -78.68 Z" fill="#1c1c1c" stroke="#2e2e2e" stroke-width="0.4"/>
  <path d="M 383.59 452.51 L 357.70 436.22 L 375.76 425.79 L 366.19 406.84 L 357.81 411.02 L 351.50 408.09 L 347.39 394.75 L 358.57 380.03 L 348.26 375.32 L 349.43 368.56 L 341.56 368.53 L 343.17 347.49 L 328.12 344.61 L 326.63 352.65 L 310.95 341.81 L 302.81 341.66 L 302.77 337.96 L 293.71 337.92 L 293.88 333.79 L 268.62 333.58 L 268.46 327.35 L 261.08 327.13 L 260.67 307.95 L 248.84 307.90 L 258.90 306.89 L 255.40 301.74 L 259.88 298.90 L 260.96 281.02 L 255.25 281.81 L 250.77 275.51 L 261.70 271.45 L 262.80 245.51 L 274.32 246.93 L 286.55 235.82 L 291.46 238.66 L 292.58 247.71 L 313.77 244.52 L 320.48 248.49 L 310.10 238.75 L 313.70 234.96 L 320.59 243.15 L 340.18 238.89 L 358.96 240.38 L 361.49 248.95 L 366.44 249.74 L 359.72 250.03 L 360.03 257.19 L 369.55 260.15 L 370.22 251.48 L 376.80 252.10 L 379.41 241.62 L 392.89 244.54 L 402.96 235.40 L 404.39 247.57 L 389.27 247.52 L 383.94 249.08 L 386.55 255.27 L 377.73 254.29 L 386.69 267.19 L 384.44 277.55 L 387.81 277.46 L 379.88 281.67 L 378.54 288.50 L 397.94 281.93 L 401.70 274.71 L 415.34 276.91 L 442.18 306.20 L 476.99 318.97 L 490.39 329.40 L 487.73 331.10 L 500.98 349.33 L 492.46 351.08 L 482.86 362.55 L 461.90 374.54 L 468.73 393.18 L 440.11 388.57 L 420.76 399.63 L 432.66 416.05 L 428.61 434.24 L 432.53 440.94 L 427.84 444.44 L 450.44 444.44 L 454.39 453.48 L 454.12 465.35 L 440.89 468.40 L 440.39 476.50 L 452.10 478.25 L 466.49 472.84 L 489.69 477.91 L 469.53 489.59 L 466.61 486.14 L 460.46 487.79 L 456.55 495.04 L 445.82 483.57 L 429.16 474.41 L 416.92 473.28 L 383.59 452.51 Z" fill="#1c1c1c" stroke="#2e2e2e" stroke-width="0.4"/>
  <path d="M 274.35 300.64 L 290.45 298.75 L 300.68 290.58 L 274.35 300.64 Z" fill="#1c1c1c" stroke="#2e2e2e" stroke-width="0.4"/>
  <path d="M 358.96 240.38 L 348.67 239.31 L 377.25 229.43 L 382.73 232.81 L 384.46 222.03 L 391.61 221.69 L 394.33 216.21 L 399.81 218.09 L 402.96 235.40 L 392.89 244.54 L 379.41 241.62 L 377.98 248.75 L 370.22 251.48 L 369.55 260.15 L 360.03 257.19 L 359.72 250.03 L 366.44 249.74 L 361.49 248.95 L 358.96 240.38 Z" fill="#1c1c1c" stroke="#2e2e2e" stroke-width="0.4"/>
  <path d="M -124.14 -280.76 L -134.37 -280.92 L -134.65 -268.01 L -108.38 -262.17 L -122.25 -264.44 L -124.76 -248.24 L -120.62 -247.36 L -121.55 -242.62 L -116.33 -243.04 L -119.65 -234.73 L -104.80 -233.48 L -99.50 -208.97 L -125.97 -208.42 L -126.23 -200.64 L -116.71 -198.10 L -114.34 -187.40 L -108.96 -187.62 L -108.43 -182.49 L -99.96 -181.03 L -99.98 -173.73 L -94.13 -173.43 L -120.65 -165.34 L -124.22 -160.55 L -114.94 -149.72 L -121.39 -143.12 L -117.23 -128.19 L -137.51 -146.65 L -151.05 -146.46 L -151.25 -153.15 L -162.38 -161.80 L -162.65 -166.66 L -178.72 -166.72 L -184.08 -201.65 L -162.21 -204.69 L -161.47 -249.73 L -184.26 -259.05 L -184.25 -264.97 L -175.14 -264.89 L -175.12 -275.22 L -198.58 -281.30 L -195.42 -293.05 L -204.61 -297.01 L -197.30 -297.58 L -198.17 -308.97 L -187.37 -316.23 L -182.20 -314.40 L -174.20 -322.61 L -191.08 -323.19 L -189.17 -333.16 L -158.03 -329.92 L -157.44 -342.97 L -150.55 -344.62 L -134.51 -335.43 L -106.25 -340.26 L -103.36 -336.35 L -95.74 -337.00 L -95.97 -329.05 L -81.80 -326.01 L -81.76 -322.25 L -99.47 -322.38 L -97.92 -319.05 L -105.35 -316.60 L -105.54 -309.60 L -97.35 -300.03 L -109.73 -292.38 L -106.32 -286.84 L -108.32 -277.95 L -116.32 -280.58 L -114.10 -275.70 L -120.74 -274.29 L -119.72 -280.56 L -124.14 -280.76 Z" fill="#1c1c1c" stroke="#2e2e2e" stroke-width="0.4"/>
  <path d="M 101.52 -191.48 L 101.52 -191.48 Z" fill="#1c1c1c" stroke="#2e2e2e" stroke-width="0.4"/>
  <path d="M 93.19 -177.59 L 96.72 -179.68 L 91.24 -184.02 L 104.19 -192.26 L 92.29 -203.17 L 101.47 -205.73 L 92.92 -212.07 L 93.36 -215.05 L 103.84 -212.88 L 99.36 -221.19 L 102.35 -223.54 L 111.40 -215.36 L 124.00 -219.11 L 132.78 -213.42 L 147.98 -217.48 L 149.73 -201.61 L 141.49 -202.96 L 143.64 -195.36 L 150.38 -200.90 L 151.45 -210.47 L 167.87 -210.99 L 171.60 -217.27 L 184.95 -222.74 L 183.14 -217.34 L 195.45 -218.29 L 193.98 -212.06 L 197.71 -210.79 L 190.36 -210.93 L 198.14 -210.07 L 195.67 -204.83 L 200.76 -207.09 L 206.05 -195.86 L 201.51 -182.59 L 205.80 -180.31 L 200.37 -175.57 L 213.29 -148.81 L 178.75 -149.49 L 148.26 -157.62 L 125.13 -155.51 L 111.79 -149.69 L 107.96 -135.19 L 83.92 -126.18 L 79.19 -116.35 L 47.22 -106.07 L 53.41 -114.63 L 36.44 -120.60 L 29.25 -128.11 L 57.17 -137.53 L 55.69 -157.63 L 28.05 -157.40 L 13.72 -166.32 L 13.88 -170.55 L 47.61 -171.19 L 53.57 -176.30 L 46.80 -182.60 L 46.30 -192.34 L 52.20 -195.04 L 70.65 -183.20 L 93.19 -177.59 Z" fill="#1c1c1c" stroke="#2e2e2e" stroke-width="0.4"/>
  <path d="M 196.40 -88.03 L 209.37 -107.62 L 209.03 -114.45 L 203.29 -119.24 L 208.90 -130.09 L 199.75 -130.40 L 209.20 -133.29 L 209.50 -148.64 L 256.18 -154.66 L 261.17 -161.76 L 271.43 -156.53 L 279.73 -159.29 L 279.31 -153.68 L 289.44 -150.17 L 278.54 -147.63 L 270.57 -119.68 L 264.58 -113.99 L 282.54 -110.18 L 292.85 -115.59 L 295.83 -107.20 L 288.04 -98.52 L 279.62 -98.57 L 282.06 -94.95 L 278.89 -93.43 L 276.89 -96.36 L 267.71 -93.85 L 265.25 -97.71 L 258.94 -90.80 L 253.86 -95.28 L 244.34 -93.16 L 241.13 -86.34 L 227.99 -84.00 L 223.40 -84.12 L 220.51 -96.80 L 214.24 -97.00 L 214.16 -88.21 L 203.21 -89.49 L 202.58 -85.64 L 207.36 -85.61 L 205.58 -81.60 L 196.34 -82.26 L 196.40 -88.03 Z" fill="#1c1c1c" stroke="#2e2e2e" stroke-width="0.4"/>
  <path d="M 466.25 21.83 L 439.06 14.84 L 443.39 11.71 L 433.85 6.68 L 435.03 2.21 L 465.54 -20.52 L 496.13 -31.40 L 495.62 -18.25 L 508.58 -12.03 L 492.13 29.40 L 466.25 21.83 Z" fill="#1c1c1c" stroke="#2e2e2e" stroke-width="0.4"/>
  <path d="M 400.03 -45.57 L 386.60 -50.14 L 394.56 -52.56 L 396.90 -61.82 L 399.34 -76.39 L 391.61 -78.58 L 393.01 -87.30 L 407.87 -87.25 L 419.94 -78.81 L 427.95 -83.18 L 450.65 -73.92 L 448.56 -69.07 L 455.51 -62.35 L 430.57 -45.44 L 403.27 -39.97 L 400.03 -45.57 Z" fill="#1c1c1c" stroke="#2e2e2e" stroke-width="0.4"/>
  <path d="M 413.03 -251.26 L 402.94 -255.53 L 398.34 -250.65 L 384.86 -258.37 L 384.59 -255.41 L 381.21 -267.69 L 370.23 -263.10 L 334.31 -282.87 L 354.57 -284.36 L 395.63 -278.08 L 408.94 -283.07 L 429.18 -302.91 L 428.26 -298.74 L 433.47 -303.05 L 451.57 -294.21 L 454.76 -296.85 L 452.86 -290.14 L 462.39 -278.89 L 451.19 -268.87 L 450.47 -255.11 L 453.94 -253.22 L 448.50 -246.51 L 463.15 -230.03 L 440.31 -229.19 L 441.18 -234.44 L 432.18 -235.50 L 430.42 -245.29 L 413.03 -251.26 Z" fill="#1c1c1c" stroke="#2e2e2e" stroke-width="0.4"/>
  <path d="M 357.56 51.25 L 362.99 59.75 L 379.66 55.51 L 381.48 62.41 L 417.05 55.40 L 433.40 59.28 L 434.07 64.58 L 422.56 78.64 L 422.47 103.80 L 428.65 119.42 L 422.86 127.29 L 411.67 126.89 L 412.61 122.84 L 406.67 122.02 L 396.18 109.45 L 389.18 114.30 L 376.94 104.35 L 370.19 105.52 L 367.58 99.75 L 358.58 100.51 L 358.25 93.58 L 352.97 90.40 L 321.78 88.33 L 311.42 81.46 L 319.28 69.84 L 315.65 67.38 L 310.49 73.37 L 308.95 70.59 L 323.44 58.09 L 320.20 62.40 L 328.94 60.25 L 329.29 51.00 L 357.56 51.25 Z" fill="#1c1c1c" stroke="#2e2e2e" stroke-width="0.4"/>
  <path d="M 60.76 -188.46 L 40.68 -206.44 L 4.79 -203.32 L 9.43 -201.12 L -3.69 -199.87 L -3.65 -195.94 L -9.94 -198.84 L -8.81 -203.33 L 9.05 -207.41 L 6.33 -223.56 L 21.24 -226.55 L 14.94 -230.17 L 25.27 -233.25 L 25.28 -237.12 L 44.15 -240.04 L 45.73 -233.15 L 57.94 -232.65 L 67.66 -237.79 L 87.72 -239.75 L 93.33 -235.97 L 96.69 -239.51 L 100.98 -229.14 L 94.63 -223.65 L 89.74 -225.55 L 93.15 -220.54 L 87.38 -219.21 L 93.04 -215.92 L 99.36 -221.19 L 103.84 -212.88 L 93.36 -215.05 L 92.88 -209.76 L 96.97 -211.88 L 101.71 -206.56 L 92.29 -203.17 L 104.28 -192.78 L 91.24 -184.02 L 96.72 -179.68 L 93.12 -177.65 L 97.37 -177.22 L 60.76 -188.46 Z" fill="#1c1c1c" stroke="#2e2e2e" stroke-width="0.4"/>
  <path d="M 100.44 -192.89 L 103.27 -192.32 L 100.44 -192.89 Z" fill="#1c1c1c" stroke="#2e2e2e" stroke-width="0.4"/>
  <path d="M 184.33 -250.90 L 179.69 -252.77 L 184.33 -250.90 Z" fill="#1c1c1c" stroke="#2e2e2e" stroke-width="0.4"/>
  <path d="M 204.62 -189.63 L 200.76 -207.09 L 195.73 -206.69 L 223.22 -213.63 L 220.32 -217.17 L 225.29 -220.00 L 215.79 -231.01 L 224.74 -239.02 L 212.51 -238.31 L 215.96 -251.62 L 246.73 -246.68 L 294.51 -224.60 L 281.82 -210.18 L 248.01 -194.54 L 248.94 -164.74 L 238.24 -152.50 L 213.29 -148.81 L 200.37 -175.57 L 205.80 -180.31 L 201.52 -182.40 L 204.62 -189.63 Z" fill="#1c1c1c" stroke="#2e2e2e" stroke-width="0.4"/>
  <path d="M 0.44 -264.35 L -0.52 -268.27 L 3.07 -265.59 L 0.44 -264.35 Z" fill="#1c1c1c" stroke="#2e2e2e" stroke-width="0.4"/>
  <path d="M -108.39 -262.00 L -134.65 -268.01 L -134.37 -280.92 L -119.72 -280.56 L -120.46 -274.26 L -114.10 -275.70 L -116.32 -280.58 L -108.32 -277.95 L -106.32 -286.84 L -109.73 -292.38 L -97.35 -300.03 L -105.54 -309.60 L -105.35 -316.60 L -97.92 -319.05 L -99.47 -322.38 L -81.76 -322.25 L -81.80 -326.01 L -95.97 -329.05 L -95.54 -336.76 L -74.55 -338.75 L -64.25 -332.38 L -49.67 -334.53 L -44.46 -330.23 L -40.54 -331.32 L -42.37 -334.58 L -36.53 -328.93 L -21.16 -329.44 L -0.97 -302.17 L 23.11 -300.23 L 21.30 -277.90 L 13.13 -275.19 L 16.36 -270.31 L 5.62 -273.69 L -15.43 -266.52 L 12.38 -261.63 L -22.90 -262.08 L -25.14 -253.78 L -32.44 -257.78 L -22.65 -251.13 L -27.93 -246.33 L -33.67 -247.00 L -31.65 -256.56 L -37.28 -260.27 L -42.54 -232.14 L -48.62 -232.46 L -48.83 -227.10 L -29.43 -223.12 L -31.11 -216.33 L -23.44 -208.74 L -26.22 -207.80 L -3.47 -206.17 L -9.94 -198.84 L -3.65 -195.94 L -3.57 -189.10 L -21.73 -186.60 L -22.83 -177.67 L -28.11 -173.22 L -39.77 -171.57 L -39.52 -181.57 L -30.84 -187.87 L -45.31 -187.55 L -54.52 -174.81 L -73.65 -178.86 L -86.75 -174.30 L -90.20 -160.79 L -119.31 -150.90 L -124.22 -160.55 L -120.94 -165.18 L -94.13 -173.43 L -99.98 -173.73 L -99.96 -181.03 L -108.43 -182.49 L -108.96 -187.62 L -114.34 -187.40 L -116.71 -198.10 L -126.23 -200.64 L -125.97 -208.42 L -99.50 -208.97 L -104.80 -233.48 L -119.65 -234.73 L -116.33 -243.04 L -121.55 -242.62 L -120.62 -247.36 L -124.76 -248.24 L -122.25 -264.44 L -108.39 -262.00 Z" fill="#1c1c1c" stroke="#2e2e2e" stroke-width="0.4"/>
  <path d="M 419.90 55.52 L 394.98 60.30 L 399.40 49.07 L 431.08 14.70 L 433.85 6.68 L 443.39 11.71 L 439.06 14.84 L 492.13 29.40 L 476.55 80.42 L 428.65 119.42 L 422.47 103.80 L 422.30 80.69 L 433.85 60.58 L 419.90 55.52 Z" fill="#1c1c1c" stroke="#2e2e2e" stroke-width="0.4"/>
  <path d="M 487.62 -231.13 L 460.82 -232.52 L 448.50 -246.51 L 453.93 -253.15 L 450.33 -263.04 L 456.85 -277.02 L 469.79 -276.40 L 482.78 -265.04 L 504.84 -267.29 L 512.37 -274.86 L 515.22 -269.71 L 535.06 -270.99 L 536.64 -259.25 L 530.57 -244.17 L 499.62 -238.34 L 501.19 -235.10 L 495.81 -233.81 L 499.40 -230.96 L 487.62 -231.13 Z" fill="#1c1c1c" stroke="#2e2e2e" stroke-width="0.4"/>
  <path d="M 455.35 -291.49 L 454.76 -296.85 L 451.57 -294.21 L 433.47 -303.05 L 420.19 -294.41 L 433.07 -332.67 L 442.81 -339.47 L 454.54 -341.01 L 474.05 -335.89 L 500.49 -311.61 L 545.39 -286.83 L 535.71 -283.53 L 539.29 -277.57 L 535.60 -273.61 L 533.41 -275.91 L 534.04 -270.46 L 515.22 -269.71 L 512.37 -274.86 L 504.84 -267.29 L 483.01 -265.02 L 471.04 -275.80 L 461.58 -277.19 L 455.35 -291.49 Z" fill="#1c1c1c" stroke="#2e2e2e" stroke-width="0.4"/>
  <path d="M 406.79 -149.87 L 410.03 -145.16 L 422.57 -150.49 L 421.73 -141.86 L 417.22 -141.30 L 422.55 -136.84 L 420.72 -130.68 L 413.71 -131.41 L 415.09 -127.41 L 409.25 -131.65 L 378.41 -130.24 L 377.93 -140.99 L 368.46 -143.73 L 364.65 -162.62 L 407.95 -154.71 L 409.96 -151.79 L 403.32 -151.05 L 406.79 -149.87 Z" fill="#1c1c1c" stroke="#2e2e2e" stroke-width="0.4"/>
  <path d="M 531.80 -114.69 L 512.18 -124.02 L 494.11 -126.73 L 494.77 -130.31 L 503.35 -140.87 L 518.97 -135.61 L 542.22 -125.21 L 535.59 -113.67 L 531.80 -114.69 Z" fill="#1c1c1c" stroke="#2e2e2e" stroke-width="0.4"/>
  <path d="M 523.14 -77.71 L 524.03 -81.83 L 556.94 -74.90 L 561.67 -64.66 L 543.12 -53.18 L 520.85 -56.99 L 522.21 -71.79 L 518.54 -72.12 L 522.23 -71.97 L 523.14 -77.71 Z" fill="#1c1c1c" stroke="#2e2e2e" stroke-width="0.4"/>
  <path d="M 145.14 93.10 L 156.15 98.82 L 166.83 90.08 L 193.25 89.48 L 188.51 85.28 L 198.10 76.46 L 196.25 61.63 L 203.55 56.82 L 211.39 55.67 L 215.97 63.22 L 219.32 58.92 L 229.73 59.23 L 233.79 67.30 L 245.73 58.00 L 254.50 71.48 L 265.47 73.09 L 265.30 90.67 L 278.45 95.33 L 275.76 112.95 L 283.03 109.19 L 278.63 120.56 L 281.76 126.33 L 276.63 134.29 L 277.87 129.07 L 264.96 128.70 L 262.60 156.38 L 260.27 146.97 L 247.22 150.41 L 241.29 143.82 L 221.22 142.88 L 226.44 148.39 L 215.63 164.33 L 206.46 163.35 L 205.08 156.69 L 191.51 163.14 L 192.11 150.35 L 174.24 150.07 L 174.71 136.58 L 179.63 136.65 L 171.02 127.98 L 150.07 125.43 L 151.48 119.19 L 146.22 115.97 L 147.61 119.90 L 134.77 118.31 L 132.63 123.20 L 128.98 123.32 L 129.06 117.15 L 96.45 123.64 L 76.97 118.99 L 84.81 102.68 L 84.62 106.83 L 91.32 107.06 L 102.92 94.72 L 115.45 100.05 L 113.09 94.94 L 124.32 95.07 L 126.39 87.64 L 131.68 91.00 L 133.07 79.89 L 149.52 82.29 L 155.65 87.57 L 145.14 93.10 Z" fill="#FFCC4D" fill-opacity="0.55" stroke="#FFCC4D" stroke-width="1.5" stroke-opacity="0.9"/>
</svg>