<svg xmlns="http://www.w3.org/2000/svg" viewBox="0 0 360 220" width="360" height="220">
  <rect width="360" height="220" fill="#0a0a0a"/>
  <path d="M 201.67 207.27 L 200.07 216.42 L 204.30 215.84 L 204.63 196.78 L 192.35 196.67 L 192.41 192.35 L 206.30 187.45 L 206.99 180.23 L 225.19 188.62 L 223.23 207.10 L 235.80 209.46 L 236.72 222.15 L 230.90 220.15 L 228.01 225.97 L 220.42 226.33 L 218.58 237.78 L 213.14 234.11 L 182.07 247.72 L 173.40 244.23 L 160.20 248.59 L 152.60 248.76 L 145.29 240.06 L 153.18 237.82 L 146.91 231.69 L 148.48 221.00 L 137.61 217.19 L 135.96 205.23 L 140.52 206.96 L 150.11 199.68 L 156.33 210.32 L 155.42 204.04 L 163.64 201.01 L 179.85 209.64 L 200.09 202.30 L 201.67 207.27 Z" fill="#1c1c1c" stroke="#2e2e2e" stroke-width="0.4"/>
  <path d="M 45.04 53.38 L 41.52 57.71 L 41.05 53.24 L 32.02 49.72 L 36.42 46.60 L 27.85 46.03 L 12.83 35.80 L 13.42 32.04 L 27.72 28.29 L 27.80 21.37 L 22.38 21.23 L 22.24 7.18 L 15.15 4.44 L 48.38 1.40 L 64.35 -17.38 L 99.35 -27.42 L 93.72 -17.44 L 95.44 1.48 L 103.73 2.67 L 104.41 7.47 L 96.73 7.46 L 95.40 12.45 L 104.86 17.80 L 114.94 13.75 L 131.48 36.60 L 118.56 50.18 L 119.38 80.09 L 111.31 78.93 L 93.90 86.86 L 94.08 68.19 L 82.44 66.49 L 74.09 52.66 L 60.44 62.04 L 56.13 53.47 L 45.04 53.38 Z" fill="#1c1c1c" stroke="#2e2e2e" stroke-width="0.4"/>
  <path d="M -243.17 -125.49 L -248.87 -122.58 L -260.02 -138.35 L -267.37 -135.77 L -266.86 -144.51 L -281.35 -130.27 L -285.89 -130.00 L -282.91 -136.79 L -287.99 -141.01 L -309.64 -138.37 L -316.63 -161.57 L -306.24 -172.00 L -283.56 -180.13 L -279.90 -194.49 L -265.99 -199.33 L -245.67 -195.03 L -236.06 -208.48 L -223.53 -210.92 L -220.57 -206.73 L -229.75 -202.20 L -230.02 -191.58 L -217.64 -193.34 L -212.03 -198.06 L -210.87 -207.54 L -194.85 -207.75 L -191.71 -221.63 L -175.25 -226.56 L -144.59 -228.61 L -123.38 -209.59 L -132.37 -216.50 L -138.63 -213.64 L -138.10 -203.29 L -130.91 -196.61 L -137.23 -191.18 L -173.16 -190.19 L -173.22 -186.01 L -158.01 -176.53 L -128.66 -176.78 L -127.08 -155.44 L -156.73 -145.44 L -149.10 -137.47 L -131.08 -131.13 L -151.47 -99.44 L -183.84 -105.22 L -195.77 -89.00 L -214.26 -95.77 L -214.30 -92.68 L -230.21 -92.80 L -214.20 -100.73 L -213.76 -118.11 L -201.97 -126.19 L -219.18 -123.24 L -222.14 -117.42 L -233.63 -118.46 L -243.17 -125.49 Z" fill="#1c1c1c" stroke="#2e2e2e" stroke-width="0.4"/>
  <path d="M 25.07 -77.24 L 28.24 -81.36 L 33.06 -78.25 L 34.32 -81.38 L 98.31 -81.42 L 100.31 -78.16 L 119.27 -84.93 L 129.13 -80.85 L 129.50 -84.70 L 139.94 -85.41 L 138.71 -76.26 L 144.69 -77.05 L 140.76 -73.61 L 145.64 -67.48 L 131.24 -56.49 L 106.87 -57.08 L 109.56 -53.37 L 96.04 -49.95 L 95.42 -40.94 L 86.49 -41.78 L 86.31 -36.68 L 72.25 -38.62 L 74.14 -30.84 L 50.19 -36.67 L 34.65 -22.48 L 21.20 -23.44 L -6.52 -32.93 L -1.54 -38.28 L 0.39 -57.50 L 5.60 -60.58 L 6.05 -72.07 L 1.30 -75.50 L 18.91 -81.27 L 25.07 -77.24 Z" fill="#1c1c1c" stroke="#2e2e2e" stroke-width="0.4"/>
  <path d="M 123.66 -85.01 L 116.65 -90.40 L 122.39 -100.34 L 118.68 -116.94 L 124.26 -115.22 L 126.30 -121.89 L 154.62 -119.11 L 154.54 -125.74 L 164.26 -126.01 L 164.35 -135.05 L 199.61 -134.78 L 202.77 -139.06 L 202.19 -106.28 L 207.27 -106.18 L 206.96 -91.79 L 182.72 -94.41 L 182.53 -85.19 L 157.93 -85.67 L 158.91 -70.36 L 152.21 -68.91 L 142.18 -68.93 L 144.69 -77.05 L 138.71 -76.26 L 139.94 -85.41 L 123.66 -85.01 Z" fill="#1c1c1c" stroke="#2e2e2e" stroke-width="0.4"/>
  <path d="M 202.36 -212.16 L 203.49 -220.42 L 212.81 -228.14 L 239.04 -224.15 L 238.88 -206.17 L 230.54 -196.82 L 199.55 -196.32 L 202.36 -212.16 Z" fill="#1c1c1c" stroke="#2e2e2e" stroke-width="0.4"/>
  <path d="M 308.47 -136.27 L 311.08 -146.92 L 326.63 -165.91 L 347.30 -159.88 L 337.47 -147.62 L 334.29 -128.23 L 324.74 -120.73 L 320.36 -124.93 L 323.37 -133.28 L 308.47 -136.27 Z" fill="#1c1c1c" stroke="#2e2e2e" stroke-width="0.4"/>
  <path d="M 34.95 181.17 L 31.69 187.22 L 24.99 181.57 L -4.88 174.21 L -10.17 179.83 L -24.44 181.81 L -24.79 197.16 L -35.40 196.14 L -41.80 193.51 L -43.67 184.44 L -51.40 187.72 L -51.19 177.25 L -62.06 176.48 L -62.08 164.73 L -71.39 163.88 L -79.49 154.07 L -67.46 149.72 L -71.91 142.11 L -77.92 139.32 L -86.71 142.77 L -94.93 135.85 L -111.49 135.58 L -116.02 127.88 L -112.32 122.13 L -97.07 119.05 L -85.38 121.86 L -50.76 114.97 L -50.84 121.52 L -46.97 121.40 L -44.69 116.20 L -31.06 117.90 L -32.59 113.70 L -26.96 117.14 L -28.45 123.76 L -6.20 126.47 L 2.93 135.67 L -2.29 135.61 L -2.79 149.93 L 16.18 150.22 L 15.46 163.77 L 29.95 156.95 L 31.42 164.03 L 41.16 165.06 L 51.10 153.63 L 44.74 167.65 L 35.98 167.65 L 34.95 181.17 Z" fill="#1c1c1c" stroke="#2e2e2e" stroke-width="0.4"/>
  <path d="M -136.01 335.41 L -175.80 296.45 L -158.25 207.55 L -150.39 214.93 L -147.25 212.41 L -151.37 200.54 L -132.64 200.88 L -134.03 191.91 L -148.32 194.37 L -145.87 187.00 L -151.95 178.53 L -145.54 149.68 L -131.56 155.49 L -138.88 142.25 L -116.05 127.99 L -111.49 135.58 L -94.93 135.85 L -86.71 142.77 L -77.92 139.32 L -71.91 142.11 L -67.46 149.72 L -79.49 154.07 L -71.39 163.88 L -62.08 164.73 L -62.06 176.48 L -51.19 177.25 L -51.40 187.72 L -43.67 184.44 L -41.80 193.51 L -24.79 197.16 L -24.80 186.04 L -16.67 188.78 L -7.63 196.35 L -5.62 206.86 L -10.73 209.57 L -23.26 198.72 L -30.92 198.05 L -26.59 213.51 L -36.28 220.02 L -34.24 228.07 L -46.51 227.14 L -55.31 234.94 L -75.77 228.68 L -88.52 236.47 L -87.03 242.92 L -76.79 248.48 L -80.93 252.48 L -74.98 252.70 L -64.52 264.44 L -64.89 270.69 L -80.20 268.90 L -65.50 287.96 L -56.43 287.43 L -68.85 300.87 L -77.09 319.73 L -112.02 321.22 L -116.96 329.41 L -125.06 330.24 L -133.10 338.22 L -136.01 335.41 Z" fill="#1c1c1c" stroke="#2e2e2e" stroke-width="0.4"/>
  <path d="M 279.08 -138.40 L 304.87 -133.44 L 308.51 -136.48 L 304.62 -120.16 L 257.68 -126.43 L 260.74 -144.80 L 274.15 -143.59 L 279.08 -138.40 Z" fill="#1c1c1c" stroke="#2e2e2e" stroke-width="0.4"/>
  <path d="M 273.94 -117.25 L 246.31 -117.72 L 248.03 -128.14 L 307.53 -119.91 L 302.58 -117.49 L 301.98 -109.24 L 296.00 -110.52 L 293.96 -106.65 L 274.38 -110.57 L 273.94 -117.25 Z" fill="#1c1c1c" stroke="#2e2e2e" stroke-width="0.4"/>
  <path d="M 157.16 -184.11 L 135.19 -191.01 L 120.35 -214.42 L 109.30 -211.35 L 113.04 -200.14 L 96.60 -204.19 L 87.03 -222.03 L 111.44 -232.57 L 125.07 -248.22 L 168.31 -232.90 L 166.06 -223.41 L 168.59 -227.28 L 177.36 -223.93 L 178.53 -213.89 L 200.82 -207.33 L 199.39 -182.08 L 186.43 -192.45 L 170.16 -193.99 L 162.90 -187.81 L 157.96 -189.50 L 157.16 -184.11 Z" fill="#1c1c1c" stroke="#2e2e2e" stroke-width="0.4"/>
  <path d="M 273.63 -206.32 L 236.29 -210.06 L 239.04 -224.15 L 227.93 -233.08 L 226.37 -240.24 L 257.75 -242.40 L 259.49 -257.27 L 264.89 -257.49 L 270.29 -248.41 L 290.28 -245.87 L 289.94 -230.04 L 280.99 -230.08 L 283.90 -225.86 L 279.88 -219.21 L 284.60 -214.63 L 295.09 -217.72 L 298.51 -205.90 L 282.65 -210.50 L 285.19 -205.18 L 273.63 -206.32 Z" fill="#1c1c1c" stroke="#2e2e2e" stroke-width="0.4"/>
  <path d="M 393.90 -206.42 L 388.75 -213.76 L 369.15 -208.31 L 371.07 -254.33 L 425.64 -250.95 L 426.16 -258.02 L 444.13 -256.29 L 431.30 -234.53 L 393.90 -206.42 Z" fill="#1c1c1c" stroke="#2e2e2e" stroke-width="0.4"/>
  <path d="M -56.33 316.89 L -36.34 314.47 L -16.02 321.39 L -16.52 328.68 L 31.06 330.14 L 40.78 325.05 L 46.86 314.53 L 43.91 299.60 L 49.66 281.72 L 45.26 279.64 L 78.82 283.03 L 83.23 289.80 L 89.29 288.97 L 88.14 307.95 L 83.39 310.97 L 87.10 316.43 L 76.43 317.50 L 88.99 317.56 L 89.41 337.93 L 97.25 338.15 L 97.42 344.77 L 124.24 344.99 L 124.06 349.38 L 133.68 349.42 L 133.72 353.35 L 142.37 353.51 L 159.02 365.02 L 160.60 356.48 L 176.58 359.54 L 174.87 381.88 L 183.23 381.91 L 181.99 389.09 L 192.93 394.09 L 181.06 409.72 L 185.43 423.88 L 192.12 426.99 L 201.02 422.56 L 211.18 442.68 L 192.01 453.75 L 135.14 465.91 L 132.03 463.07 L 135.45 453.68 L 116.95 449.91 L 116.80 453.75 L 110.39 454.80 L 115.29 470.42 L 85.88 477.16 L 84.18 467.85 L 52.89 461.89 L 49.56 475.38 L 37.64 483.10 L 37.37 488.22 L 23.03 491.49 L -22.18 487.37 L -6.73 479.44 L -15.53 455.66 L -6.85 425.25 L -56.87 412.63 L -93.89 421.66 L -81.80 404.34 L -70.75 402.47 L -133.10 338.22 L -125.06 330.24 L -116.83 329.32 L -112.02 321.22 L -56.33 316.89 Z" fill="#1c1c1c" stroke="#2e2e2e" stroke-width="0.4"/>
  <path d="M 131.48 36.60 L 114.94 13.75 L 104.86 17.80 L 104.46 14.32 L 96.57 14.67 L 96.73 7.46 L 104.41 7.47 L 103.73 2.67 L 95.53 1.86 L 94.92 -25.15 L 106.51 -27.15 L 114.00 -21.20 L 111.23 -26.65 L 112.76 -23.25 L 115.68 -29.92 L 134.05 -31.96 L 130.89 -36.11 L 165.04 -48.88 L 174.02 -33.44 L 172.21 -6.27 L 187.78 3.19 L 201.49 5.12 L 202.50 21.87 L 196.27 27.27 L 185.45 25.20 L 193.03 44.80 L 161.85 44.73 L 161.47 54.56 L 154.82 57.72 L 155.63 52.27 L 146.62 57.95 L 146.79 49.39 L 139.66 50.32 L 124.71 54.81 L 124.01 64.60 L 117.39 64.32 L 118.56 50.18 L 131.48 36.60 Z" fill="#1c1c1c" stroke="#2e2e2e" stroke-width="0.4"/>
  <path d="M 340.78 -188.85 L 323.84 -196.73 L 331.90 -216.69 L 327.38 -253.57 L 342.46 -254.64 L 338.65 -257.67 L 344.37 -259.04 L 342.69 -262.48 L 375.56 -268.66 L 371.13 -257.24 L 369.95 -208.53 L 353.87 -199.03 L 360.23 -192.29 L 356.68 -188.89 L 348.79 -183.76 L 340.78 -188.85 Z" fill="#1c1c1c" stroke="#2e2e2e" stroke-width="0.4"/>
  <path d="M 225.23 -147.68 L 246.74 -149.20 L 252.94 -144.69 L 251.47 -148.94 L 259.03 -148.15 L 257.68 -126.43 L 248.03 -128.14 L 245.62 -100.94 L 207.13 -99.28 L 207.27 -106.18 L 202.19 -106.28 L 202.84 -144.12 L 225.23 -147.68 Z" fill="#1c1c1c" stroke="#2e2e2e" stroke-width="0.4"/>
  <path d="M 279.08 -138.40 L 274.15 -143.59 L 259.07 -145.41 L 260.86 -154.70 L 255.21 -159.44 L 259.99 -160.04 L 261.71 -171.67 L 280.12 -169.68 L 284.87 -162.44 L 294.48 -162.32 L 313.74 -150.73 L 304.87 -133.44 L 279.08 -138.40 Z" fill="#1c1c1c" stroke="#2e2e2e" stroke-width="0.4"/>
  <path d="M 169.80 -161.63 L 172.43 -157.73 L 166.14 -159.13 L 169.80 -161.63 Z" fill="#1c1c1c" stroke="#2e2e2e" stroke-width="0.4"/>
  <path d="M 144.38 -162.65 L 146.30 -166.47 L 112.67 -170.81 L 109.58 -178.38 L 100.41 -175.62 L 94.75 -180.78 L 84.73 -178.87 L 84.21 -173.63 L 69.20 -174.01 L 76.52 -184.33 L 75.54 -215.97 L 87.03 -222.03 L 96.60 -204.19 L 113.04 -200.14 L 109.30 -211.35 L 120.35 -214.42 L 135.05 -191.13 L 150.30 -188.80 L 153.41 -183.21 L 170.16 -193.99 L 186.43 -192.45 L 199.39 -182.08 L 203.47 -162.76 L 178.81 -161.71 L 177.20 -158.20 L 171.38 -162.00 L 160.66 -158.73 L 160.53 -162.05 L 158.64 -158.80 L 144.38 -162.65 Z" fill="#1c1c1c" stroke="#2e2e2e" stroke-width="0.4"/>
  <path d="M 204.89 -255.29 L 195.73 -258.68 L 193.32 -268.45 L 190.68 -265.73 L 181.79 -274.99 L 178.82 -280.40 L 183.52 -280.20 L 164.03 -295.65 L 176.74 -303.89 L 205.31 -288.77 L 216.97 -293.64 L 220.56 -280.60 L 220.84 -283.74 L 235.16 -275.55 L 240.04 -280.73 L 269.22 -269.85 L 271.09 -259.46 L 280.65 -258.34 L 279.72 -252.77 L 284.74 -252.32 L 284.10 -248.63 L 270.29 -248.41 L 264.89 -257.49 L 259.49 -257.27 L 257.75 -242.40 L 247.86 -242.63 L 220.54 -244.34 L 204.89 -255.29 Z" fill="#1c1c1c" stroke="#2e2e2e" stroke-width="0.4"/>
  <path d="M 381.06 -153.03 L 375.73 -146.95 L 346.66 -158.99 L 349.37 -164.51 L 345.18 -169.88 L 370.68 -180.76 L 360.23 -192.29 L 365.77 -197.70 L 379.78 -190.81 L 381.54 -185.90 L 371.26 -180.04 L 379.82 -170.51 L 398.95 -165.81 L 386.21 -165.25 L 390.65 -160.44 L 381.06 -153.03 Z" fill="#1c1c1c" stroke="#2e2e2e" stroke-width="0.4"/>
  <path d="M 326.71 -83.78 L 338.60 -82.51 L 333.63 -68.74 L 327.62 -67.87 L 326.59 -61.45 L 315.36 -57.94 L 313.89 -52.93 L 288.48 -82.75 L 293.31 -88.30 L 326.71 -83.78 Z" fill="#1c1c1c" stroke="#2e2e2e" stroke-width="0.4"/>
  <path d="M 360.42 -63.72 L 365.09 -69.97 L 388.88 -65.88 L 352.21 -22.18 L 342.47 -24.54 L 336.75 -38.46 L 349.63 -46.76 L 348.15 -51.37 L 360.42 -63.72 Z" fill="#1c1c1c" stroke="#2e2e2e" stroke-width="0.4"/>
  <path d="M -81.62 245.40 L -88.98 237.28 L -78.85 229.28 L -56.81 231.54 L -55.31 234.94 L -46.51 227.14 L -33.83 227.78 L -36.28 220.02 L -26.59 213.51 L -30.92 198.05 L -6.27 208.95 L -7.63 196.35 L -24.80 186.04 L -24.44 181.81 L -10.17 179.83 L -4.73 174.22 L 33.42 187.24 L 35.98 167.65 L 44.74 167.65 L 51.10 153.63 L 52.64 148.14 L 47.10 142.29 L 68.40 143.29 L 74.70 150.28 L 88.56 146.63 L 89.09 160.74 L 82.65 165.04 L 89.26 175.59 L 110.47 179.05 L 105.25 190.87 L 109.92 193.19 L 134.23 195.29 L 137.61 217.19 L 148.48 221.00 L 146.91 231.69 L 153.18 237.82 L 141.46 244.08 L 152.49 254.43 L 145.36 250.21 L 122.52 253.57 L 121.67 243.98 L 116.47 240.97 L 103.48 252.77 L 91.24 251.26 L 86.50 283.10 L 67.92 284.64 L 60.44 279.54 L 45.26 279.64 L 49.66 281.72 L 43.91 299.60 L 46.86 314.53 L 40.78 325.05 L 31.06 330.14 L -16.52 328.68 L -16.02 321.39 L -36.34 314.47 L -47.67 318.62 L -72.64 315.73 L -68.85 300.87 L -56.43 287.43 L -65.50 287.96 L -80.30 268.74 L -63.89 268.13 L -67.86 259.12 L -80.93 252.48 L -76.70 248.70 L -81.62 245.40 Z" fill="#1c1c1c" stroke="#2e2e2e" stroke-width="0.4"/>
  <path d="M 36.18 -285.21 L 36.18 -285.21 Z" fill="#1c1c1c" stroke="#2e2e2e" stroke-width="0.4"/>
  <path d="M 69.75 -270.75 L 36.64 -278.21 L 35.72 -288.18 L 57.05 -292.34 L 48.06 -305.85 L 46.23 -319.71 L 41.91 -319.93 L 42.28 -334.50 L 28.25 -334.81 L 4.49 -343.67 L -24.67 -337.79 L -26.87 -351.22 L -12.20 -349.47 L -53.21 -363.76 L -40.95 -376.24 L -48.17 -380.32 L -51.47 -395.00 L -63.75 -413.31 L -57.63 -413.38 L -57.46 -405.66 L -31.18 -385.08 L -17.40 -367.61 L 24.11 -349.76 L 57.78 -353.79 L 99.67 -382.79 L 120.26 -405.25 L 124.29 -421.98 L 135.35 -437.31 L 156.40 -445.95 L 173.44 -444.02 L 173.44 -437.47 L 153.88 -428.13 L 173.31 -429.52 L 172.79 -399.74 L 149.07 -399.98 L 148.74 -378.21 L 162.94 -377.68 L 180.32 -388.85 L 218.05 -394.12 L 256.43 -390.42 L 250.88 -378.26 L 276.26 -383.46 L 283.28 -389.07 L 295.34 -387.73 L 294.39 -381.32 L 324.89 -378.42 L 320.40 -369.76 L 327.53 -362.37 L 320.08 -367.74 L 319.51 -363.42 L 294.82 -371.49 L 274.39 -365.12 L 259.59 -323.42 L 238.54 -306.05 L 167.17 -309.76 L 134.27 -274.11 L 124.91 -247.89 L 69.75 -270.75 Z" fill="#1c1c1c" stroke="#2e2e2e" stroke-width="0.4"/>
  <path d="M 296.76 -212.28 L 299.38 -216.30 L 311.20 -214.58 L 309.71 -211.06 L 328.87 -211.81 L 323.84 -196.73 L 340.89 -189.41 L 329.57 -169.40 L 307.30 -173.79 L 303.81 -192.43 L 299.77 -173.93 L 283.23 -183.32 L 282.44 -192.27 L 274.40 -193.41 L 277.00 -198.82 L 271.88 -192.43 L 275.58 -205.85 L 286.63 -205.96 L 282.65 -210.50 L 298.51 -205.90 L 296.76 -212.28 Z" fill="#1c1c1c" stroke="#2e2e2e" stroke-width="0.4"/>
  <path d="M 201.95 22.69 L 202.65 6.52 L 194.94 4.19 L 202.81 -4.42 L 194.19 -6.40 L 209.43 -15.87 L 226.43 -19.94 L 265.69 -9.98 L 265.89 4.04 L 270.42 5.38 L 236.45 42.46 L 231.59 54.61 L 217.25 56.85 L 215.32 49.53 L 198.88 54.26 L 193.64 50.62 L 185.45 25.20 L 196.27 27.27 L 201.95 22.69 Z" fill="#1c1c1c" stroke="#2e2e2e" stroke-width="0.4"/>
  <path d="M 174.34 -33.55 L 210.35 -51.23 L 210.30 -34.39 L 219.11 -34.24 L 218.93 -26.80 L 227.58 -19.82 L 218.92 -20.23 L 194.19 -6.40 L 202.81 -4.42 L 190.60 4.05 L 172.21 -6.27 L 174.34 -33.55 Z" fill="#1c1c1c" stroke="#2e2e2e" stroke-width="0.4"/>
  <path d="M 364.31 -75.19 L 365.09 -69.97 L 343.76 -43.16 L 313.89 -52.93 L 315.36 -57.94 L 326.59 -61.45 L 327.62 -67.87 L 333.63 -68.74 L 339.24 -88.01 L 344.06 -87.53 L 340.86 -96.01 L 367.93 -93.28 L 366.70 -85.83 L 362.81 -86.20 L 366.67 -85.64 L 364.31 -75.19 Z" fill="#1c1c1c" stroke="#2e2e2e" stroke-width="0.4"/>
  <path d="M 365.82 -207.13 L 388.75 -213.76 L 392.53 -206.78 L 398.67 -206.42 L 399.86 -189.94 L 422.52 -163.87 L 428.93 -146.45 L 416.72 -139.50 L 402.74 -163.32 L 379.82 -170.51 L 371.26 -180.04 L 381.54 -185.90 L 379.78 -190.81 L 365.77 -197.70 L 360.23 -192.29 L 353.87 -199.03 L 365.82 -207.13 Z" fill="#1c1c1c" stroke="#2e2e2e" stroke-width="0.4"/>
  <path d="M 212.96 255.50 L 210.26 258.01 L 212.96 255.50 Z" fill="#1c1c1c" stroke="#2e2e2e" stroke-width="0.4"/>
  <path d="M 220.58 283.82 L 222.79 274.28 L 213.27 260.58 L 222.64 261.62 L 219.87 255.05 L 225.52 253.40 L 241.58 253.45 L 253.21 284.60 L 238.13 282.46 L 234.73 289.93 L 215.90 297.71 L 215.17 290.19 L 223.97 285.19 L 220.58 283.82 Z" fill="#1c1c1c" stroke="#2e2e2e" stroke-width="0.4"/>
  <path d="M 197.00 151.34 L 201.56 141.59 L 217.73 147.27 L 212.36 156.09 L 222.25 146.32 L 224.33 160.92 L 220.38 163.07 L 226.74 162.08 L 237.67 170.61 L 235.80 209.46 L 223.23 207.10 L 225.19 188.62 L 206.99 180.23 L 206.30 187.45 L 192.41 192.35 L 192.35 196.67 L 204.63 196.78 L 201.24 216.30 L 200.72 202.26 L 179.85 209.64 L 163.64 201.01 L 155.42 204.04 L 156.15 210.28 L 150.11 199.68 L 136.67 205.86 L 134.23 195.29 L 105.25 190.87 L 110.47 179.05 L 93.31 178.70 L 82.65 165.04 L 93.14 153.32 L 93.53 127.24 L 107.24 127.63 L 103.46 131.69 L 107.52 135.13 L 131.99 139.83 L 131.20 153.56 L 139.94 144.95 L 147.05 147.82 L 172.67 143.28 L 197.00 151.34 Z" fill="#1c1c1c" stroke="#2e2e2e" stroke-width="0.4"/>
  <path d="M 207.12 160.74 L 197.98 161.30 L 207.12 160.74 Z" fill="#1c1c1c" stroke="#2e2e2e" stroke-width="0.4"/>
  <path d="M -33.68 89.43 L -21.99 95.51 L -10.66 86.23 L 17.39 85.60 L 12.37 81.14 L 22.54 71.77 L 20.58 56.02 L 28.34 50.91 L 36.66 49.70 L 41.52 57.71 L 45.08 53.14 L 56.13 53.47 L 60.44 62.04 L 73.12 52.16 L 82.44 66.49 L 94.08 68.19 L 93.90 86.86 L 107.86 91.80 L 105.00 110.52 L 112.72 106.52 L 108.05 118.60 L 111.37 124.72 L 105.93 133.17 L 107.24 127.63 L 93.53 127.24 L 91.04 156.62 L 88.56 146.63 L 74.70 150.28 L 68.40 143.29 L 47.10 142.29 L 52.64 148.14 L 41.16 165.06 L 31.42 164.03 L 29.95 156.95 L 15.55 163.81 L 16.18 150.22 L -2.79 149.93 L -2.29 135.61 L 2.93 135.67 L -6.20 126.47 L -28.45 123.76 L -26.96 117.14 L -32.54 113.72 L -31.06 117.90 L -44.69 116.20 L -46.97 121.40 L -50.84 121.52 L -50.76 114.97 L -85.38 121.86 L -106.07 116.92 L -97.75 99.61 L -97.94 104.02 L -90.83 104.26 L -78.51 91.16 L -65.21 96.82 L -67.71 91.38 L -55.79 91.53 L -53.59 83.64 L -47.98 87.20 L -46.50 75.41 L -29.03 77.96 L -22.53 83.57 L -33.68 89.43 Z" fill="#1c1c1c" stroke="#2e2e2e" stroke-width="0.4"/>
  <path d="M -42.65 -38.76 L -23.38 -36.25 L -16.93 -30.28 L 34.65 -22.48 L 49.16 -36.44 L 60.77 -36.84 L 72.42 -30.64 L 54.28 -24.56 L 51.43 -17.86 L 77.19 -20.95 L 63.62 -16.88 L 48.84 1.22 L 15.15 4.44 L 22.24 7.18 L 22.38 21.23 L 27.80 21.37 L 27.72 28.29 L 13.42 32.04 L 12.83 35.80 L 27.85 46.03 L 36.42 46.60 L 20.61 55.92 L 22.71 71.44 L 12.37 81.14 L 17.39 85.60 L -10.66 86.23 L -23.78 95.15 L -33.68 89.43 L -21.56 84.82 L -29.03 77.96 L -46.50 75.41 L -55.00 64.56 L -65.16 67.84 L -62.82 59.38 L -48.58 49.57 L -55.12 29.01 L -59.16 29.85 L -57.14 23.44 L -62.59 23.59 L -58.04 17.62 L -63.59 9.56 L -50.21 5.99 L -70.94 5.28 L -57.09 4.61 L -75.26 -0.51 L -73.00 -16.18 L -64.52 -24.80 L -70.80 -31.58 L -67.05 -36.53 L -42.65 -38.76 Z" fill="#1c1c1c" stroke="#2e2e2e" stroke-width="0.4"/>
  <path d="M -67.13 -280.98 L -64.07 -278.66 L -68.52 -276.11 L -71.65 -279.45 L -67.13 -280.98 Z" fill="#1c1c1c" stroke="#2e2e2e" stroke-width="0.4"/>
  <path d="M -169.55 -286.78 L -204.18 -292.40 L -181.83 -300.02 L -170.42 -296.43 L -173.85 -301.61 L -165.18 -304.48 L -163.57 -315.07 L -163.26 -328.19 L -188.82 -330.25 L -210.25 -359.21 L -202.09 -359.70 L -206.20 -366.84 L -203.83 -380.55 L -193.73 -383.11 L -200.28 -390.93 L -188.42 -397.03 L -171.99 -402.48 L -152.13 -399.36 L -139.02 -409.38 L -123.94 -410.38 L -118.82 -404.58 L -130.78 -395.49 L -119.64 -394.86 L -119.13 -388.68 L -109.15 -389.72 L -102.45 -382.68 L -94.24 -388.28 L -101.11 -393.23 L -111.34 -392.38 L -110.98 -396.64 L -100.77 -401.05 L -91.02 -395.30 L -78.70 -395.41 L -92.32 -411.19 L -63.75 -413.31 L -51.47 -395.00 L -48.17 -380.32 L -40.95 -376.24 L -53.21 -363.76 L -12.20 -349.47 L -27.63 -348.86 L -24.74 -337.82 L -13.10 -340.36 L -14.21 -328.67 L -42.21 -328.72 L -42.32 -321.14 L -55.81 -321.81 L -71.23 -314.39 L -44.68 -296.56 L -46.04 -284.46 L -73.08 -285.80 L -69.44 -281.59 L -93.38 -275.32 L -87.15 -273.13 L -92.50 -263.59 L -135.02 -256.89 L -132.67 -262.13 L -141.67 -267.28 L -141.99 -276.97 L -150.71 -277.08 L -147.51 -286.24 L -169.55 -286.78 Z" fill="#1c1c1c" stroke="#2e2e2e" stroke-width="0.4"/>
  <path d="M -188.84 -292.55 L -185.14 -288.72 L -188.84 -292.55 Z" fill="#1c1c1c" stroke="#2e2e2e" stroke-width="0.4"/>
  <path d="M 330.69 -170.74 L 340.40 -188.27 L 348.79 -183.76 L 360.23 -192.29 L 370.68 -180.76 L 345.18 -169.88 L 349.37 -164.51 L 346.44 -159.75 L 326.63 -165.91 L 330.69 -170.74 Z" fill="#1c1c1c" stroke="#2e2e2e" stroke-width="0.4"/>
  <path d="M 86.35 -37.51 L 86.49 -41.78 L 95.42 -40.94 L 96.04 -49.95 L 109.56 -53.37 L 106.87 -57.08 L 136.27 -58.02 L 127.74 -50.76 L 145.00 -46.87 L 144.00 -42.26 L 130.89 -36.11 L 134.05 -31.96 L 115.68 -29.92 L 112.76 -23.25 L 111.23 -26.65 L 114.00 -21.20 L 99.35 -27.42 L 51.56 -17.78 L 54.28 -24.56 L 74.14 -30.84 L 72.25 -38.62 L 86.35 -37.51 Z" fill="#1c1c1c" stroke="#2e2e2e" stroke-width="0.4"/>
  <path d="M 231.92 -91.41 L 236.21 -90.13 L 231.15 -65.23 L 174.63 -33.65 L 165.04 -48.88 L 144.00 -42.26 L 143.63 -49.13 L 127.74 -50.76 L 134.30 -54.07 L 136.27 -58.02 L 131.24 -56.49 L 135.93 -63.64 L 145.64 -67.48 L 142.30 -68.49 L 158.91 -70.36 L 157.93 -85.67 L 182.53 -85.19 L 182.72 -94.41 L 206.96 -91.79 L 207.13 -99.28 L 228.61 -97.52 L 231.92 -91.41 Z" fill="#1c1c1c" stroke="#2e2e2e" stroke-width="0.4"/>
  <path d="M 329.46 -229.37 L 330.22 -212.21 L 316.86 -210.01 L 307.37 -215.55 L 290.10 -216.13 L 291.79 -235.74 L 290.28 -245.87 L 283.73 -247.36 L 285.44 -255.27 L 297.27 -250.50 L 303.97 -253.65 L 301.49 -256.30 L 329.43 -254.84 L 329.46 -229.37 Z" fill="#1c1c1c" stroke="#2e2e2e" stroke-width="0.4"/>
  <path d="M 246.30 -117.56 L 274.08 -117.15 L 274.38 -110.57 L 279.08 -110.58 L 274.61 -107.34 L 277.67 -101.77 L 274.45 -94.84 L 266.60 -97.73 L 258.09 -93.09 L 250.11 -97.15 L 245.50 -101.08 L 246.30 -117.56 Z" fill="#1c1c1c" stroke="#2e2e2e" stroke-width="0.4"/>
  <path d="M -11.31 -101.52 L -6.31 -107.47 L -15.55 -109.26 L -17.39 -120.07 L -25.61 -119.89 L -32.26 -106.92 L -44.69 -104.94 L -49.78 -106.37 L -57.78 -122.25 L -69.91 -104.54 L -58.06 -88.86 L -80.74 -77.94 L -82.42 -86.50 L -90.61 -85.60 L -109.15 -100.56 L -127.58 -89.10 L -127.47 -126.65 L -103.71 -132.95 L -97.14 -144.63 L -73.16 -152.95 L -69.09 -168.35 L -54.93 -174.53 L -20.60 -176.00 L 2.00 -168.14 L 34.65 -167.24 L 34.33 -150.94 L 24.29 -147.87 L 34.01 -147.54 L 28.06 -136.02 L 34.16 -130.94 L 34.51 -123.68 L 25.80 -114.78 L 20.64 -93.15 L 3.48 -93.15 L 2.55 -99.67 L -4.76 -95.78 L -2.80 -100.19 L -11.31 -101.52 Z" fill="#1c1c1c" stroke="#2e2e2e" stroke-width="0.4"/>
  <path d="M 246.63 -173.13 L 199.39 -182.08 L 199.55 -196.32 L 230.54 -196.82 L 237.66 -209.89 L 274.14 -206.70 L 271.88 -192.43 L 277.00 -198.82 L 274.54 -193.10 L 282.44 -192.27 L 286.45 -181.73 L 280.12 -169.68 L 261.71 -171.67 L 246.25 -163.55 L 246.27 -168.62 L 240.43 -169.73 L 246.63 -173.13 Z" fill="#1c1c1c" stroke="#2e2e2e" stroke-width="0.4"/>
  <path d="M 280.12 -169.68 L 286.45 -181.73 L 299.77 -173.93 L 302.52 -176.39 L 303.42 -192.52 L 307.30 -173.79 L 329.57 -169.40 L 312.50 -148.65 L 294.48 -162.32 L 284.87 -162.44 L 280.12 -169.68 Z" fill="#1c1c1c" stroke="#2e2e2e" stroke-width="0.4"/>
  <path d="M 184.76 -213.85 L 178.37 -214.04 L 177.36 -223.93 L 168.59 -227.28 L 166.06 -223.41 L 168.31 -232.90 L 151.99 -238.75 L 152.89 -250.15 L 158.10 -251.77 L 153.70 -257.86 L 130.85 -264.13 L 134.27 -274.11 L 167.17 -309.76 L 179.06 -303.51 L 164.03 -295.65 L 183.52 -280.20 L 178.82 -280.40 L 183.41 -272.42 L 190.68 -265.73 L 193.32 -268.45 L 195.73 -258.68 L 218.35 -245.29 L 233.55 -243.29 L 226.37 -240.24 L 226.58 -235.45 L 237.87 -227.57 L 237.34 -224.63 L 212.81 -228.14 L 203.49 -220.42 L 200.82 -207.33 L 184.76 -213.85 Z" fill="#1c1c1c" stroke="#2e2e2e" stroke-width="0.4"/>
  <path d="M 348.39 -126.02 L 344.00 -126.88 L 344.75 -131.31 L 332.65 -133.95 L 336.84 -143.98 L 356.40 -140.96 L 379.94 -128.53 L 375.59 -120.53 L 348.39 -126.02 Z" fill="#1c1c1c" stroke="#2e2e2e" stroke-width="0.4"/>
  <path d="M -164.32 -5.83 L -172.84 -12.00 L -172.63 -19.14 L -167.69 -18.96 L -167.43 -34.23 L -176.94 -34.05 L -177.47 -39.78 L -187.59 -46.49 L -165.59 -53.71 L -163.32 -59.22 L -168.22 -69.35 L -164.48 -72.40 L -143.47 -66.48 L -149.13 -70.87 L -145.96 -75.99 L -151.10 -82.97 L -150.48 -92.81 L -142.03 -93.38 L -127.67 -81.87 L -128.24 -56.14 L -119.53 -53.08 L -115.47 -57.79 L -101.37 -46.33 L -77.67 -46.48 L -72.98 -37.36 L -74.71 -23.13 L -79.50 -21.61 L -71.21 -18.05 L -75.26 -0.51 L -57.09 4.61 L -70.94 5.28 L -50.21 5.99 L -63.59 9.56 L -58.04 17.62 L -62.59 23.59 L -57.14 23.44 L -59.16 29.85 L -55.12 29.01 L -48.58 49.57 L -62.82 59.38 L -65.16 67.84 L -55.00 64.56 L -46.50 75.41 L -47.98 87.20 L -53.59 83.64 L -55.79 91.53 L -67.71 91.38 L -67.09 97.48 L -71.24 91.30 L -78.51 91.16 L -90.83 104.26 L -97.94 104.02 L -100.90 87.87 L -129.15 91.91 L -163.07 82.76 L -177.85 84.61 L -150.22 62.00 L -168.40 46.63 L -178.11 46.60 L -179.21 53.01 L -184.49 53.36 L -180.55 63.99 L -185.92 64.14 L -185.67 69.31 L -179.49 79.07 L -199.29 77.18 L -198.17 64.64 L -219.77 55.03 L -214.82 48.52 L -195.11 42.31 L -207.33 46.18 L -209.44 29.07 L -214.97 26.64 L -222.74 30.27 L -224.57 27.04 L -187.77 19.97 L -191.66 19.54 L -191.56 15.69 L -187.69 17.29 L -189.54 3.50 L -164.32 -5.83 Z" fill="#1c1c1c" stroke="#2e2e2e" stroke-width="0.4"/>
  <path d="M -91.18 -274.70 L -69.44 -281.59 L -73.08 -285.80 L -46.04 -284.46 L -44.68 -296.56 L -71.23 -314.39 L -55.81 -321.81 L -42.32 -321.14 L -42.21 -328.72 L -14.21 -328.67 L -12.93 -342.46 L 4.49 -343.67 L 28.25 -334.81 L 42.28 -334.50 L 41.91 -319.93 L 46.23 -319.71 L 48.06 -305.85 L 57.05 -292.34 L 35.72 -288.18 L 36.64 -278.21 L 41.51 -276.58 L 37.84 -262.44 L 50.84 -263.20 L 41.33 -254.70 L 51.42 -243.01 L 46.15 -240.00 L 49.22 -236.24 L 16.37 -231.79 L 22.19 -233.35 L 18.18 -234.57 L 19.73 -241.19 L 6.67 -240.18 L 7.31 -246.08 L -5.59 -240.11 L -9.55 -233.44 L -26.99 -232.88 L -28.12 -222.73 L -35.27 -216.84 L -37.56 -224.91 L -28.81 -223.48 L -30.67 -240.33 L -46.81 -236.01 L -56.13 -242.06 L -69.51 -238.08 L -78.24 -247.09 L -86.82 -244.14 L -89.01 -238.68 L -95.02 -242.16 L -88.88 -243.57 L -92.51 -248.90 L -87.32 -246.88 L -80.58 -252.71 L -80.60 -259.83 L -92.50 -263.59 L -87.15 -273.13 L -91.18 -274.70 Z" fill="#1c1c1c" stroke="#2e2e2e" stroke-width="0.4"/>
  <path d="M 37.39 -285.11 L 37.39 -285.11 Z" fill="#1c1c1c" stroke="#2e2e2e" stroke-width="0.4"/>
  <path d="M 7.05 -277.86 L 3.00 -277.80 L 7.05 -277.86 Z" fill="#1c1c1c" stroke="#2e2e2e" stroke-width="0.4"/>
  <path d="M -68.66 -280.44 L -71.68 -279.23 L -68.52 -276.11 L -64.11 -278.55 L -66.36 -282.81 L -68.66 -280.44 Z" fill="#1c1c1c" stroke="#2e2e2e" stroke-width="0.4"/>
  <path d="M -214.43 -278.94 L -212.10 -287.69 L -147.51 -286.24 L -150.71 -277.08 L -141.99 -276.97 L -141.67 -267.28 L -132.67 -262.13 L -132.91 -257.29 L -139.23 -256.97 L -140.91 -264.28 L -160.95 -261.18 L -160.96 -257.08 L -171.93 -253.80 L -165.24 -249.96 L -181.06 -246.79 L -178.18 -229.64 L -194.98 -224.56 L -191.48 -228.32 L -210.36 -227.48 L -220.82 -239.11 L -219.20 -246.47 L -239.63 -250.54 L -239.18 -256.62 L -232.96 -255.89 L -231.50 -272.06 L -227.18 -272.14 L -227.38 -285.76 L -221.39 -281.82 L -223.54 -271.68 L -211.83 -276.06 L -222.08 -283.28 L -214.43 -278.94 Z" fill="#1c1c1c" stroke="#2e2e2e" stroke-width="0.4"/>
  <path d="M 47.31 -109.61 L 49.41 -98.73 L 54.28 -98.60 L 68.23 -101.09 L 71.64 -108.33 L 81.75 -110.58 L 87.15 -105.83 L 93.84 -113.16 L 96.46 -109.06 L 106.20 -111.72 L 108.33 -108.62 L 111.69 -110.24 L 109.11 -114.07 L 116.80 -114.03 L 122.39 -100.56 L 117.57 -87.33 L 127.87 -87.30 L 129.13 -80.85 L 119.27 -84.93 L 100.31 -78.16 L 98.31 -81.42 L 34.32 -81.38 L 33.06 -78.25 L 28.24 -81.36 L 25.07 -77.24 L 18.91 -81.27 L -14.18 -71.18 L -32.82 -72.84 L -26.11 -75.57 L -35.64 -76.66 L -35.31 -89.19 L -22.81 -90.91 L -30.32 -93.16 L -16.90 -99.11 L -20.55 -103.51 L -15.67 -107.76 L -20.60 -107.77 L -17.08 -118.55 L -15.55 -109.26 L -6.31 -107.47 L -7.96 -101.90 L -11.36 -102.86 L -9.42 -98.84 L -2.80 -100.19 L -4.76 -95.78 L -1.40 -95.51 L -1.52 -100.41 L 2.55 -99.67 L 3.48 -93.15 L 30.49 -96.06 L 32.38 -100.32 L 27.31 -100.34 L 27.97 -104.43 L 39.60 -103.07 L 39.68 -112.41 L 47.31 -109.61 Z" fill="#1c1c1c" stroke="#2e2e2e" stroke-width="0.4"/>
  <path d="M 293.32 -73.90 L 295.86 -75.62 L 301.81 -63.42 L 315.06 -51.86 L 339.34 -42.79 L 306.51 -31.20 L 275.10 -8.16 L 267.28 4.55 L 265.36 -10.41 L 247.11 -15.72 L 247.21 -32.63 L 242.32 -34.06 L 248.03 -41.48 L 239.42 -51.49 L 268.94 -57.44 L 293.32 -73.90 Z" fill="#1c1c1c" stroke="#2e2e2e" stroke-width="0.4"/>
  <path d="M 154.54 -125.74 L 154.62 -119.11 L 126.30 -121.89 L 124.26 -115.22 L 119.41 -118.86 L 126.31 -123.24 L 123.15 -132.14 L 112.20 -126.40 L 93.14 -130.45 L 99.49 -136.49 L 107.96 -166.16 L 137.73 -168.18 L 158.64 -158.80 L 158.62 -162.05 L 177.20 -158.20 L 178.81 -161.71 L 194.51 -159.54 L 201.81 -162.93 L 213.49 -159.12 L 212.96 -145.60 L 202.84 -144.12 L 199.61 -134.78 L 164.35 -135.05 L 164.26 -126.01 L 154.54 -125.74 Z" fill="#1c1c1c" stroke="#2e2e2e" stroke-width="0.4"/>
  <path d="M 172.43 -157.73 L 170.60 -161.64 L 165.79 -160.11 L 172.43 -157.73 Z" fill="#1c1c1c" stroke="#2e2e2e" stroke-width="0.4"/>
  <path d="M 381.82 -283.86 L 378.57 -302.32 L 380.90 -299.93 L 384.81 -304.13 L 380.91 -310.29 L 391.29 -313.96 L 375.45 -323.72 L 421.38 -300.88 L 436.32 -302.35 L 455.54 -311.78 L 469.18 -311.51 L 484.15 -303.61 L 493.32 -288.47 L 487.86 -280.98 L 444.13 -256.29 L 426.16 -258.02 L 425.64 -250.95 L 371.07 -254.33 L 381.82 -283.86 Z" fill="#1c1c1c" stroke="#2e2e2e" stroke-width="0.4"/>
  <path d="M 240.54 -17.07 L 226.78 -20.33 L 218.93 -26.80 L 219.11 -34.24 L 210.30 -34.39 L 209.80 -48.87 L 214.58 -57.04 L 231.18 -62.72 L 246.41 -46.90 L 248.00 -39.67 L 242.32 -34.06 L 247.21 -32.63 L 247.11 -15.72 L 240.54 -17.07 Z" fill="#1c1c1c" stroke="#2e2e2e" stroke-width="0.4"/>
  <path d="M -64.15 -94.26 L -69.89 -104.68 L -57.78 -122.25 L -49.78 -106.37 L -44.69 -104.94 L -32.26 -106.92 L -25.61 -119.89 L -17.39 -120.07 L -20.60 -107.77 L -15.72 -105.38 L -20.55 -103.45 L -16.90 -99.11 L -30.32 -93.16 L -22.81 -90.91 L -35.39 -89.05 L -35.64 -76.66 L -26.16 -73.48 L -49.80 -74.57 L -49.21 -64.45 L -64.20 -57.69 L -38.04 -45.10 L -30.63 -54.96 L -11.34 -52.58 L 3.14 -63.16 L -4.07 -30.81 L -16.93 -30.28 L -23.21 -36.19 L -38.63 -38.90 L -67.05 -36.53 L -70.27 -27.99 L -64.69 -23.88 L -71.21 -18.05 L -79.50 -21.61 L -74.71 -23.13 L -72.98 -37.36 L -77.78 -46.56 L -101.37 -46.33 L -115.47 -57.79 L -119.53 -53.08 L -128.24 -56.14 L -127.58 -89.10 L -116.31 -97.33 L -109.15 -100.56 L -90.61 -85.60 L -82.42 -86.50 L -80.74 -77.94 L -58.06 -88.86 L -64.15 -94.26 Z" fill="#1c1c1c" stroke="#2e2e2e" stroke-width="0.4"/>
  <path d="M -7.87 -73.27 L 2.29 -76.93 L 5.75 -64.41 L -11.34 -52.58 L -30.63 -54.96 L -38.04 -45.10 L -64.20 -57.69 L -49.21 -64.45 L -49.80 -74.57 L -7.87 -73.27 Z" fill="#1c1c1c" stroke="#2e2e2e" stroke-width="0.4"/>
  <path d="M 279.08 -109.93 L 292.05 -106.60 L 300.99 -109.72 L 306.84 -101.58 L 287.90 -87.31 L 274.61 -92.51 L 277.67 -101.77 L 274.55 -107.15 L 279.08 -109.93 Z" fill="#1c1c1c" stroke="#2e2e2e" stroke-width="0.4"/>
  <path d="M 304.74 -120.49 L 308.60 -134.67 L 323.37 -133.28 L 320.36 -124.93 L 323.87 -120.69 L 334.83 -132.19 L 344.75 -131.31 L 344.00 -126.88 L 353.56 -123.66 L 375.59 -120.53 L 368.86 -113.50 L 372.10 -110.99 L 367.13 -103.38 L 367.93 -93.28 L 343.31 -94.23 L 340.79 -99.52 L 324.18 -100.59 L 322.91 -109.58 L 319.18 -109.79 L 324.13 -116.89 L 304.74 -120.49 Z" fill="#1c1c1c" stroke="#2e2e2e" stroke-width="0.4"/>
  <path d="M 326.71 -83.78 L 293.40 -86.51 L 306.84 -101.58 L 300.32 -106.01 L 302.68 -117.67 L 322.58 -118.47 L 319.18 -109.79 L 322.91 -109.58 L 324.12 -100.64 L 342.18 -99.04 L 340.09 -92.06 L 344.06 -87.53 L 339.24 -88.01 L 338.72 -82.49 L 326.71 -83.78 Z" fill="#1c1c1c" stroke="#2e2e2e" stroke-width="0.4"/>
  <path d="M 388.72 -92.96 L 368.61 -96.30 L 369.32 -114.47 L 400.86 -108.15 L 401.07 -104.22 L 402.50 -107.83 L 426.56 -102.56 L 408.58 -78.07 L 404.14 -83.62 L 407.24 -87.10 L 388.72 -92.96 Z" fill="#1c1c1c" stroke="#2e2e2e" stroke-width="0.4"/>
  <path d="M 219.49 471.05 L 192.01 453.75 L 211.18 442.68 L 201.02 422.56 L 192.12 426.99 L 185.43 423.88 L 181.06 409.72 L 192.93 394.09 L 181.99 389.09 L 183.23 381.91 L 174.87 381.88 L 176.58 359.54 L 160.60 356.48 L 159.02 365.02 L 142.37 353.51 L 133.72 353.35 L 133.68 349.42 L 124.06 349.38 L 124.24 344.99 L 97.42 344.77 L 97.25 338.15 L 89.41 337.93 L 88.99 317.56 L 76.43 317.50 L 87.10 316.43 L 83.39 310.97 L 88.14 307.95 L 89.29 288.97 L 83.23 289.80 L 78.47 283.11 L 90.07 278.81 L 91.24 251.26 L 103.48 252.77 L 116.47 240.97 L 121.67 243.98 L 122.87 253.60 L 145.36 250.21 L 152.49 254.43 L 141.46 244.08 L 145.29 240.06 L 152.60 248.76 L 173.40 244.23 L 193.35 245.82 L 196.03 254.91 L 201.29 255.76 L 194.15 256.06 L 194.48 263.67 L 204.59 266.80 L 205.30 257.60 L 212.28 258.25 L 215.06 247.13 L 229.37 250.23 L 240.07 240.53 L 241.58 253.45 L 225.52 253.40 L 219.87 255.05 L 222.64 261.62 L 213.27 260.58 L 222.79 274.28 L 220.39 285.28 L 223.97 285.19 L 215.55 289.65 L 214.13 296.91 L 234.73 289.93 L 238.72 282.26 L 253.21 284.60 L 281.71 315.70 L 318.66 329.26 L 332.89 340.33 L 330.07 342.14 L 344.14 361.49 L 335.09 363.35 L 324.90 375.53 L 302.64 388.26 L 309.89 408.06 L 279.51 403.15 L 258.96 414.90 L 271.59 432.33 L 267.30 451.65 L 271.46 458.76 L 266.48 462.48 L 290.48 462.48 L 294.67 472.08 L 294.38 484.68 L 280.33 487.92 L 279.81 496.52 L 292.24 498.38 L 307.52 492.63 L 332.15 498.01 L 310.74 510.42 L 307.64 506.76 L 301.12 508.51 L 296.96 516.20 L 285.56 504.03 L 267.88 494.30 L 254.89 493.10 L 219.49 471.05 Z" fill="#1c1c1c" stroke="#2e2e2e" stroke-width="0.4"/>
  <path d="M 103.51 309.80 L 120.60 307.79 L 131.46 299.12 L 103.51 309.80 Z" fill="#1c1c1c" stroke="#2e2e2e" stroke-width="0.4"/>
  <path d="M 193.35 245.82 L 182.42 244.68 L 212.76 234.19 L 218.58 237.78 L 220.42 226.33 L 228.01 225.97 L 230.90 220.15 L 236.72 222.15 L 240.07 240.53 L 229.37 250.23 L 215.06 247.13 L 213.54 254.70 L 205.30 257.60 L 204.59 266.80 L 194.48 263.67 L 194.15 256.06 L 201.29 255.76 L 196.03 254.91 L 193.35 245.82 Z" fill="#1c1c1c" stroke="#2e2e2e" stroke-width="0.4"/>
  <path d="M -319.59 -307.52 L -330.46 -307.69 L -330.76 -293.98 L -302.86 -287.78 L -317.59 -290.19 L -320.25 -272.99 L -315.86 -272.06 L -316.85 -267.02 L -311.30 -267.47 L -314.83 -258.64 L -299.06 -257.32 L -293.44 -231.29 L -321.54 -230.71 L -321.82 -222.45 L -311.71 -219.76 L -309.19 -208.40 L -303.49 -208.62 L -302.92 -203.18 L -293.92 -201.62 L -293.95 -193.87 L -287.74 -193.56 L -315.89 -184.97 L -319.69 -179.88 L -309.83 -168.39 L -316.68 -161.37 L -312.26 -145.53 L -333.80 -165.13 L -348.17 -164.92 L -348.38 -172.03 L -360.20 -181.21 L -360.48 -186.37 L -377.55 -186.44 L -383.24 -223.52 L -360.02 -226.75 L -359.24 -274.57 L -383.43 -284.47 L -383.42 -290.76 L -373.74 -290.67 L -373.73 -301.64 L -398.64 -308.09 L -395.28 -320.57 L -405.04 -324.77 L -397.28 -325.38 L -398.21 -337.47 L -386.73 -345.18 L -381.24 -343.24 L -372.75 -351.95 L -390.68 -352.57 L -388.65 -363.16 L -355.58 -359.72 L -354.95 -373.57 L -347.64 -375.32 L -330.61 -365.57 L -300.60 -370.69 L -297.53 -366.54 L -289.44 -367.23 L -289.69 -358.79 L -274.64 -355.56 L -274.60 -351.57 L -293.40 -351.71 L -291.76 -348.17 L -299.65 -345.57 L -299.85 -338.14 L -291.15 -327.98 L -304.30 -319.85 L -300.67 -313.97 L -302.80 -304.53 L -311.29 -307.33 L -308.94 -302.14 L -315.99 -300.65 L -314.90 -307.30 L -319.59 -307.52 Z" fill="#1c1c1c" stroke="#2e2e2e" stroke-width="0.4"/>
  <path d="M -80.00 -212.73 L -80.00 -212.73 Z" fill="#1c1c1c" stroke="#2e2e2e" stroke-width="0.4"/>
  <path d="M -88.84 -197.98 L -85.09 -200.20 L -90.91 -204.80 L -77.16 -213.55 L -89.80 -225.13 L -80.05 -227.85 L -89.13 -234.59 L -88.67 -237.75 L -77.54 -235.44 L -82.29 -244.27 L -79.12 -246.77 L -69.51 -238.08 L -56.13 -242.06 L -46.81 -236.01 L -30.67 -240.33 L -28.81 -223.48 L -37.56 -224.91 L -35.27 -216.84 L -28.12 -222.73 L -26.99 -232.88 L -9.55 -233.44 L -5.59 -240.11 L 8.58 -245.92 L 6.67 -240.18 L 19.73 -241.19 L 18.18 -234.57 L 22.14 -233.23 L 14.33 -233.37 L 22.59 -232.46 L 19.97 -226.90 L 25.37 -229.30 L 30.98 -217.37 L 26.17 -203.29 L 30.73 -200.87 L 24.96 -195.83 L 38.68 -167.42 L 2.00 -168.14 L -30.37 -176.77 L -54.93 -174.53 L -69.09 -168.35 L -73.16 -152.95 L -98.68 -143.39 L -103.71 -132.95 L -137.65 -122.04 L -131.08 -131.13 L -149.10 -137.47 L -156.73 -145.44 L -127.08 -155.44 L -128.66 -176.78 L -158.01 -176.53 L -173.22 -186.01 L -173.05 -190.50 L -137.23 -191.18 L -130.91 -196.61 L -138.10 -203.29 L -138.63 -213.64 L -132.37 -216.50 L -112.77 -203.93 L -88.84 -197.98 Z" fill="#1c1c1c" stroke="#2e2e2e" stroke-width="0.4"/>
  <path d="M 20.74 -102.88 L 34.51 -123.68 L 34.16 -130.94 L 28.06 -136.02 L 34.01 -147.54 L 24.29 -147.87 L 34.33 -150.94 L 34.65 -167.24 L 84.21 -173.63 L 89.51 -181.17 L 100.41 -175.62 L 109.22 -178.55 L 108.77 -172.59 L 119.53 -168.86 L 107.96 -166.16 L 99.49 -136.49 L 93.14 -130.45 L 112.20 -126.40 L 123.15 -132.14 L 126.31 -123.24 L 118.05 -114.02 L 109.11 -114.07 L 111.69 -110.24 L 108.33 -108.62 L 106.20 -111.72 L 96.46 -109.06 L 93.84 -113.16 L 87.15 -105.83 L 81.75 -110.58 L 71.64 -108.33 L 68.23 -101.09 L 54.28 -98.60 L 49.41 -98.73 L 46.34 -112.20 L 39.68 -112.41 L 39.60 -103.07 L 27.97 -104.43 L 27.31 -100.34 L 32.38 -100.32 L 30.49 -96.06 L 20.68 -96.76 L 20.74 -102.88 Z" fill="#1c1c1c" stroke="#2e2e2e" stroke-width="0.4"/>
  <path d="M 307.26 13.77 L 278.39 6.34 L 282.99 3.02 L 272.86 -2.32 L 274.12 -7.07 L 306.51 -31.20 L 338.99 -42.76 L 338.44 -28.79 L 352.21 -22.18 L 334.74 21.81 L 307.26 13.77 Z" fill="#1c1c1c" stroke="#2e2e2e" stroke-width="0.4"/>
  <path d="M 236.95 -57.80 L 222.69 -62.65 L 231.15 -65.23 L 233.63 -75.06 L 236.21 -90.52 L 228.01 -92.85 L 229.50 -102.11 L 245.28 -102.05 L 258.09 -93.09 L 266.60 -97.73 L 290.70 -87.90 L 288.48 -82.75 L 295.86 -75.62 L 269.38 -57.66 L 240.40 -51.85 L 236.95 -57.80 Z" fill="#1c1c1c" stroke="#2e2e2e" stroke-width="0.4"/>
  <path d="M 250.76 -276.20 L 240.04 -280.73 L 235.16 -275.55 L 220.84 -283.74 L 220.56 -280.60 L 216.97 -293.64 L 205.31 -288.77 L 167.17 -309.76 L 188.68 -311.34 L 232.28 -304.68 L 246.41 -309.97 L 267.90 -331.04 L 266.93 -326.61 L 272.46 -331.18 L 291.67 -321.80 L 295.06 -324.61 L 293.04 -317.48 L 303.16 -305.54 L 291.27 -294.89 L 290.51 -280.29 L 294.19 -278.27 L 288.41 -271.16 L 303.97 -253.65 L 279.72 -252.77 L 280.65 -258.34 L 271.09 -259.46 L 269.22 -269.85 L 250.76 -276.20 Z" fill="#1c1c1c" stroke="#2e2e2e" stroke-width="0.4"/>
  <path d="M 191.86 45.00 L 197.63 54.02 L 215.32 49.53 L 217.25 56.85 L 255.03 49.41 L 272.39 53.53 L 273.09 59.15 L 260.87 74.08 L 260.78 100.80 L 267.33 117.38 L 261.19 125.74 L 249.31 125.31 L 250.31 121.01 L 244.00 120.14 L 232.87 106.79 L 225.44 111.95 L 212.43 101.38 L 205.27 102.62 L 202.49 96.50 L 192.94 97.30 L 192.59 89.95 L 186.99 86.57 L 153.86 84.37 L 142.87 77.08 L 151.21 64.74 L 147.36 62.13 L 141.88 68.49 L 140.24 65.53 L 155.63 52.27 L 152.19 56.84 L 161.47 54.56 L 161.85 44.73 L 191.86 45.00 Z" fill="#1c1c1c" stroke="#2e2e2e" stroke-width="0.4"/>
  <path d="M -123.28 -209.52 L -144.59 -228.61 L -182.70 -225.30 L -177.78 -222.96 L -191.71 -221.63 L -191.67 -217.46 L -198.35 -220.54 L -197.15 -225.30 L -178.18 -229.64 L -181.06 -246.79 L -165.24 -249.96 L -171.93 -253.80 L -160.96 -257.08 L -160.95 -261.18 L -140.91 -264.28 L -139.23 -256.97 L -126.27 -256.44 L -115.95 -261.89 L -94.65 -263.97 L -88.69 -259.96 L -85.13 -263.72 L -80.58 -252.71 L -87.32 -246.88 L -92.51 -248.90 L -88.88 -243.57 L -95.02 -242.16 L -89.01 -238.68 L -82.29 -244.27 L -77.54 -235.44 L -88.67 -237.75 L -89.17 -232.13 L -84.83 -234.38 L -79.80 -228.74 L -89.80 -225.13 L -77.07 -214.11 L -90.91 -204.80 L -85.09 -200.20 L -88.92 -198.04 L -84.40 -197.58 L -123.28 -209.52 Z" fill="#1c1c1c" stroke="#2e2e2e" stroke-width="0.4"/>
  <path d="M -81.15 -214.22 L -78.14 -213.62 L -81.15 -214.22 Z" fill="#1c1c1c" stroke="#2e2e2e" stroke-width="0.4"/>
  <path d="M 7.93 -275.81 L 3.00 -277.80 L 7.93 -275.81 Z" fill="#1c1c1c" stroke="#2e2e2e" stroke-width="0.4"/>
  <path d="M 29.47 -210.76 L 25.37 -229.30 L 20.04 -228.87 L 49.22 -236.24 L 46.15 -240.00 L 51.42 -243.01 L 41.33 -254.70 L 50.84 -263.20 L 37.84 -262.44 L 41.51 -276.58 L 74.18 -271.33 L 124.91 -247.89 L 111.44 -232.57 L 75.54 -215.97 L 76.52 -184.33 L 65.16 -171.34 L 38.68 -167.42 L 24.96 -195.83 L 30.73 -200.87 L 26.18 -203.08 L 29.47 -210.76 Z" fill="#1c1c1c" stroke="#2e2e2e" stroke-width="0.4"/>
  <path d="M -187.32 -290.09 L -188.34 -294.26 L -184.53 -291.41 L -187.32 -290.09 Z" fill="#1c1c1c" stroke="#2e2e2e" stroke-width="0.4"/>
  <path d="M -302.87 -287.60 L -330.76 -293.98 L -330.46 -307.69 L -314.90 -307.30 L -315.69 -300.61 L -308.94 -302.14 L -311.29 -307.33 L -302.80 -304.53 L -300.67 -313.97 L -304.30 -319.85 L -291.15 -327.98 L -299.85 -338.14 L -299.65 -345.57 L -291.76 -348.17 L -293.40 -351.71 L -274.60 -351.57 L -274.64 -355.56 L -289.69 -358.79 L -289.24 -366.97 L -266.95 -369.09 L -256.01 -362.33 L -240.53 -364.61 L -235.00 -360.04 L -230.83 -361.20 L -232.78 -364.66 L -226.57 -358.66 L -210.25 -359.21 L -188.82 -330.25 L -163.26 -328.19 L -165.18 -304.48 L -173.85 -301.61 L -170.42 -296.43 L -181.83 -300.02 L -204.18 -292.40 L -174.65 -287.21 L -212.10 -287.69 L -214.48 -278.87 L -222.24 -283.12 L -211.83 -276.06 L -217.45 -270.96 L -223.54 -271.68 L -221.39 -281.82 L -227.38 -285.76 L -232.96 -255.89 L -239.41 -256.23 L -239.63 -250.54 L -219.04 -246.32 L -220.82 -239.11 L -212.68 -231.05 L -215.63 -230.05 L -191.48 -228.32 L -198.35 -220.54 L -191.67 -217.46 L -191.58 -210.20 L -210.87 -207.54 L -212.03 -198.06 L -217.64 -193.34 L -230.02 -191.58 L -229.75 -202.20 L -220.53 -208.89 L -235.90 -208.55 L -245.67 -195.03 L -265.99 -199.33 L -279.90 -194.49 L -283.56 -180.13 L -314.47 -169.63 L -319.69 -179.88 L -316.20 -184.79 L -287.74 -193.56 L -293.95 -193.87 L -293.92 -201.62 L -302.92 -203.18 L -303.49 -208.62 L -309.19 -208.40 L -311.71 -219.76 L -321.82 -222.45 L -321.54 -230.71 L -293.44 -231.29 L -299.06 -257.32 L -314.83 -258.64 L -311.30 -267.47 L -316.85 -267.02 L -315.86 -272.06 L -320.25 -272.99 L -317.59 -290.19 L -302.87 -287.60 Z" fill="#1c1c1c" stroke="#2e2e2e" stroke-width="0.4"/>
  <path d="M 258.05 49.54 L 231.59 54.61 L 236.28 42.69 L 269.92 6.19 L 272.86 -2.32 L 282.99 3.02 L 278.39 6.34 L 334.74 21.81 L 318.20 75.97 L 267.33 117.38 L 260.78 100.80 L 260.59 76.26 L 272.86 54.90 L 258.05 49.54 Z" fill="#1c1c1c" stroke="#2e2e2e" stroke-width="0.4"/>
  <path d="M 329.95 -254.83 L 301.49 -256.30 L 288.41 -271.16 L 294.18 -278.21 L 290.35 -288.70 L 297.28 -303.55 L 311.02 -302.89 L 324.82 -290.82 L 348.24 -293.21 L 356.24 -301.26 L 359.25 -295.78 L 380.32 -297.14 L 381.99 -284.68 L 375.56 -268.66 L 342.69 -262.48 L 344.37 -259.04 L 338.65 -257.67 L 342.46 -254.64 L 329.95 -254.83 Z" fill="#1c1c1c" stroke="#2e2e2e" stroke-width="0.4"/>
  <path d="M 295.69 -318.92 L 295.06 -324.61 L 291.67 -321.80 L 272.46 -331.18 L 258.35 -322.02 L 272.03 -362.63 L 282.37 -369.85 L 294.82 -371.49 L 315.55 -366.05 L 343.62 -340.27 L 391.29 -313.96 L 381.01 -310.46 L 384.81 -304.13 L 380.90 -299.93 L 378.57 -302.36 L 379.24 -296.59 L 359.25 -295.78 L 356.24 -301.26 L 348.24 -293.21 L 325.06 -290.81 L 312.35 -302.25 L 302.31 -303.72 L 295.69 -318.92 Z" fill="#1c1c1c" stroke="#2e2e2e" stroke-width="0.4"/>
  <path d="M 244.13 -168.54 L 247.57 -163.54 L 260.88 -169.20 L 259.99 -160.04 L 255.21 -159.44 L 260.86 -154.70 L 258.91 -148.16 L 251.47 -148.94 L 252.94 -144.69 L 246.74 -149.20 L 214.00 -147.70 L 213.49 -159.12 L 203.44 -162.02 L 199.39 -182.08 L 245.36 -173.69 L 247.50 -170.58 L 240.44 -169.80 L 244.13 -168.54 Z" fill="#1c1c1c" stroke="#2e2e2e" stroke-width="0.4"/>
  <path d="M 376.86 -131.19 L 356.03 -141.10 L 336.84 -143.98 L 337.54 -147.78 L 346.66 -158.99 L 363.24 -153.40 L 387.92 -142.36 L 380.88 -130.11 L 376.86 -131.19 Z" fill="#1c1c1c" stroke="#2e2e2e" stroke-width="0.4"/>
  <path d="M 367.66 -91.92 L 368.61 -96.30 L 403.56 -88.94 L 408.58 -78.07 L 388.88 -65.88 L 365.23 -69.92 L 366.67 -85.64 L 362.78 -85.99 L 366.70 -85.83 L 367.66 -91.92 Z" fill="#1c1c1c" stroke="#2e2e2e" stroke-width="0.4"/>
  <path d="M 177.55 144.13 L 146.63 147.83 L 139.94 144.95 L 131.20 153.56 L 132.91 140.52 L 105.93 133.17 L 111.37 124.72 L 108.05 118.60 L 112.72 106.52 L 105.00 110.52 L 107.86 91.80 L 98.81 90.93 L 98.95 86.29 L 111.31 78.93 L 119.38 80.09 L 117.31 64.49 L 124.01 64.60 L 124.71 54.81 L 146.79 49.39 L 146.62 57.95 L 140.24 65.53 L 142.83 68.33 L 148.01 62.09 L 151.25 65.80 L 144.70 78.82 L 168.54 87.22 L 186.99 86.57 L 192.59 89.95 L 192.94 97.30 L 202.49 96.50 L 205.27 102.62 L 212.43 101.38 L 225.44 111.95 L 232.87 106.79 L 244.00 120.14 L 250.31 121.01 L 249.31 125.31 L 261.19 125.74 L 237.67 170.61 L 226.74 162.08 L 220.38 163.07 L 224.33 160.92 L 222.25 146.32 L 212.36 156.09 L 217.73 147.27 L 214.91 144.22 L 201.34 141.65 L 197.24 151.84 L 177.55 144.13 Z" fill="#FFCC4D" fill-opacity="0.55" stroke="#FFCC4D" stroke-width="1.5" stroke-opacity="0.9"/>
  <path d="M 242.74 138.71 L 246.18 137.54 L 242.74 138.71 Z" fill="#FFCC4D" fill-opacity="0.55" stroke="#FFCC4D" stroke-width="1.5" stroke-opacity="0.9"/>
</svg>