<svg xmlns="http://www.w3.org/2000/svg" viewBox="0 0 360 220" width="360" height="220">
  <rect width="360" height="220" fill="#0a0a0a"/>
  <path d="M -204.02 933.92 L -206.68 949.17 L -199.64 948.20 L -199.09 916.46 L -219.54 916.27 L -219.44 909.08 L -196.30 900.91 L -195.15 888.88 L -164.83 902.85 L -168.10 933.64 L -147.16 937.57 L -145.63 958.72 L -155.32 955.39 L -160.13 965.08 L -172.78 965.69 L -175.84 984.75 L -184.90 978.65 L -236.67 1001.32 L -251.11 995.50 L -273.10 1002.77 L -285.75 1003.05 L -297.93 988.56 L -284.80 984.82 L -295.25 974.62 L -292.62 956.80 L -310.74 950.45 L -313.48 930.53 L -305.88 933.41 L -289.91 921.28 L -279.55 939.00 L -281.07 928.55 L -267.37 923.51 L -240.37 937.88 L -206.65 925.65 L -204.02 933.92 Z" fill="#1c1c1c" stroke="#2e2e2e" stroke-width="0.4"/>
  <path d="M -244.19 828.76 L -295.70 834.91 L -306.86 830.12 L -321.41 844.45 L -318.57 822.73 L -363.51 810.49 L -354.44 796.41 L -359.97 786.21 L -352.19 766.10 L -365.05 772.76 L -360.28 741.58 L -375.37 740.12 L -375.14 732.39 L -354.54 720.13 L -341.11 722.08 L -344.54 696.08 L -333.39 696.26 L -332.23 679.96 L -295.43 670.93 L -295.73 685.18 L -306.35 697.82 L -302.04 702.48 L -293.41 692.09 L -288.01 698.26 L -298.91 719.96 L -259.21 733.95 L -228.48 732.87 L -219.15 738.49 L -218.56 750.74 L -202.64 749.40 L -198.02 759.60 L -186.09 757.54 L -164.43 775.14 L -152.05 766.55 L -133.50 788.79 L -123.00 790.24 L -124.65 797.40 L -104.86 798.11 L -144.05 872.85 L -162.25 858.66 L -172.85 860.31 L -166.26 856.71 L -169.74 832.40 L -186.22 848.68 L -177.27 833.98 L -181.96 828.91 L -204.57 824.61 L -211.41 841.59 L -244.19 828.76 Z" fill="#1c1c1c" stroke="#2e2e2e" stroke-width="0.4"/>
  <path d="M -135.61 819.72 L -129.87 817.78 L -135.61 819.72 Z" fill="#1c1c1c" stroke="#2e2e2e" stroke-width="0.4"/>
  <path d="M -464.94 677.58 L -470.80 684.78 L -471.58 677.35 L -486.63 671.47 L -479.30 666.29 L -493.57 665.33 L -518.60 648.29 L -517.62 642.03 L -493.80 635.77 L -493.65 624.24 L -502.69 624.02 L -502.92 600.61 L -514.73 596.06 L -459.38 590.99 L -432.76 559.69 L -374.46 542.97 L -383.84 559.60 L -380.98 591.11 L -367.18 593.10 L -366.03 601.09 L -378.84 601.08 L -381.04 609.39 L -365.29 618.31 L -348.49 611.56 L -320.94 649.62 L -342.46 672.25 L -341.11 722.08 L -354.54 720.13 L -383.55 733.34 L -383.25 702.24 L -402.64 699.41 L -416.54 676.38 L -439.28 692.00 L -446.47 677.73 L -464.94 677.58 Z" fill="#1c1c1c" stroke="#2e2e2e" stroke-width="0.4"/>
  <path d="M -945.05 379.60 L -954.54 384.46 L -973.12 358.18 L -985.36 362.48 L -984.51 347.92 L -1008.65 371.65 L -1016.21 372.09 L -1011.25 360.79 L -1019.71 353.76 L -1055.77 358.15 L -1067.41 319.51 L -1050.10 302.13 L -1012.33 288.58 L -1006.23 264.67 L -983.07 256.60 L -949.22 263.77 L -933.20 241.36 L -912.33 237.30 L -907.40 244.28 L -922.70 251.82 L -923.13 269.51 L -902.51 266.58 L -893.18 258.71 L -891.23 242.92 L -864.55 242.58 L -859.33 219.45 L -831.90 211.25 L -780.83 207.83 L -745.49 239.52 L -760.47 228.00 L -770.90 232.76 L -770.02 250.00 L -758.04 261.14 L -768.58 270.18 L -828.42 271.83 L -828.53 278.79 L -803.19 294.58 L -754.29 294.16 L -751.67 329.71 L -801.05 346.37 L -788.33 359.66 L -758.32 370.21 L -792.28 423.00 L -846.21 413.38 L -866.09 440.39 L -896.89 429.12 L -896.96 434.27 L -923.45 434.06 L -896.79 420.86 L -896.05 391.90 L -876.42 378.44 L -905.08 383.35 L -910.02 393.06 L -929.15 391.32 L -945.05 379.60 Z" fill="#1c1c1c" stroke="#2e2e2e" stroke-width="0.4"/>
  <path d="M -498.21 459.98 L -492.92 453.11 L -484.89 458.30 L -482.80 453.08 L -376.19 453.03 L -372.87 458.45 L -341.29 447.17 L -324.86 453.96 L -324.23 447.56 L -306.85 446.37 L -308.90 461.62 L -298.94 460.30 L -305.48 466.03 L -297.36 476.23 L -321.34 494.54 L -361.94 493.56 L -357.45 499.75 L -379.97 505.45 L -381.02 520.45 L -395.89 519.05 L -396.19 527.54 L -419.61 524.32 L -416.46 537.28 L -456.36 527.57 L -482.25 551.21 L -504.64 549.60 L -550.82 533.79 L -542.54 524.89 L -539.31 492.87 L -530.64 487.73 L -529.89 468.60 L -537.80 462.88 L -508.46 453.27 L -498.21 459.98 Z" fill="#1c1c1c" stroke="#2e2e2e" stroke-width="0.4"/>
  <path d="M -333.97 447.04 L -345.64 438.06 L -336.09 421.51 L -342.26 393.85 L -332.97 396.71 L -329.56 385.61 L -282.39 390.23 L -282.52 379.18 L -266.34 378.73 L -266.19 363.68 L -207.45 364.13 L -202.19 357.00 L -203.16 411.61 L -194.69 411.77 L -195.20 435.74 L -235.58 431.38 L -235.91 446.75 L -276.88 445.93 L -275.25 471.44 L -286.40 473.86 L -303.13 473.82 L -298.94 460.30 L -308.90 461.62 L -306.85 446.37 L -333.97 447.04 Z" fill="#1c1c1c" stroke="#2e2e2e" stroke-width="0.4"/>
  <path d="M -202.87 235.24 L -200.98 221.48 L -185.47 208.62 L -141.76 215.26 L -142.03 245.20 L -155.92 260.78 L -207.56 261.62 L -202.87 235.24 Z" fill="#1c1c1c" stroke="#2e2e2e" stroke-width="0.4"/>
  <path d="M -26.11 361.65 L -21.76 343.91 L 4.14 312.28 L 38.58 322.33 L 22.21 342.75 L 16.90 375.04 L 1.00 387.54 L -6.30 380.54 L -1.28 366.63 L -26.11 361.65 Z" fill="#1c1c1c" stroke="#2e2e2e" stroke-width="0.4"/>
  <path d="M -481.74 890.45 L -487.17 900.52 L -498.34 891.11 L -548.10 878.85 L -556.91 888.21 L -580.68 891.51 L -581.27 917.09 L -598.94 915.39 L -609.59 911.00 L -612.71 895.91 L -625.59 901.36 L -625.25 883.92 L -643.35 882.64 L -643.38 863.06 L -658.89 861.65 L -672.38 845.31 L -652.35 838.06 L -659.75 825.39 L -669.76 820.74 L -684.42 826.48 L -698.11 814.96 L -725.69 814.51 L -733.24 801.68 L -727.08 792.10 L -701.66 786.98 L -682.20 791.66 L -624.52 780.17 L -624.66 791.09 L -618.21 790.88 L -614.41 782.22 L -591.71 785.05 L -594.25 778.05 L -584.87 783.79 L -587.37 794.81 L -550.29 799.34 L -535.08 814.66 L -543.78 814.55 L -544.61 838.41 L -513.00 838.89 L -514.21 861.46 L -490.07 850.11 L -487.63 861.90 L -471.40 863.62 L -454.84 844.58 L -465.43 867.94 L -480.02 867.94 L -481.74 890.45 Z" fill="#1c1c1c" stroke="#2e2e2e" stroke-width="0.4"/>
  <path d="M -766.54 1147.39 L -832.82 1082.49 L -803.58 934.40 L -790.48 946.70 L -785.27 942.48 L -792.13 922.71 L -760.91 923.28 L -763.24 908.34 L -787.05 912.44 L -782.96 900.17 L -793.09 886.06 L -782.41 837.99 L -759.13 847.67 L -771.32 825.62 L -733.29 801.86 L -725.69 814.51 L -698.11 814.96 L -684.42 826.48 L -669.76 820.74 L -659.75 825.39 L -652.35 838.06 L -672.38 845.31 L -658.89 861.65 L -643.38 863.06 L -643.35 882.64 L -625.25 883.92 L -625.59 901.36 L -612.71 895.91 L -609.59 911.00 L -581.27 917.09 L -581.28 898.56 L -567.73 903.12 L -552.67 915.75 L -549.33 933.25 L -557.85 937.75 L -578.72 919.69 L -591.47 918.57 L -584.27 944.32 L -600.40 955.17 L -597.01 968.59 L -617.44 967.03 L -632.10 980.02 L -666.18 969.59 L -687.42 982.58 L -684.94 993.32 L -667.89 1002.58 L -674.79 1009.24 L -664.88 1009.61 L -647.44 1029.16 L -648.07 1039.58 L -673.57 1036.59 L -649.08 1068.34 L -633.97 1067.47 L -654.65 1089.85 L -668.38 1121.27 L -726.58 1123.76 L -734.80 1137.39 L -748.30 1138.78 L -761.69 1152.06 L -766.54 1147.39 Z" fill="#1c1c1c" stroke="#2e2e2e" stroke-width="0.4"/>
  <path d="M -75.07 358.10 L -32.11 366.36 L -26.04 361.30 L -32.52 388.48 L -110.72 378.04 L -105.61 347.43 L -83.28 349.45 L -75.07 358.10 Z" fill="#1c1c1c" stroke="#2e2e2e" stroke-width="0.4"/>
  <path d="M -83.64 393.33 L -129.65 392.56 L -126.78 375.18 L -27.68 388.90 L -35.92 392.93 L -36.91 406.67 L -46.88 404.55 L -50.29 411.00 L -82.89 404.47 L -83.64 393.33 Z" fill="#1c1c1c" stroke="#2e2e2e" stroke-width="0.4"/>
  <path d="M -278.16 281.96 L -314.76 270.46 L -339.48 231.47 L -357.89 236.58 L -351.66 255.26 L -379.05 248.50 L -394.99 218.78 L -354.32 201.22 L -331.62 175.16 L -259.58 200.68 L -263.33 216.49 L -259.13 210.05 L -244.52 215.63 L -242.56 232.34 L -205.43 243.27 L -207.81 285.33 L -229.41 268.06 L -256.51 265.50 L -268.60 275.79 L -276.84 272.98 L -278.16 281.96 Z" fill="#1c1c1c" stroke="#2e2e2e" stroke-width="0.4"/>
  <path d="M -84.15 244.96 L -146.35 238.73 L -141.76 215.26 L -160.27 200.39 L -162.87 188.46 L -110.59 184.86 L -107.70 160.09 L -98.70 159.71 L -89.70 174.84 L -56.41 179.07 L -56.98 205.44 L -71.89 205.38 L -67.04 212.41 L -73.74 223.48 L -65.87 231.11 L -48.40 225.97 L -42.70 245.66 L -69.12 238.00 L -64.89 246.85 L -84.15 244.96 Z" fill="#1c1c1c" stroke="#2e2e2e" stroke-width="0.4"/>
  <path d="M 116.20 244.78 L 107.62 232.56 L 74.97 241.63 L 78.18 164.98 L 169.07 170.61 L 169.95 158.83 L 199.87 161.72 L 178.50 197.96 L 116.20 244.78 Z" fill="#1c1c1c" stroke="#2e2e2e" stroke-width="0.4"/>
  <path d="M -633.80 1116.55 L -600.51 1112.51 L -566.66 1124.04 L -567.48 1136.17 L -488.23 1138.62 L -472.04 1130.14 L -461.90 1112.60 L -466.81 1087.74 L -457.24 1057.96 L -464.57 1054.49 L -408.66 1060.13 L -401.31 1071.42 L -391.22 1070.02 L -393.14 1101.64 L -401.06 1106.67 L -394.87 1115.78 L -412.65 1117.56 L -391.73 1117.66 L -391.02 1151.58 L -377.96 1151.96 L -377.68 1162.98 L -333.00 1163.35 L -333.30 1170.65 L -317.27 1170.73 L -317.20 1177.28 L -302.80 1177.54 L -275.07 1196.72 L -272.44 1182.49 L -245.81 1187.58 L -248.66 1224.81 L -234.74 1224.86 L -236.81 1236.82 L -218.57 1245.15 L -238.34 1271.17 L -231.07 1294.77 L -219.92 1299.95 L -205.10 1292.57 L -188.18 1326.09 L -220.11 1344.53 L -314.85 1364.79 L -320.03 1360.05 L -314.34 1344.41 L -345.16 1338.12 L -345.39 1344.52 L -356.07 1346.27 L -347.91 1372.30 L -396.90 1383.52 L -399.74 1368.02 L -451.86 1358.08 L -457.41 1380.56 L -477.27 1393.41 L -477.72 1401.95 L -501.60 1407.39 L -576.91 1400.52 L -551.17 1387.32 L -565.84 1347.70 L -551.39 1297.05 L -634.70 1276.03 L -696.37 1291.08 L -676.24 1262.21 L -657.82 1259.10 L -761.69 1152.06 L -748.30 1138.78 L -734.59 1137.24 L -726.58 1123.76 L -633.80 1116.55 Z" fill="#1c1c1c" stroke="#2e2e2e" stroke-width="0.4"/>
  <path d="M -320.94 649.62 L -348.49 611.56 L -365.29 618.31 L -365.95 612.51 L -379.10 613.08 L -378.84 601.08 L -366.03 601.09 L -367.18 593.10 L -380.83 591.75 L -381.85 546.76 L -362.54 543.42 L -350.06 553.33 L -354.68 544.26 L -352.12 549.92 L -347.26 538.81 L -316.66 535.42 L -321.93 528.50 L -265.04 507.23 L -250.08 532.95 L -253.09 578.21 L -227.15 593.96 L -204.31 597.18 L -202.63 625.08 L -213.01 634.08 L -231.04 630.63 L -218.41 663.28 L -270.36 663.17 L -270.99 679.54 L -282.07 684.80 L -280.72 675.72 L -295.73 685.18 L -295.43 670.93 L -307.31 672.48 L -332.23 679.96 L -333.39 696.26 L -344.42 695.80 L -342.46 672.25 L -320.94 649.62 Z" fill="#1c1c1c" stroke="#2e2e2e" stroke-width="0.4"/>
  <path d="M 27.72 274.05 L -0.50 260.93 L 12.92 227.69 L 5.40 166.25 L 30.52 164.46 L 24.17 159.41 L 33.69 157.14 L 30.90 151.41 L 85.65 141.10 L 78.27 160.13 L 76.31 241.28 L 49.52 257.11 L 60.11 268.33 L 54.20 273.99 L 41.07 282.54 L 27.72 274.05 Z" fill="#1c1c1c" stroke="#2e2e2e" stroke-width="0.4"/>
  <path d="M -164.77 342.64 L -128.94 340.11 L -118.61 347.62 L -121.06 340.54 L -108.46 341.86 L -110.72 378.04 L -126.78 375.18 L -130.81 420.50 L -194.92 423.28 L -194.69 411.77 L -203.16 411.61 L -202.08 348.58 L -164.77 342.64 Z" fill="#1c1c1c" stroke="#2e2e2e" stroke-width="0.4"/>
  <path d="M -75.07 358.10 L -83.28 349.45 L -108.39 346.43 L -105.42 330.94 L -114.83 323.04 L -106.86 322.06 L -104.00 302.68 L -73.34 305.99 L -65.42 318.05 L -49.42 318.25 L -17.33 337.56 L -32.11 366.36 L -75.07 358.10 Z" fill="#1c1c1c" stroke="#2e2e2e" stroke-width="0.4"/>
  <path d="M -257.10 319.40 L -252.73 325.90 L -263.21 323.58 L -257.10 319.40 Z" fill="#1c1c1c" stroke="#2e2e2e" stroke-width="0.4"/>
  <path d="M -299.46 317.71 L -296.25 311.35 L -352.28 304.12 L -357.42 291.50 L -372.70 296.10 L -382.13 287.51 L -398.82 290.69 L -399.68 299.42 L -424.69 298.78 L -412.49 281.59 L -414.13 228.88 L -394.99 218.78 L -379.05 248.50 L -351.66 255.26 L -357.89 236.58 L -339.48 231.47 L -314.99 270.26 L -289.59 274.14 L -284.41 283.46 L -256.51 265.50 L -229.41 268.06 L -207.81 285.33 L -201.02 317.52 L -242.10 319.26 L -244.78 325.12 L -254.47 318.79 L -272.33 324.24 L -272.55 318.71 L -275.70 324.12 L -299.46 317.71 Z" fill="#1c1c1c" stroke="#2e2e2e" stroke-width="0.4"/>
  <path d="M -198.66 163.38 L -213.92 157.74 L -217.93 141.45 L -222.33 145.99 L -237.13 130.56 L -242.09 121.55 L -234.25 121.89 L -266.71 96.14 L -245.54 82.42 L -197.96 107.61 L -178.54 99.49 L -172.55 121.22 L -172.08 115.98 L -148.23 129.64 L -140.09 121.01 L -91.50 139.12 L -88.38 156.43 L -72.46 158.31 L -74.00 167.58 L -65.64 168.33 L -66.71 174.47 L -89.70 174.84 L -98.70 159.71 L -107.70 160.09 L -110.59 184.86 L -127.07 184.47 L -172.59 181.62 L -198.66 163.38 Z" fill="#1c1c1c" stroke="#2e2e2e" stroke-width="0.4"/>
  <path d="M 94.81 333.73 L 85.94 343.85 L 37.50 323.80 L 42.03 314.61 L 35.04 305.65 L 77.52 287.53 L 60.11 268.33 L 69.35 259.32 L 92.68 270.79 L 95.61 278.97 L 78.50 288.73 L 92.75 304.61 L 124.63 312.44 L 103.40 313.37 L 110.79 321.39 L 94.81 333.73 Z" fill="#1c1c1c" stroke="#2e2e2e" stroke-width="0.4"/>
  <path d="M 4.28 449.08 L 24.09 451.21 L 15.80 474.14 L 5.80 475.59 L 4.08 486.28 L -14.63 492.13 L -17.08 500.48 L -59.41 450.80 L -51.37 441.56 L 4.28 449.08 Z" fill="#1c1c1c" stroke="#2e2e2e" stroke-width="0.4"/>
  <path d="M 60.43 482.50 L 68.22 472.09 L 107.85 478.91 L 46.76 551.70 L 30.53 547.78 L 21.01 524.59 L 42.46 510.77 L 40.00 503.08 L 60.43 482.50 Z" fill="#1c1c1c" stroke="#2e2e2e" stroke-width="0.4"/>
  <path d="M -675.92 997.46 L -688.19 983.92 L -671.31 970.59 L -634.61 974.36 L -632.10 980.02 L -617.44 967.03 L -596.32 968.09 L -600.40 955.17 L -584.27 944.32 L -591.47 918.57 L -550.41 936.73 L -552.67 915.75 L -581.28 898.56 L -580.68 891.51 L -556.91 888.21 L -547.85 878.87 L -484.30 900.57 L -480.02 867.94 L -465.43 867.94 L -454.84 844.58 L -452.28 835.44 L -461.51 825.68 L -426.02 827.36 L -415.53 839.00 L -392.44 832.91 L -391.55 856.42 L -402.29 863.58 L -391.27 881.15 L -355.95 886.92 L -364.63 906.61 L -356.86 910.48 L -316.36 913.97 L -310.74 950.45 L -292.62 956.80 L -295.25 974.62 L -284.80 984.82 L -304.32 995.25 L -285.95 1012.49 L -297.82 1005.45 L -335.86 1011.06 L -337.28 995.09 L -345.95 990.08 L -367.59 1009.72 L -387.97 1007.21 L -395.88 1060.24 L -426.82 1062.82 L -439.29 1054.31 L -464.57 1054.49 L -457.24 1057.96 L -466.81 1087.74 L -461.90 1112.60 L -472.04 1130.14 L -488.23 1138.62 L -567.48 1136.17 L -566.66 1124.04 L -600.51 1112.51 L -619.37 1119.41 L -660.98 1114.61 L -654.65 1089.85 L -633.97 1067.47 L -649.08 1068.34 L -673.73 1036.32 L -646.39 1035.31 L -653.01 1020.30 L -674.79 1009.24 L -667.73 1002.94 L -675.92 997.46 Z" fill="#1c1c1c" stroke="#2e2e2e" stroke-width="0.4"/>
  <path d="M -479.70 113.54 L -479.70 113.54 Z" fill="#1c1c1c" stroke="#2e2e2e" stroke-width="0.4"/>
  <path d="M -423.78 137.62 L -478.93 125.20 L -480.47 108.59 L -444.94 101.66 L -459.90 79.16 L -462.96 56.07 L -470.15 55.70 L -469.54 31.44 L -492.91 30.92 L -532.48 16.15 L -581.06 25.95 L -584.73 3.58 L -560.30 6.50 L -628.60 -17.32 L -608.18 -38.11 L -620.20 -44.90 L -625.71 -69.35 L -646.17 -99.86 L -635.96 -99.96 L -635.69 -87.10 L -591.90 -52.83 L -568.95 -23.72 L -499.81 6.00 L -443.71 -0.71 L -373.94 -49.02 L -339.63 -86.42 L -332.92 -114.29 L -314.50 -139.83 L -279.43 -154.23 L -251.04 -151.01 L -251.04 -140.10 L -283.63 -124.54 L -251.27 -126.85 L -252.12 -77.25 L -291.65 -77.66 L -292.18 -41.38 L -268.54 -40.49 L -239.59 -59.11 L -176.73 -67.89 L -112.79 -61.72 L -122.05 -41.46 L -79.76 -50.12 L -68.07 -59.47 L -47.98 -57.25 L -49.56 -46.56 L 1.25 -41.73 L -6.24 -27.30 L 5.64 -14.99 L -6.77 -23.94 L -7.71 -16.74 L -48.84 -30.20 L -82.88 -19.57 L -107.53 49.89 L -142.59 78.83 L -261.49 72.64 L -316.29 132.03 L -331.88 175.70 L -423.78 137.62 Z" fill="#1c1c1c" stroke="#2e2e2e" stroke-width="0.4"/>
  <path d="M -45.62 235.03 L -41.25 228.34 L -21.55 231.19 L -24.05 237.07 L 7.88 235.82 L -0.50 260.93 L 27.90 273.13 L 9.04 306.46 L -28.06 299.15 L -33.86 268.10 L -40.60 298.92 L -68.16 283.28 L -69.47 268.35 L -82.87 266.46 L -78.53 257.44 L -87.05 268.09 L -80.89 245.75 L -62.49 245.55 L -69.12 238.00 L -42.70 245.66 L -45.62 235.03 Z" fill="#1c1c1c" stroke="#2e2e2e" stroke-width="0.4"/>
  <path d="M -203.55 626.45 L -202.38 599.52 L -215.22 595.63 L -202.12 581.30 L -216.48 577.99 L -191.09 562.22 L -162.77 555.44 L -97.38 572.02 L -97.03 595.37 L -89.50 597.61 L -146.07 659.38 L -154.18 679.63 L -178.06 683.35 L -181.27 671.16 L -208.67 679.04 L -217.39 672.97 L -231.04 630.63 L -213.01 634.08 L -203.55 626.45 Z" fill="#1c1c1c" stroke="#2e2e2e" stroke-width="0.4"/>
  <path d="M -249.55 532.77 L -189.55 503.32 L -189.65 531.37 L -174.97 531.62 L -175.27 544.00 L -160.86 555.64 L -175.28 554.95 L -216.48 577.99 L -202.12 581.30 L -222.46 595.40 L -253.09 578.21 L -249.55 532.77 Z" fill="#1c1c1c" stroke="#2e2e2e" stroke-width="0.4"/>
  <path d="M 66.91 463.40 L 68.22 472.09 L 32.68 516.76 L -17.08 500.48 L -14.63 492.13 L 4.08 486.28 L 5.80 475.59 L 15.80 474.14 L 25.16 442.05 L 33.18 442.84 L 27.85 428.71 L 72.94 433.26 L 70.90 445.67 L 64.42 445.06 L 70.85 445.99 L 66.91 463.40 Z" fill="#1c1c1c" stroke="#2e2e2e" stroke-width="0.4"/>
  <path d="M 69.43 243.61 L 107.62 232.56 L 113.92 244.18 L 124.16 244.80 L 126.13 272.25 L 163.87 315.67 L 174.57 344.69 L 154.22 356.26 L 130.93 316.60 L 92.75 304.61 L 78.50 288.73 L 95.61 278.97 L 92.68 270.79 L 69.35 259.32 L 60.11 268.33 L 49.52 257.11 L 69.43 243.61 Z" fill="#1c1c1c" stroke="#2e2e2e" stroke-width="0.4"/>
  <path d="M -185.21 1014.28 L -189.71 1018.46 L -185.21 1014.28 Z" fill="#1c1c1c" stroke="#2e2e2e" stroke-width="0.4"/>
  <path d="M -172.52 1061.46 L -168.84 1045.55 L -184.69 1022.73 L -169.09 1024.47 L -173.70 1013.52 L -164.28 1010.77 L -137.54 1010.86 L -118.16 1062.74 L -143.29 1059.18 L -148.94 1071.63 L -180.31 1084.58 L -181.53 1072.06 L -166.87 1063.73 L -172.52 1061.46 Z" fill="#1c1c1c" stroke="#2e2e2e" stroke-width="0.4"/>
  <path d="M -211.79 840.76 L -204.20 824.52 L -177.27 833.98 L -186.22 848.68 L -169.74 832.40 L -166.26 856.71 L -172.85 860.31 L -162.25 858.66 L -144.05 872.85 L -147.16 937.57 L -168.10 933.64 L -164.83 902.85 L -195.15 888.88 L -196.30 900.91 L -219.44 909.08 L -219.54 916.27 L -199.09 916.46 L -204.73 948.98 L -205.60 925.59 L -240.37 937.88 L -267.37 923.51 L -281.07 928.55 L -279.85 938.94 L -289.91 921.28 L -312.29 931.58 L -316.36 913.97 L -364.63 906.61 L -355.95 886.92 L -384.52 886.33 L -402.29 863.58 L -384.81 844.05 L -384.15 800.61 L -361.32 801.26 L -367.61 808.03 L -360.85 813.76 L -320.10 821.58 L -321.41 844.45 L -306.86 830.12 L -295.01 834.90 L -252.32 827.33 L -211.79 840.76 Z" fill="#1c1c1c" stroke="#2e2e2e" stroke-width="0.4"/>
  <path d="M -194.94 856.43 L -210.16 857.34 L -194.94 856.43 Z" fill="#1c1c1c" stroke="#2e2e2e" stroke-width="0.4"/>
  <path d="M -596.07 737.63 L -576.60 747.75 L -557.72 732.30 L -510.99 731.24 L -519.37 723.81 L -502.41 708.21 L -505.68 681.98 L -492.76 673.46 L -478.90 671.44 L -470.80 684.78 L -464.87 677.18 L -446.47 677.73 L -439.28 692.00 L -418.16 675.55 L -402.64 699.41 L -383.25 702.24 L -383.55 733.34 L -360.28 741.58 L -365.05 772.76 L -352.19 766.10 L -359.97 786.21 L -354.44 796.41 L -363.51 810.49 L -361.32 801.26 L -384.15 800.61 L -388.32 849.56 L -392.44 832.91 L -415.53 839.00 L -426.02 827.36 L -461.51 825.68 L -452.28 835.44 L -471.40 863.62 L -487.63 861.90 L -490.07 850.11 L -514.06 861.53 L -513.00 838.89 L -544.61 838.41 L -543.78 814.55 L -535.08 814.66 L -550.29 799.34 L -587.37 794.81 L -584.87 783.79 L -594.17 778.08 L -591.71 785.05 L -614.41 782.22 L -618.21 790.88 L -624.66 791.09 L -624.52 780.17 L -682.20 791.66 L -716.65 783.43 L -702.79 754.59 L -703.11 761.93 L -691.27 762.33 L -670.75 740.51 L -648.60 749.94 L -652.77 740.88 L -632.90 741.13 L -629.25 727.97 L -619.89 733.92 L -617.42 714.27 L -588.33 718.52 L -577.49 727.86 L -596.07 737.63 Z" fill="#1c1c1c" stroke="#2e2e2e" stroke-width="0.4"/>
  <path d="M -611.02 524.09 L -578.91 528.27 L -568.17 538.21 L -482.25 551.21 L -458.07 527.96 L -438.73 527.29 L -419.32 537.61 L -449.54 547.74 L -454.28 558.90 L -411.38 553.75 L -433.98 560.53 L -458.61 590.69 L -514.73 596.06 L -502.92 600.61 L -502.69 624.02 L -493.65 624.24 L -493.80 635.77 L -517.62 642.03 L -518.60 648.29 L -493.57 665.33 L -479.30 666.29 L -505.63 681.80 L -502.13 707.67 L -519.37 723.81 L -510.99 731.24 L -557.72 732.30 L -579.58 747.15 L -596.07 737.63 L -575.89 729.94 L -588.33 718.52 L -617.42 714.27 L -631.58 696.20 L -648.51 701.67 L -644.62 687.56 L -620.90 671.22 L -631.79 636.98 L -638.52 638.37 L -635.15 627.70 L -644.23 627.94 L -636.65 618.01 L -645.90 604.57 L -623.60 598.64 L -658.14 597.46 L -635.06 596.33 L -665.34 587.80 L -661.58 561.69 L -647.44 547.33 L -657.90 536.05 L -651.66 527.80 L -611.02 524.09 Z" fill="#1c1c1c" stroke="#2e2e2e" stroke-width="0.4"/>
  <path d="M -651.79 120.58 L -646.69 124.45 L -654.11 128.69 L -659.33 123.14 L -651.79 120.58 Z" fill="#1c1c1c" stroke="#2e2e2e" stroke-width="0.4"/>
  <path d="M -822.40 110.93 L -880.09 101.56 L -842.86 88.88 L -823.86 94.86 L -829.57 86.23 L -815.12 81.43 L -812.45 63.80 L -811.92 41.94 L -854.50 38.52 L -890.21 -9.73 L -876.62 -10.55 L -883.47 -22.44 L -879.52 -45.28 L -862.69 -49.55 L -873.60 -62.58 L -853.84 -72.73 L -826.47 -81.81 L -793.39 -76.62 L -771.55 -93.31 L -746.44 -94.97 L -737.89 -85.31 L -757.83 -70.18 L -739.26 -69.12 L -738.41 -58.83 L -721.80 -60.56 L -710.63 -48.83 L -696.96 -58.16 L -708.39 -66.41 L -725.45 -64.98 L -724.84 -72.08 L -707.83 -79.43 L -691.59 -69.85 L -671.07 -70.04 L -693.76 -96.33 L -646.17 -99.86 L -625.71 -69.35 L -620.20 -44.90 L -608.18 -38.11 L -628.60 -17.32 L -560.30 6.50 L -585.99 7.52 L -581.18 25.90 L -561.79 21.67 L -563.64 41.14 L -610.29 41.06 L -610.46 53.69 L -632.93 52.57 L -658.62 64.93 L -614.39 94.63 L -616.66 114.80 L -661.70 112.56 L -655.65 119.57 L -695.52 130.02 L -685.14 133.67 L -694.05 149.55 L -764.89 160.72 L -760.97 151.98 L -775.97 143.41 L -776.49 127.26 L -791.03 127.08 L -785.69 111.83 L -822.40 110.93 Z" fill="#1c1c1c" stroke="#2e2e2e" stroke-width="0.4"/>
  <path d="M -854.54 101.31 L -848.38 107.69 L -854.54 101.31 Z" fill="#1c1c1c" stroke="#2e2e2e" stroke-width="0.4"/>
  <path d="M 10.91 304.22 L 27.09 275.03 L 41.07 282.54 L 60.11 268.33 L 77.52 287.53 L 35.04 305.65 L 42.03 314.61 L 37.14 322.53 L 4.14 312.28 L 10.91 304.22 Z" fill="#1c1c1c" stroke="#2e2e2e" stroke-width="0.4"/>
  <path d="M -396.12 526.17 L -395.89 519.05 L -381.02 520.45 L -379.97 505.45 L -357.45 499.75 L -361.94 493.56 L -312.95 492.01 L -327.18 504.10 L -298.42 510.58 L -300.08 518.26 L -321.93 528.50 L -316.66 535.42 L -347.26 538.81 L -352.12 549.92 L -354.68 544.26 L -350.06 553.33 L -374.46 542.97 L -454.08 559.04 L -449.54 547.74 L -416.46 537.28 L -419.61 524.32 L -396.12 526.17 Z" fill="#1c1c1c" stroke="#2e2e2e" stroke-width="0.4"/>
  <path d="M -153.62 436.37 L -146.48 438.51 L -154.91 480.00 L -249.06 532.59 L -265.04 507.23 L -300.08 518.26 L -300.70 506.82 L -327.18 504.10 L -316.25 498.58 L -312.95 492.01 L -321.34 494.54 L -313.52 482.64 L -297.36 476.23 L -302.92 474.56 L -275.25 471.44 L -276.88 445.93 L -235.91 446.75 L -235.58 431.38 L -195.20 435.74 L -194.92 423.28 L -159.13 426.20 L -153.62 436.37 Z" fill="#1c1c1c" stroke="#2e2e2e" stroke-width="0.4"/>
  <path d="M 8.86 206.56 L 10.13 235.14 L -12.13 238.81 L -27.94 229.58 L -56.71 228.62 L -53.90 195.94 L -56.41 179.07 L -67.32 176.60 L -64.47 163.42 L -44.77 171.37 L -33.60 166.11 L -37.73 161.69 L 8.80 164.13 L 8.86 206.56 Z" fill="#1c1c1c" stroke="#2e2e2e" stroke-width="0.4"/>
  <path d="M -129.66 392.82 L -83.39 393.49 L -82.89 404.47 L -75.06 404.44 L -82.52 409.85 L -77.42 419.12 L -82.78 430.66 L -95.86 425.85 L -110.02 433.58 L -123.32 426.82 L -131.01 420.26 L -129.66 392.82 Z" fill="#1c1c1c" stroke="#2e2e2e" stroke-width="0.4"/>
  <path d="M -558.81 419.53 L -550.48 409.63 L -565.87 406.64 L -568.93 388.64 L -582.63 388.94 L -593.70 410.55 L -614.41 413.83 L -622.89 411.45 L -636.21 385.00 L -656.43 414.51 L -636.68 440.63 L -674.46 458.82 L -677.27 444.55 L -690.91 446.06 L -721.80 421.14 L -752.49 440.22 L -752.30 377.68 L -712.73 367.18 L -701.79 347.72 L -661.84 333.86 L -655.06 308.21 L -631.47 297.92 L -574.28 295.47 L -536.64 308.55 L -482.25 310.06 L -482.78 337.21 L -499.50 342.33 L -483.30 342.88 L -493.22 362.06 L -483.07 370.53 L -482.48 382.62 L -496.99 397.45 L -505.58 433.47 L -534.16 433.48 L -535.72 422.61 L -547.90 429.10 L -544.62 421.76 L -558.81 419.53 Z" fill="#1c1c1c" stroke="#2e2e2e" stroke-width="0.4"/>
  <path d="M -129.13 300.24 L -207.81 285.33 L -207.56 261.62 L -155.92 260.78 L -144.06 239.02 L -83.30 244.32 L -87.05 268.09 L -78.53 257.44 L -82.64 266.97 L -69.47 268.35 L -62.79 285.93 L -73.34 305.99 L -104.00 302.68 L -129.75 316.21 L -129.72 307.76 L -139.45 305.91 L -129.13 300.24 Z" fill="#1c1c1c" stroke="#2e2e2e" stroke-width="0.4"/>
  <path d="M -73.34 305.99 L -62.79 285.93 L -40.60 298.92 L -36.02 294.81 L -34.51 267.95 L -28.06 299.15 L 9.04 306.46 L -19.39 341.03 L -49.42 318.25 L -65.42 318.05 L -73.34 305.99 Z" fill="#1c1c1c" stroke="#2e2e2e" stroke-width="0.4"/>
  <path d="M -232.18 232.41 L -242.82 232.09 L -244.52 215.63 L -259.13 210.05 L -263.33 216.49 L -259.58 200.68 L -286.78 190.93 L -285.27 171.94 L -276.60 169.24 L -283.93 159.10 L -321.99 148.65 L -316.29 132.03 L -261.49 72.64 L -241.68 83.06 L -266.71 96.14 L -234.25 121.89 L -242.09 121.55 L -234.43 134.85 L -222.33 145.99 L -217.93 141.45 L -213.92 157.74 L -176.23 180.04 L -150.91 183.38 L -162.87 188.46 L -162.52 196.44 L -143.72 209.56 L -144.60 214.46 L -185.47 208.62 L -200.98 221.48 L -205.43 243.27 L -232.18 232.41 Z" fill="#1c1c1c" stroke="#2e2e2e" stroke-width="0.4"/>
  <path d="M 40.40 378.73 L 33.09 377.30 L 34.33 369.91 L 14.17 365.51 L 21.16 348.81 L 53.74 353.83 L 92.96 374.54 L 85.71 387.88 L 40.40 378.73 Z" fill="#1c1c1c" stroke="#2e2e2e" stroke-width="0.4"/>
  <path d="M -813.69 578.95 L -827.89 568.67 L -827.54 556.77 L -819.30 557.07 L -818.87 531.63 L -834.72 531.92 L -835.61 522.38 L -852.47 511.22 L -815.82 499.18 L -812.03 490.00 L -820.19 473.13 L -813.96 468.04 L -778.96 477.91 L -788.39 470.59 L -783.11 462.06 L -791.67 450.44 L -790.64 434.04 L -776.56 433.10 L -752.64 452.27 L -753.59 495.13 L -739.09 500.23 L -732.32 492.38 L -708.84 511.47 L -669.36 511.22 L -661.54 526.42 L -664.41 550.11 L -672.39 552.66 L -658.59 558.59 L -665.34 587.80 L -635.06 596.33 L -658.14 597.46 L -623.60 598.64 L -645.90 604.57 L -636.65 618.01 L -644.23 627.94 L -635.15 627.70 L -638.52 638.37 L -631.79 636.98 L -620.90 671.22 L -644.62 687.56 L -648.51 701.67 L -631.58 696.20 L -617.42 714.27 L -619.89 733.92 L -629.25 727.97 L -632.90 741.13 L -652.77 740.88 L -651.72 751.04 L -658.64 740.75 L -670.75 740.51 L -691.27 762.33 L -703.11 761.93 L -708.06 735.04 L -755.10 741.76 L -811.61 726.51 L -836.24 729.60 L -790.21 691.94 L -820.50 666.33 L -836.68 666.28 L -838.51 676.97 L -847.29 677.55 L -840.74 695.25 L -849.67 695.50 L -849.26 704.11 L -838.97 720.38 L -871.95 717.23 L -870.08 696.33 L -906.07 680.32 L -897.82 669.48 L -864.98 659.14 L -885.34 665.57 L -888.87 637.08 L -898.08 633.03 L -911.02 639.08 L -914.06 633.70 L -852.76 621.91 L -859.24 621.21 L -859.08 614.79 L -852.63 617.45 L -855.71 594.48 L -813.69 578.95 Z" fill="#1c1c1c" stroke="#2e2e2e" stroke-width="0.4"/>
  <path d="M -691.85 131.04 L -655.65 119.57 L -661.70 112.56 L -616.66 114.80 L -614.39 94.63 L -658.62 64.93 L -632.93 52.57 L -610.46 53.69 L -610.29 41.06 L -563.64 41.14 L -561.51 18.17 L -532.48 16.15 L -492.91 30.92 L -469.54 31.44 L -470.15 55.70 L -462.96 56.07 L -459.90 79.16 L -444.94 101.66 L -480.47 108.59 L -478.93 125.20 L -470.82 127.91 L -476.92 151.47 L -455.28 150.21 L -471.12 164.37 L -454.31 183.84 L -463.10 188.86 L -457.98 195.11 L -512.70 202.52 L -503.01 199.94 L -509.69 197.90 L -507.09 186.87 L -528.86 188.55 L -527.79 178.72 L -549.28 188.67 L -555.87 199.77 L -584.92 200.71 L -586.81 217.62 L -598.72 227.44 L -602.54 213.99 L -587.96 216.37 L -591.06 188.30 L -617.94 195.49 L -633.46 185.42 L -655.76 192.06 L -670.30 177.04 L -684.60 181.95 L -688.24 191.06 L -698.25 185.25 L -688.03 182.90 L -694.07 174.02 L -685.43 177.39 L -674.19 167.68 L -674.23 155.82 L -694.05 149.55 L -685.14 133.67 L -691.85 131.04 Z" fill="#1c1c1c" stroke="#2e2e2e" stroke-width="0.4"/>
  <path d="M -477.68 113.71 L -477.68 113.71 Z" fill="#1c1c1c" stroke="#2e2e2e" stroke-width="0.4"/>
  <path d="M -528.23 125.78 L -534.98 125.89 L -528.23 125.78 Z" fill="#1c1c1c" stroke="#2e2e2e" stroke-width="0.4"/>
  <path d="M -654.35 121.49 L -659.38 123.49 L -654.11 128.69 L -646.76 124.63 L -650.51 117.53 L -654.35 121.49 Z" fill="#1c1c1c" stroke="#2e2e2e" stroke-width="0.4"/>
  <path d="M -897.17 123.98 L -893.30 109.41 L -785.69 111.83 L -791.03 127.08 L -776.49 127.26 L -775.97 143.41 L -760.97 151.98 L -761.37 160.06 L -771.90 160.59 L -774.69 148.40 L -808.09 153.57 L -808.09 160.40 L -826.37 165.86 L -815.23 172.26 L -841.59 177.54 L -836.79 206.11 L -864.77 214.58 L -858.94 208.32 L -890.39 209.70 L -907.82 190.33 L -905.11 178.07 L -939.15 171.29 L -938.39 161.16 L -928.03 162.38 L -925.60 135.45 L -918.40 135.32 L -918.74 112.62 L -908.77 119.19 L -912.34 136.09 L -892.85 128.79 L -909.91 116.76 L -897.17 123.98 Z" fill="#1c1c1c" stroke="#2e2e2e" stroke-width="0.4"/>
  <path d="M -461.16 406.07 L -457.65 424.18 L -449.54 424.40 L -426.30 420.26 L -420.62 408.20 L -403.79 404.45 L -394.79 412.36 L -383.64 400.14 L -379.28 406.98 L -363.05 402.54 L -359.51 407.71 L -353.91 405.02 L -358.21 398.63 L -345.39 398.70 L -336.09 421.14 L -344.11 443.18 L -326.95 443.22 L -324.86 453.96 L -341.29 447.17 L -372.87 458.45 L -376.19 453.03 L -482.80 453.08 L -484.89 458.30 L -492.92 453.11 L -498.21 459.98 L -508.46 453.27 L -563.59 470.07 L -594.64 467.31 L -583.46 462.76 L -599.34 460.95 L -598.79 440.07 L -577.96 437.21 L -590.48 433.47 L -568.13 423.55 L -574.19 416.23 L -566.06 409.15 L -574.28 409.12 L -568.42 391.17 L -565.87 406.64 L -550.48 409.63 L -553.23 418.91 L -558.90 417.31 L -555.65 424.01 L -544.62 421.76 L -547.90 429.10 L -542.30 429.54 L -542.51 421.39 L -535.72 422.61 L -534.16 433.48 L -489.18 428.64 L -486.03 421.54 L -494.47 421.50 L -493.37 414.68 L -474.00 416.95 L -473.86 401.40 L -461.16 406.07 Z" fill="#1c1c1c" stroke="#2e2e2e" stroke-width="0.4"/>
  <path d="M -51.34 465.55 L -47.11 462.68 L -37.20 483.00 L -15.13 502.26 L 25.32 517.37 L -29.37 536.68 L -81.70 575.07 L -94.71 596.24 L -97.93 571.32 L -128.32 562.47 L -128.16 534.30 L -136.30 531.91 L -126.78 519.55 L -141.13 502.88 L -91.95 492.96 L -51.34 465.55 Z" fill="#1c1c1c" stroke="#2e2e2e" stroke-width="0.4"/>
  <path d="M -282.52 379.18 L -282.39 390.23 L -329.56 385.61 L -332.97 396.71 L -341.05 390.66 L -329.55 383.35 L -334.82 368.52 L -353.06 378.09 L -384.81 371.35 L -374.23 361.28 L -360.13 311.85 L -310.53 308.49 L -275.70 324.12 L -275.73 318.70 L -244.78 325.12 L -242.10 319.26 L -215.95 322.89 L -203.78 317.25 L -184.34 323.59 L -185.22 346.10 L -202.08 348.58 L -207.45 364.13 L -266.19 363.68 L -266.34 378.73 L -282.52 379.18 Z" fill="#1c1c1c" stroke="#2e2e2e" stroke-width="0.4"/>
  <path d="M -252.73 325.90 L -255.77 319.39 L -263.79 321.94 L -252.73 325.90 Z" fill="#1c1c1c" stroke="#2e2e2e" stroke-width="0.4"/>
  <path d="M -139.27 560.21 L -162.19 554.78 L -175.27 544.00 L -174.97 531.62 L -189.65 531.37 L -190.47 507.25 L -182.51 493.63 L -154.85 484.17 L -129.49 510.52 L -126.84 522.57 L -136.30 531.91 L -128.16 534.30 L -128.32 562.47 L -139.27 560.21 Z" fill="#1c1c1c" stroke="#2e2e2e" stroke-width="0.4"/>
  <path d="M -646.82 431.64 L -656.39 414.26 L -636.21 385.00 L -622.89 411.45 L -614.41 413.83 L -593.70 410.55 L -582.63 388.94 L -568.93 388.64 L -574.28 409.12 L -566.16 413.11 L -574.20 416.33 L -568.13 423.55 L -590.48 433.47 L -577.96 437.21 L -598.92 440.30 L -599.34 460.95 L -583.54 466.24 L -622.93 464.44 L -621.93 481.28 L -646.91 492.56 L -603.33 513.52 L -590.99 497.09 L -558.86 501.05 L -534.74 483.44 L -546.74 537.33 L -568.17 538.21 L -578.63 528.37 L -604.31 523.86 L -651.66 527.80 L -657.03 542.02 L -647.73 548.87 L -658.59 558.59 L -672.39 552.66 L -664.41 550.11 L -661.54 526.42 L -669.53 511.10 L -708.84 511.47 L -732.32 492.38 L -739.09 500.23 L -753.59 495.13 L -752.49 440.22 L -733.72 426.52 L -721.80 421.14 L -690.91 446.06 L -677.27 444.55 L -674.46 458.82 L -636.68 440.63 L -646.82 431.64 Z" fill="#1c1c1c" stroke="#2e2e2e" stroke-width="0.4"/>
  <path d="M -553.08 466.60 L -536.15 460.50 L -530.39 481.35 L -558.86 501.05 L -590.99 497.09 L -603.33 513.52 L -646.91 492.56 L -621.93 481.28 L -622.93 464.44 L -553.08 466.60 Z" fill="#1c1c1c" stroke="#2e2e2e" stroke-width="0.4"/>
  <path d="M -75.07 405.52 L -53.47 411.08 L -38.56 405.88 L -28.82 419.44 L -60.37 443.22 L -82.52 434.54 L -77.42 419.12 L -82.60 410.15 L -75.07 405.52 Z" fill="#1c1c1c" stroke="#2e2e2e" stroke-width="0.4"/>
  <path d="M -32.32 387.93 L -25.89 364.31 L -1.28 366.63 L -6.30 380.54 L -0.45 387.60 L 17.81 368.44 L 34.33 369.91 L 33.09 377.30 L 49.00 382.65 L 85.71 387.88 L 74.50 399.58 L 79.89 403.76 L 71.61 416.43 L 72.94 433.26 L 31.94 431.68 L 27.73 422.87 L 0.07 421.09 L -2.06 406.12 L -8.27 405.76 L -0.02 393.93 L -32.32 387.93 Z" fill="#1c1c1c" stroke="#2e2e2e" stroke-width="0.4"/>
  <path d="M 4.28 449.08 L -51.21 444.54 L -28.82 419.44 L -39.69 412.05 L -35.75 392.63 L -2.60 391.30 L -8.27 405.76 L -2.06 406.12 L -0.04 421.00 L 30.06 423.67 L 26.57 435.29 L 33.18 442.84 L 25.16 442.05 L 24.29 451.23 L 4.28 449.08 Z" fill="#1c1c1c" stroke="#2e2e2e" stroke-width="0.4"/>
  <path d="M 107.57 433.80 L 74.08 428.23 L 75.26 397.97 L 127.80 408.48 L 128.15 415.03 L 130.52 409.03 L 170.62 417.80 L 140.65 458.60 L 133.26 449.36 L 138.43 443.57 L 107.57 433.80 Z" fill="#1c1c1c" stroke="#2e2e2e" stroke-width="0.4"/>
  <path d="M -174.33 1373.35 L -220.11 1344.53 L -188.18 1326.09 L -205.10 1292.57 L -219.92 1299.95 L -231.07 1294.77 L -238.34 1271.17 L -218.57 1245.15 L -236.81 1236.82 L -234.74 1224.86 L -248.66 1224.81 L -245.81 1187.58 L -272.44 1182.49 L -275.07 1196.72 L -302.80 1177.54 L -317.20 1177.28 L -317.27 1170.73 L -333.30 1170.65 L -333.00 1163.35 L -377.68 1162.98 L -377.96 1151.96 L -391.02 1151.58 L -391.73 1117.66 L -412.65 1117.56 L -394.87 1115.78 L -401.06 1106.67 L -393.14 1101.64 L -391.22 1070.02 L -401.31 1071.42 L -409.25 1060.27 L -389.92 1053.10 L -387.97 1007.21 L -367.59 1009.72 L -345.95 990.08 L -337.28 995.09 L -335.29 1011.10 L -297.82 1005.45 L -285.95 1012.49 L -304.32 995.25 L -297.93 988.56 L -285.75 1003.05 L -251.11 995.50 L -217.88 998.15 L -213.42 1013.29 L -204.65 1014.70 L -216.54 1015.21 L -215.99 1027.88 L -199.16 1033.10 L -197.97 1017.77 L -186.34 1018.86 L -181.71 1000.33 L -157.87 1005.49 L -140.06 989.33 L -137.54 1010.86 L -164.28 1010.77 L -173.70 1013.52 L -169.09 1024.47 L -184.69 1022.73 L -168.84 1045.55 L -172.82 1063.89 L -166.87 1063.73 L -180.89 1071.16 L -183.26 1083.26 L -148.94 1071.63 L -142.30 1058.86 L -118.16 1062.74 L -70.69 1114.56 L -9.13 1137.15 L 14.57 1155.58 L 9.88 1158.59 L 33.31 1190.83 L 18.24 1193.94 L 1.27 1214.23 L -35.82 1235.43 L -23.74 1268.41 L -74.35 1260.24 L -108.57 1279.81 L -87.54 1308.85 L -94.69 1341.02 L -87.76 1352.88 L -96.05 1359.07 L -56.08 1359.07 L -49.10 1375.06 L -49.57 1396.05 L -72.98 1401.45 L -73.85 1415.77 L -53.15 1418.87 L -27.69 1409.29 L 13.33 1418.26 L -22.32 1438.93 L -27.49 1432.82 L -38.35 1435.75 L -45.28 1448.56 L -64.26 1428.29 L -93.72 1412.07 L -115.37 1410.07 L -174.33 1373.35 Z" fill="#1c1c1c" stroke="#2e2e2e" stroke-width="0.4"/>
  <path d="M -367.54 1104.72 L -339.07 1101.37 L -320.97 1086.93 L -367.54 1104.72 Z" fill="#1c1c1c" stroke="#2e2e2e" stroke-width="0.4"/>
  <path d="M -217.88 998.15 L -236.08 996.25 L -185.54 978.77 L -175.84 984.75 L -172.78 965.69 L -160.13 965.08 L -155.32 955.39 L -145.63 958.72 L -140.06 989.33 L -157.87 1005.49 L -181.71 1000.33 L -184.25 1012.93 L -197.97 1017.77 L -199.16 1033.10 L -215.99 1027.88 L -216.54 1015.21 L -204.65 1014.70 L -213.42 1013.29 L -217.88 998.15 Z" fill="#1c1c1c" stroke="#2e2e2e" stroke-width="0.4"/>
  <path d="M -1072.36 76.38 L -1090.46 76.10 L -1090.95 98.93 L -1044.48 109.27 L -1069.02 105.24 L -1073.45 133.89 L -1066.13 135.45 L -1067.79 143.84 L -1058.54 143.09 L -1064.43 157.80 L -1038.15 160.00 L -1028.79 203.36 L -1075.60 204.33 L -1076.06 218.09 L -1059.22 222.58 L -1055.03 241.50 L -1045.52 241.12 L -1044.58 250.19 L -1029.59 252.78 L -1029.64 265.69 L -1019.29 266.21 L -1066.18 280.53 L -1072.51 289.01 L -1056.09 308.14 L -1067.50 319.83 L -1060.14 346.23 L -1096.01 313.58 L -1119.96 313.92 L -1120.31 302.08 L -1140.00 286.79 L -1140.47 278.18 L -1168.90 278.08 L -1178.38 216.30 L -1139.71 210.93 L -1138.40 131.27 L -1178.69 114.78 L -1178.69 104.30 L -1162.56 104.44 L -1162.54 86.17 L -1204.04 75.42 L -1198.44 54.64 L -1214.70 47.63 L -1201.77 46.62 L -1203.31 26.48 L -1184.20 13.64 L -1175.05 16.87 L -1160.91 2.36 L -1190.77 1.33 L -1187.39 -16.30 L -1132.30 -10.58 L -1131.26 -33.66 L -1119.07 -36.57 L -1090.71 -20.32 L -1040.72 -28.86 L -1035.61 -21.95 L -1022.13 -23.09 L -1022.54 -9.03 L -997.47 -3.66 L -997.40 2.99 L -1028.73 2.77 L -1026.00 8.66 L -1039.14 12.99 L -1039.47 25.37 L -1024.98 42.29 L -1046.88 55.83 L -1040.84 65.63 L -1044.38 81.35 L -1058.53 76.69 L -1054.60 85.33 L -1066.35 87.81 L -1064.54 76.73 L -1072.36 76.38 Z" fill="#1c1c1c" stroke="#2e2e2e" stroke-width="0.4"/>
  <path d="M -673.23 234.29 L -673.23 234.29 Z" fill="#1c1c1c" stroke="#2e2e2e" stroke-width="0.4"/>
  <path d="M -687.97 258.86 L -681.71 255.15 L -691.41 247.49 L -668.50 232.92 L -689.56 213.62 L -673.32 209.09 L -688.45 197.86 L -687.67 192.59 L -669.13 196.44 L -677.05 181.75 L -671.77 177.58 L -655.76 192.06 L -633.46 185.42 L -617.94 195.49 L -591.06 188.30 L -587.96 216.37 L -602.54 213.99 L -598.72 227.44 L -586.81 217.62 L -584.92 200.71 L -555.87 199.77 L -549.28 188.67 L -525.67 179.00 L -528.86 188.55 L -507.09 186.87 L -509.69 197.90 L -503.09 200.13 L -516.09 199.89 L -502.33 201.41 L -506.71 210.67 L -497.71 206.67 L -488.35 226.55 L -496.38 250.01 L -488.78 254.04 L -498.40 262.43 L -475.54 309.75 L -536.64 308.55 L -590.56 294.19 L -631.47 297.92 L -655.06 308.21 L -661.84 333.86 L -704.36 349.79 L -712.73 367.18 L -769.27 385.35 L -758.32 370.21 L -788.33 359.66 L -801.05 346.37 L -751.67 329.71 L -754.29 294.16 L -803.19 294.58 L -828.53 278.79 L -828.24 271.31 L -768.58 270.18 L -758.04 261.14 L -770.02 250.00 L -770.90 232.76 L -760.47 228.00 L -727.83 248.94 L -687.97 258.86 Z" fill="#1c1c1c" stroke="#2e2e2e" stroke-width="0.4"/>
  <path d="M -505.42 417.27 L -482.48 382.62 L -483.07 370.53 L -493.22 362.06 L -483.30 342.88 L -499.50 342.33 L -482.78 337.21 L -482.25 310.06 L -399.68 299.42 L -390.86 286.86 L -372.70 296.10 L -358.02 291.22 L -358.77 301.15 L -340.85 307.36 L -360.13 311.85 L -374.23 361.28 L -384.81 371.35 L -353.06 378.09 L -334.82 368.52 L -329.55 383.35 L -343.32 398.72 L -358.21 398.63 L -353.91 405.02 L -359.51 407.71 L -363.05 402.54 L -379.28 406.98 L -383.64 400.14 L -394.79 412.36 L -403.79 404.45 L -420.62 408.20 L -426.30 420.26 L -449.54 424.40 L -457.65 424.18 L -462.78 401.75 L -473.86 401.40 L -474.00 416.95 L -493.37 414.68 L -494.47 421.50 L -486.03 421.54 L -489.18 428.64 L -505.52 427.47 L -505.42 417.27 Z" fill="#1c1c1c" stroke="#2e2e2e" stroke-width="0.4"/>
  <path d="M -28.12 611.58 L -76.21 599.21 L -68.56 593.69 L -85.43 584.79 L -83.34 576.87 L -29.37 536.68 L 24.73 517.43 L 23.82 540.69 L 46.76 551.70 L 17.65 624.98 L -28.12 611.58 Z" fill="#1c1c1c" stroke="#2e2e2e" stroke-width="0.4"/>
  <path d="M -145.25 492.37 L -169.00 484.29 L -154.91 480.00 L -150.78 463.62 L -146.47 437.85 L -160.14 433.98 L -157.66 418.56 L -131.37 418.65 L -110.02 433.58 L -95.86 425.85 L -55.71 442.22 L -59.41 450.80 L -47.11 462.68 L -91.22 492.60 L -139.51 502.27 L -145.25 492.37 Z" fill="#1c1c1c" stroke="#2e2e2e" stroke-width="0.4"/>
  <path d="M -122.24 128.55 L -140.09 121.01 L -148.23 129.64 L -172.08 115.98 L -172.55 121.22 L -178.54 99.49 L -197.96 107.61 L -261.49 72.64 L -225.66 70.00 L -153.03 81.11 L -129.49 72.30 L -93.68 37.20 L -95.31 44.58 L -86.10 36.95 L -54.09 52.58 L -48.45 47.91 L -51.80 59.78 L -34.95 79.68 L -54.75 97.41 L -56.03 121.74 L -49.89 125.10 L -59.52 136.95 L -33.60 166.11 L -74.00 167.58 L -72.46 158.31 L -88.38 156.43 L -91.50 139.12 L -122.24 128.55 Z" fill="#1c1c1c" stroke="#2e2e2e" stroke-width="0.4"/>
  <path d="M -220.36 663.61 L -210.75 678.64 L -181.27 671.16 L -178.06 683.35 L -115.13 670.96 L -86.21 677.82 L -85.04 687.19 L -105.40 712.06 L -105.56 756.56 L -94.63 784.19 L -104.86 798.11 L -124.65 797.40 L -123.00 790.24 L -133.50 788.79 L -152.05 766.55 L -164.43 775.14 L -186.09 757.54 L -198.02 759.60 L -202.64 749.40 L -218.56 750.74 L -219.15 738.49 L -228.48 732.87 L -283.65 729.21 L -301.97 717.05 L -288.08 696.49 L -294.49 692.15 L -303.61 702.74 L -306.35 697.82 L -280.72 675.72 L -286.44 683.33 L -270.99 679.54 L -270.36 663.17 L -220.36 663.61 Z" fill="#1c1c1c" stroke="#2e2e2e" stroke-width="0.4"/>
  <path d="M -745.32 239.63 L -780.83 207.83 L -844.32 213.34 L -836.12 217.24 L -859.33 219.45 L -859.25 226.39 L -870.38 221.27 L -868.38 213.33 L -836.79 206.11 L -841.59 177.54 L -815.23 172.26 L -826.37 165.86 L -808.09 160.40 L -808.09 153.57 L -774.69 148.40 L -771.90 160.59 L -750.31 161.46 L -733.13 152.39 L -697.64 148.92 L -687.71 155.60 L -681.78 149.34 L -674.19 167.68 L -685.43 177.39 L -694.07 174.02 L -688.03 182.90 L -698.25 185.25 L -688.24 191.06 L -677.05 181.75 L -669.13 196.44 L -687.67 192.59 L -688.51 201.96 L -681.28 198.21 L -672.90 207.62 L -689.56 213.62 L -668.35 231.99 L -691.41 247.49 L -681.71 255.15 L -688.09 258.76 L -680.56 259.52 L -745.32 239.63 Z" fill="#1c1c1c" stroke="#2e2e2e" stroke-width="0.4"/>
  <path d="M -675.15 231.79 L -670.13 232.80 L -675.15 231.79 Z" fill="#1c1c1c" stroke="#2e2e2e" stroke-width="0.4"/>
  <path d="M -526.76 129.19 L -534.98 125.89 L -526.76 129.19 Z" fill="#1c1c1c" stroke="#2e2e2e" stroke-width="0.4"/>
  <path d="M -490.87 237.56 L -497.71 206.67 L -506.59 207.39 L -457.98 195.11 L -463.10 188.86 L -454.31 183.84 L -471.12 164.37 L -455.28 150.21 L -476.92 151.47 L -470.82 127.91 L -416.39 136.66 L -331.88 175.70 L -354.32 201.22 L -414.13 228.88 L -412.49 281.59 L -431.42 303.24 L -475.54 309.75 L -498.40 262.43 L -488.78 254.04 L -496.36 250.35 L -490.87 237.56 Z" fill="#1c1c1c" stroke="#2e2e2e" stroke-width="0.4"/>
  <path d="M -852.01 105.41 L -853.71 98.46 L -847.36 103.21 L -852.01 105.41 Z" fill="#1c1c1c" stroke="#2e2e2e" stroke-width="0.4"/>
  <path d="M -1044.51 109.56 L -1090.95 98.93 L -1090.46 76.10 L -1064.54 76.73 L -1065.85 87.88 L -1054.60 85.33 L -1058.53 76.69 L -1044.38 81.35 L -1040.84 65.63 L -1046.88 55.83 L -1024.98 42.29 L -1039.47 25.37 L -1039.14 12.99 L -1026.00 8.66 L -1028.73 2.77 L -997.40 2.99 L -997.47 -3.66 L -1022.54 -9.03 L -1021.78 -22.66 L -984.66 -26.19 L -966.43 -14.93 L -940.64 -18.72 L -931.44 -11.12 L -924.49 -13.05 L -927.73 -18.81 L -917.40 -8.82 L -890.21 -9.73 L -854.50 38.52 L -811.92 41.94 L -815.12 81.43 L -829.57 86.23 L -823.86 94.86 L -842.86 88.88 L -880.09 101.56 L -830.90 110.21 L -893.30 109.41 L -897.26 124.10 L -910.18 117.02 L -892.85 128.79 L -902.20 137.28 L -912.34 136.09 L -908.77 119.19 L -918.74 112.62 L -928.03 162.38 L -938.78 161.81 L -939.15 171.29 L -904.85 178.33 L -907.82 190.33 L -894.25 203.77 L -899.18 205.43 L -858.94 208.32 L -870.38 221.27 L -859.25 226.39 L -859.11 238.50 L -891.23 242.92 L -893.18 258.71 L -902.51 266.58 L -923.13 269.51 L -922.70 251.82 L -907.34 240.67 L -932.93 241.24 L -949.22 263.77 L -983.07 256.60 L -1006.23 264.67 L -1012.33 288.58 L -1063.81 306.07 L -1072.51 289.01 L -1066.71 280.82 L -1019.29 266.21 L -1029.64 265.69 L -1029.59 252.78 L -1044.58 250.19 L -1045.52 241.12 L -1055.03 241.50 L -1059.22 222.58 L -1076.06 218.09 L -1075.60 204.33 L -1028.79 203.36 L -1038.15 160.00 L -1064.43 157.80 L -1058.54 143.09 L -1067.79 143.84 L -1066.13 135.45 L -1073.45 133.89 L -1069.02 105.24 L -1044.51 109.56 Z" fill="#1c1c1c" stroke="#2e2e2e" stroke-width="0.4"/>
  <path d="M -110.10 671.17 L -154.18 679.63 L -146.37 659.76 L -90.33 598.96 L -85.43 584.79 L -68.56 593.69 L -76.21 599.21 L 17.65 624.98 L -9.90 715.21 L -94.63 784.19 L -105.56 756.56 L -105.86 715.70 L -85.42 680.11 L -110.10 671.17 Z" fill="#1c1c1c" stroke="#2e2e2e" stroke-width="0.4"/>
  <path d="M 9.68 164.15 L -37.73 161.69 L -59.52 136.95 L -49.91 125.21 L -56.29 107.72 L -44.75 82.99 L -21.86 84.09 L 1.12 104.19 L 40.14 100.21 L 53.46 86.81 L 58.49 95.92 L 93.59 93.66 L 96.37 114.42 L 85.65 141.10 L 30.90 151.41 L 33.69 157.14 L 24.17 159.41 L 30.52 164.46 L 9.68 164.15 Z" fill="#1c1c1c" stroke="#2e2e2e" stroke-width="0.4"/>
  <path d="M -47.40 57.39 L -48.45 47.91 L -54.09 52.58 L -86.10 36.95 L -109.59 52.23 L -86.81 -15.43 L -69.59 -27.46 L -48.84 -30.20 L -14.32 -21.13 L 32.45 21.81 L 111.85 65.64 L 94.74 71.48 L 101.07 82.02 L 94.54 89.02 L 90.67 84.96 L 91.79 94.59 L 58.49 95.92 L 53.46 86.81 L 40.14 100.21 L 1.52 104.21 L -19.65 85.15 L -36.37 82.70 L -47.40 57.39 Z" fill="#1c1c1c" stroke="#2e2e2e" stroke-width="0.4"/>
  <path d="M -133.28 307.89 L -127.55 316.22 L -105.39 306.79 L -106.86 322.06 L -114.83 323.04 L -105.42 330.94 L -108.66 341.84 L -121.06 340.54 L -118.61 347.62 L -128.94 340.11 L -183.48 342.60 L -184.34 323.59 L -201.08 318.75 L -207.81 285.33 L -131.24 299.32 L -127.67 304.49 L -139.43 305.80 L -133.28 307.89 Z" fill="#1c1c1c" stroke="#2e2e2e" stroke-width="0.4"/>
  <path d="M 87.82 370.12 L 53.12 353.61 L 21.16 348.81 L 22.32 342.48 L 37.50 323.80 L 65.13 333.12 L 106.25 351.51 L 94.52 371.91 L 87.82 370.12 Z" fill="#1c1c1c" stroke="#2e2e2e" stroke-width="0.4"/>
  <path d="M 72.50 435.52 L 74.08 428.23 L 132.29 440.49 L 140.65 458.60 L 107.85 478.91 L 68.45 472.17 L 70.85 445.99 L 64.37 445.40 L 70.90 445.67 L 72.50 435.52 Z" fill="#1c1c1c" stroke="#2e2e2e" stroke-width="0.4"/>
  <path d="M 96.08 115.78 L 90.66 85.04 L 94.54 89.02 L 101.07 82.02 L 94.57 71.77 L 111.85 65.64 L 85.47 49.39 L 161.99 87.44 L 186.87 84.99 L 218.89 69.28 L 241.60 69.73 L 266.55 82.88 L 281.82 108.11 L 272.73 120.58 L 199.87 161.72 L 169.95 158.83 L 169.07 170.61 L 78.18 164.98 L 96.08 115.78 Z" fill="#FFCC4D" fill-opacity="0.55" stroke="#FFCC4D" stroke-width="1.5" stroke-opacity="0.9"/>
</svg>